<mxfile host="app.diagrams.net" modified="2023-01-31T03:26:39.905Z" agent="5.0 (Macintosh; Intel Mac OS X 10_15_7) AppleWebKit/537.36 (KHTML, like Gecko) Chrome/109.0.0.0 Safari/537.36" etag="Vw_r92wcWqQQjNgaTQtd" version="20.8.1" type="github">
  <diagram id="NJYsv6nAN40AnTQsV-DW" name="Page-1">
    <mxGraphModel dx="3903" dy="162" grid="1" gridSize="10" guides="1" tooltips="1" connect="1" arrows="1" fold="1" page="1" pageScale="1" pageWidth="827" pageHeight="1169" math="0" shadow="0">
      <root>
        <mxCell id="0" />
        <mxCell id="1" parent="0" />
        <mxCell id="YAhVAdzrSbsZRVZ3iHBd-32" value="" style="rounded=0;whiteSpace=wrap;html=1;" parent="1" vertex="1">
          <mxGeometry x="6405" y="6635" width="160" height="300" as="geometry" />
        </mxCell>
        <mxCell id="qDP3Hpl89R7axa0EM4YJ-281" value="" style="rounded=1;whiteSpace=wrap;html=1;absoluteArcSize=1;arcSize=14;strokeWidth=2;" parent="1" vertex="1">
          <mxGeometry x="6360" y="2740.5" width="1660" height="670" as="geometry" />
        </mxCell>
        <mxCell id="qDP3Hpl89R7axa0EM4YJ-280" value="" style="rounded=1;whiteSpace=wrap;html=1;absoluteArcSize=1;arcSize=14;strokeWidth=2;" parent="1" vertex="1">
          <mxGeometry x="6360" y="2027" width="1660" height="670" as="geometry" />
        </mxCell>
        <mxCell id="qm-dL68TJm12xnXsdDqb-25" value="物流协同" style="shape=umlLifeline;perimeter=lifelinePerimeter;whiteSpace=wrap;html=1;container=1;collapsible=0;recursiveResize=0;outlineConnect=0;comic=0;" parent="1" vertex="1">
          <mxGeometry x="-790" y="1968.5" width="100" height="650" as="geometry" />
        </mxCell>
        <mxCell id="qm-dL68TJm12xnXsdDqb-26" value="" style="html=1;points=[];perimeter=orthogonalPerimeter;comic=0;" parent="qm-dL68TJm12xnXsdDqb-25" vertex="1">
          <mxGeometry x="45" y="80" width="10" height="540" as="geometry" />
        </mxCell>
        <mxCell id="qm-dL68TJm12xnXsdDqb-27" value="" style="html=1;points=[];perimeter=orthogonalPerimeter;comic=0;" parent="qm-dL68TJm12xnXsdDqb-25" vertex="1">
          <mxGeometry x="55" y="130" width="10" height="40" as="geometry" />
        </mxCell>
        <mxCell id="qm-dL68TJm12xnXsdDqb-28" value="计算标品" style="edgeStyle=orthogonalEdgeStyle;html=1;align=left;spacingLeft=2;endArrow=block;entryX=1;entryY=0;comic=0;" parent="qm-dL68TJm12xnXsdDqb-25" target="qm-dL68TJm12xnXsdDqb-27" edge="1">
          <mxGeometry relative="1" as="geometry">
            <mxPoint x="55" y="110" as="sourcePoint" />
            <Array as="points">
              <mxPoint x="85" y="110" />
            </Array>
          </mxGeometry>
        </mxCell>
        <mxCell id="qm-dL68TJm12xnXsdDqb-29" value="交易" style="shape=umlLifeline;perimeter=lifelinePerimeter;whiteSpace=wrap;html=1;container=1;collapsible=0;recursiveResize=0;outlineConnect=0;comic=0;" parent="1" vertex="1">
          <mxGeometry x="-950" y="1968.5" width="100" height="660" as="geometry" />
        </mxCell>
        <mxCell id="qm-dL68TJm12xnXsdDqb-30" value="" style="html=1;points=[];perimeter=orthogonalPerimeter;comic=0;" parent="qm-dL68TJm12xnXsdDqb-29" vertex="1">
          <mxGeometry x="45" y="70" width="10" height="560" as="geometry" />
        </mxCell>
        <mxCell id="qm-dL68TJm12xnXsdDqb-31" value="询用户T" style="html=1;verticalAlign=bottom;endArrow=block;entryX=0;entryY=0;comic=0;" parent="qm-dL68TJm12xnXsdDqb-29" target="qm-dL68TJm12xnXsdDqb-30" edge="1">
          <mxGeometry relative="1" as="geometry">
            <mxPoint x="-20" y="70" as="sourcePoint" />
          </mxGeometry>
        </mxCell>
        <mxCell id="qm-dL68TJm12xnXsdDqb-32" value="询T核心逻辑" style="text;html=1;align=center;verticalAlign=middle;resizable=0;points=[];autosize=1;strokeColor=none;comic=1;" parent="1" vertex="1">
          <mxGeometry x="-955" y="1928.5" width="80" height="20" as="geometry" />
        </mxCell>
        <mxCell id="qm-dL68TJm12xnXsdDqb-33" value="T工程" style="shape=umlLifeline;perimeter=lifelinePerimeter;whiteSpace=wrap;html=1;container=1;collapsible=0;recursiveResize=0;outlineConnect=0;comic=0;" parent="1" vertex="1">
          <mxGeometry x="-590" y="1968.5" width="100" height="650" as="geometry" />
        </mxCell>
        <mxCell id="qm-dL68TJm12xnXsdDqb-34" value="" style="html=1;points=[];perimeter=orthogonalPerimeter;comic=0;" parent="qm-dL68TJm12xnXsdDqb-33" vertex="1">
          <mxGeometry x="45" y="180" width="10" height="430" as="geometry" />
        </mxCell>
        <mxCell id="qm-dL68TJm12xnXsdDqb-35" value="return" style="html=1;verticalAlign=bottom;endArrow=open;dashed=1;endSize=8;exitX=0;exitY=0.95;comic=0;" parent="qm-dL68TJm12xnXsdDqb-33" source="qm-dL68TJm12xnXsdDqb-34" edge="1">
          <mxGeometry relative="1" as="geometry">
            <mxPoint x="-150" y="589" as="targetPoint" />
          </mxGeometry>
        </mxCell>
        <mxCell id="qm-dL68TJm12xnXsdDqb-36" value="" style="html=1;points=[];perimeter=orthogonalPerimeter;comic=0;" parent="qm-dL68TJm12xnXsdDqb-33" vertex="1">
          <mxGeometry x="55" y="490" width="10" height="40" as="geometry" />
        </mxCell>
        <mxCell id="qm-dL68TJm12xnXsdDqb-37" value="规则计算" style="edgeStyle=orthogonalEdgeStyle;html=1;align=left;spacingLeft=2;endArrow=block;entryX=1;entryY=0;comic=0;" parent="qm-dL68TJm12xnXsdDqb-33" target="qm-dL68TJm12xnXsdDqb-36" edge="1">
          <mxGeometry relative="1" as="geometry">
            <mxPoint x="55" y="470" as="sourcePoint" />
            <Array as="points">
              <mxPoint x="85" y="470" />
            </Array>
          </mxGeometry>
        </mxCell>
        <mxCell id="qm-dL68TJm12xnXsdDqb-38" value="" style="html=1;points=[];perimeter=orthogonalPerimeter;comic=0;" parent="qm-dL68TJm12xnXsdDqb-33" vertex="1">
          <mxGeometry x="55" y="210" width="10" height="50" as="geometry" />
        </mxCell>
        <mxCell id="qm-dL68TJm12xnXsdDqb-39" value="构建context" style="edgeStyle=orthogonalEdgeStyle;html=1;align=left;spacingLeft=2;endArrow=block;entryX=1;entryY=0;comic=0;" parent="qm-dL68TJm12xnXsdDqb-33" target="qm-dL68TJm12xnXsdDqb-38" edge="1">
          <mxGeometry relative="1" as="geometry">
            <mxPoint x="55" y="190" as="sourcePoint" />
            <Array as="points">
              <mxPoint x="85" y="190" />
            </Array>
          </mxGeometry>
        </mxCell>
        <mxCell id="qm-dL68TJm12xnXsdDqb-40" value="" style="html=1;verticalAlign=bottom;endArrow=block;entryX=0;entryY=0;comic=0;" parent="1" target="qm-dL68TJm12xnXsdDqb-26" edge="1">
          <mxGeometry relative="1" as="geometry">
            <mxPoint x="-900" y="2048.5" as="sourcePoint" />
          </mxGeometry>
        </mxCell>
        <mxCell id="qm-dL68TJm12xnXsdDqb-41" value="标品id、卡餐数据等" style="html=1;verticalAlign=bottom;endArrow=block;entryX=0;entryY=0;comic=0;" parent="1" source="qm-dL68TJm12xnXsdDqb-25" target="qm-dL68TJm12xnXsdDqb-34" edge="1">
          <mxGeometry relative="1" as="geometry">
            <mxPoint x="-740" y="2153.5" as="sourcePoint" />
          </mxGeometry>
        </mxCell>
        <mxCell id="qm-dL68TJm12xnXsdDqb-42" value="T算法" style="shape=umlLifeline;perimeter=lifelinePerimeter;whiteSpace=wrap;html=1;container=1;collapsible=0;recursiveResize=0;outlineConnect=0;comic=0;" parent="1" vertex="1">
          <mxGeometry x="-362.5" y="1968.5" width="100" height="640" as="geometry" />
        </mxCell>
        <mxCell id="qm-dL68TJm12xnXsdDqb-43" value="" style="html=1;points=[];perimeter=orthogonalPerimeter;comic=0;" parent="qm-dL68TJm12xnXsdDqb-42" vertex="1">
          <mxGeometry x="40" y="290" width="10" height="40" as="geometry" />
        </mxCell>
        <mxCell id="qm-dL68TJm12xnXsdDqb-44" value="" style="html=1;points=[];perimeter=orthogonalPerimeter;comic=0;" parent="qm-dL68TJm12xnXsdDqb-42" vertex="1">
          <mxGeometry x="39" y="370" width="10" height="40" as="geometry" />
        </mxCell>
        <mxCell id="qm-dL68TJm12xnXsdDqb-45" value="" style="html=1;points=[];perimeter=orthogonalPerimeter;comic=0;" parent="qm-dL68TJm12xnXsdDqb-42" vertex="1">
          <mxGeometry x="45" y="540" width="10" height="40" as="geometry" />
        </mxCell>
        <mxCell id="qm-dL68TJm12xnXsdDqb-46" value="带卡餐询出餐T" style="html=1;verticalAlign=bottom;endArrow=block;entryX=0;entryY=0;comic=0;" parent="1" target="qm-dL68TJm12xnXsdDqb-43" edge="1">
          <mxGeometry relative="1" as="geometry">
            <mxPoint x="-534" y="2258.5" as="sourcePoint" />
          </mxGeometry>
        </mxCell>
        <mxCell id="qm-dL68TJm12xnXsdDqb-47" value="return" style="html=1;verticalAlign=bottom;endArrow=open;dashed=1;endSize=8;exitX=0;exitY=0.95;comic=0;" parent="1" source="qm-dL68TJm12xnXsdDqb-43" target="qm-dL68TJm12xnXsdDqb-34" edge="1">
          <mxGeometry relative="1" as="geometry">
            <mxPoint x="-397.5" y="2333.5" as="targetPoint" />
          </mxGeometry>
        </mxCell>
        <mxCell id="qm-dL68TJm12xnXsdDqb-48" value="带卡餐询用户T" style="html=1;verticalAlign=bottom;endArrow=block;entryX=0;entryY=0;comic=0;" parent="1" target="qm-dL68TJm12xnXsdDqb-44" edge="1">
          <mxGeometry relative="1" as="geometry">
            <mxPoint x="-535" y="2338.5" as="sourcePoint" />
          </mxGeometry>
        </mxCell>
        <mxCell id="qm-dL68TJm12xnXsdDqb-49" value="return" style="html=1;verticalAlign=bottom;endArrow=open;dashed=1;endSize=8;exitX=0;exitY=0.95;comic=0;" parent="1" source="qm-dL68TJm12xnXsdDqb-44" target="qm-dL68TJm12xnXsdDqb-34" edge="1">
          <mxGeometry relative="1" as="geometry">
            <mxPoint x="-188.5" y="2418.5" as="targetPoint" />
          </mxGeometry>
        </mxCell>
        <mxCell id="qm-dL68TJm12xnXsdDqb-50" value="带卡餐末端校准" style="html=1;verticalAlign=bottom;endArrow=block;entryX=0;entryY=0;comic=0;" parent="1" source="qm-dL68TJm12xnXsdDqb-34" target="qm-dL68TJm12xnXsdDqb-45" edge="1">
          <mxGeometry relative="1" as="geometry">
            <mxPoint x="-192.5" y="2448.5" as="sourcePoint" />
          </mxGeometry>
        </mxCell>
        <mxCell id="qm-dL68TJm12xnXsdDqb-51" value="return" style="html=1;verticalAlign=bottom;endArrow=open;dashed=1;endSize=8;exitX=0;exitY=0.95;comic=0;" parent="1" source="qm-dL68TJm12xnXsdDqb-45" target="qm-dL68TJm12xnXsdDqb-33" edge="1">
          <mxGeometry relative="1" as="geometry">
            <mxPoint x="-447.5" y="2478.5" as="targetPoint" />
          </mxGeometry>
        </mxCell>
        <mxCell id="qm-dL68TJm12xnXsdDqb-52" value="return" style="html=1;verticalAlign=bottom;endArrow=open;dashed=1;endSize=8;entryX=0.853;entryY=0.944;entryDx=0;entryDy=0;entryPerimeter=0;comic=0;" parent="1" target="qm-dL68TJm12xnXsdDqb-30" edge="1">
          <mxGeometry relative="1" as="geometry">
            <mxPoint x="-750" y="2568.5" as="sourcePoint" />
            <mxPoint x="-830" y="2568.5" as="targetPoint" />
          </mxGeometry>
        </mxCell>
        <mxCell id="qm-dL68TJm12xnXsdDqb-53" value="return" style="html=1;verticalAlign=bottom;endArrow=open;dashed=1;endSize=8;comic=0;" parent="1" edge="1">
          <mxGeometry relative="1" as="geometry">
            <mxPoint x="-910" y="2578.5" as="sourcePoint" />
            <mxPoint x="-980" y="2578.5" as="targetPoint" />
          </mxGeometry>
        </mxCell>
        <mxCell id="qm-dL68TJm12xnXsdDqb-54" value="卡餐数据等" style="text;html=1;align=center;verticalAlign=middle;resizable=0;points=[];autosize=1;strokeColor=none;" parent="1" vertex="1">
          <mxGeometry x="-870" y="2022.5" width="80" height="20" as="geometry" />
        </mxCell>
        <mxCell id="qm-dL68TJm12xnXsdDqb-55" value="T工程&lt;br&gt;" style="shape=umlLifeline;perimeter=lifelinePerimeter;whiteSpace=wrap;html=1;container=1;collapsible=0;recursiveResize=0;outlineConnect=0;comic=0;" parent="1" vertex="1">
          <mxGeometry x="74.25" y="3187" width="100" height="1250" as="geometry" />
        </mxCell>
        <mxCell id="qm-dL68TJm12xnXsdDqb-56" value="" style="html=1;points=[];perimeter=orthogonalPerimeter;comic=0;" parent="qm-dL68TJm12xnXsdDqb-55" vertex="1">
          <mxGeometry x="45" y="90" width="10" height="50" as="geometry" />
        </mxCell>
        <mxCell id="qm-dL68TJm12xnXsdDqb-57" value="" style="html=1;points=[];perimeter=orthogonalPerimeter;comic=0;" parent="qm-dL68TJm12xnXsdDqb-55" vertex="1">
          <mxGeometry x="45" y="247" width="10" height="37" as="geometry" />
        </mxCell>
        <mxCell id="qm-dL68TJm12xnXsdDqb-58" value="" style="html=1;points=[];perimeter=orthogonalPerimeter;comic=0;" parent="qm-dL68TJm12xnXsdDqb-55" vertex="1">
          <mxGeometry x="45" y="430" width="10" height="70" as="geometry" />
        </mxCell>
        <mxCell id="qm-dL68TJm12xnXsdDqb-59" value="" style="html=1;points=[];perimeter=orthogonalPerimeter;comic=0;" parent="qm-dL68TJm12xnXsdDqb-55" vertex="1">
          <mxGeometry x="45" y="617" width="10" height="40" as="geometry" />
        </mxCell>
        <mxCell id="qm-dL68TJm12xnXsdDqb-60" value="" style="html=1;points=[];perimeter=orthogonalPerimeter;comic=0;" parent="qm-dL68TJm12xnXsdDqb-55" vertex="1">
          <mxGeometry x="45" y="760" width="10" height="40" as="geometry" />
        </mxCell>
        <mxCell id="qm-dL68TJm12xnXsdDqb-61" value="return" style="html=1;verticalAlign=bottom;endArrow=open;dashed=1;endSize=8;exitX=0;exitY=0.95;" parent="qm-dL68TJm12xnXsdDqb-55" source="qm-dL68TJm12xnXsdDqb-60" edge="1">
          <mxGeometry relative="1" as="geometry">
            <mxPoint x="-171.5" y="796" as="targetPoint" />
          </mxGeometry>
        </mxCell>
        <mxCell id="qm-dL68TJm12xnXsdDqb-62" value="" style="html=1;points=[];perimeter=orthogonalPerimeter;comic=0;" parent="qm-dL68TJm12xnXsdDqb-55" vertex="1">
          <mxGeometry x="45" y="930" width="10" height="40" as="geometry" />
        </mxCell>
        <mxCell id="qm-dL68TJm12xnXsdDqb-63" value="交易" style="shape=umlLifeline;perimeter=lifelinePerimeter;whiteSpace=wrap;html=1;container=1;collapsible=0;recursiveResize=0;outlineConnect=0;comic=0;" parent="1" vertex="1">
          <mxGeometry x="-715" y="3187" width="100" height="1250" as="geometry" />
        </mxCell>
        <mxCell id="qm-dL68TJm12xnXsdDqb-64" value="" style="html=1;points=[];perimeter=orthogonalPerimeter;comic=0;" parent="qm-dL68TJm12xnXsdDqb-63" vertex="1">
          <mxGeometry x="44" y="80" width="10" height="80" as="geometry" />
        </mxCell>
        <mxCell id="qm-dL68TJm12xnXsdDqb-65" value="提单页询T" style="html=1;verticalAlign=bottom;endArrow=block;entryX=0;entryY=0;" parent="qm-dL68TJm12xnXsdDqb-63" target="qm-dL68TJm12xnXsdDqb-64" edge="1">
          <mxGeometry relative="1" as="geometry">
            <mxPoint x="-26" y="80" as="sourcePoint" />
          </mxGeometry>
        </mxCell>
        <mxCell id="qm-dL68TJm12xnXsdDqb-66" value="return" style="html=1;verticalAlign=bottom;endArrow=open;dashed=1;endSize=8;exitX=0;exitY=0.95;" parent="qm-dL68TJm12xnXsdDqb-63" source="qm-dL68TJm12xnXsdDqb-64" edge="1">
          <mxGeometry relative="1" as="geometry">
            <mxPoint x="-26" y="156" as="targetPoint" />
          </mxGeometry>
        </mxCell>
        <mxCell id="qm-dL68TJm12xnXsdDqb-67" value="" style="html=1;points=[];perimeter=orthogonalPerimeter;comic=0;" parent="qm-dL68TJm12xnXsdDqb-63" vertex="1">
          <mxGeometry x="44" y="230" width="10" height="80" as="geometry" />
        </mxCell>
        <mxCell id="qm-dL68TJm12xnXsdDqb-68" value="下单" style="html=1;verticalAlign=bottom;endArrow=block;entryX=0;entryY=0;" parent="qm-dL68TJm12xnXsdDqb-63" target="qm-dL68TJm12xnXsdDqb-67" edge="1">
          <mxGeometry relative="1" as="geometry">
            <mxPoint x="-26" y="230" as="sourcePoint" />
          </mxGeometry>
        </mxCell>
        <mxCell id="qm-dL68TJm12xnXsdDqb-69" value="return" style="html=1;verticalAlign=bottom;endArrow=open;dashed=1;endSize=8;exitX=0;exitY=0.95;" parent="qm-dL68TJm12xnXsdDqb-63" source="qm-dL68TJm12xnXsdDqb-67" edge="1">
          <mxGeometry relative="1" as="geometry">
            <mxPoint x="-26" y="306" as="targetPoint" />
          </mxGeometry>
        </mxCell>
        <mxCell id="qm-dL68TJm12xnXsdDqb-70" value="询用户T" style="html=1;verticalAlign=bottom;endArrow=block;entryX=0;entryY=0;exitX=0.929;exitY=0.182;exitDx=0;exitDy=0;exitPerimeter=0;" parent="1" source="qm-dL68TJm12xnXsdDqb-67" target="qm-dL68TJm12xnXsdDqb-57" edge="1">
          <mxGeometry relative="1" as="geometry">
            <mxPoint x="-655" y="3434" as="sourcePoint" />
          </mxGeometry>
        </mxCell>
        <mxCell id="qm-dL68TJm12xnXsdDqb-71" value="return" style="html=1;verticalAlign=bottom;endArrow=open;dashed=1;endSize=8;exitX=0;exitY=0.95;" parent="1" source="qm-dL68TJm12xnXsdDqb-57" edge="1">
          <mxGeometry relative="1" as="geometry">
            <mxPoint x="-665" y="3467" as="targetPoint" />
          </mxGeometry>
        </mxCell>
        <mxCell id="qm-dL68TJm12xnXsdDqb-72" value="T工程交互主流程" style="text;html=1;align=center;verticalAlign=middle;resizable=0;points=[];autosize=1;strokeColor=none;" parent="1" vertex="1">
          <mxGeometry x="-735" y="3137" width="110" height="20" as="geometry" />
        </mxCell>
        <mxCell id="qm-dL68TJm12xnXsdDqb-73" value="运单入单询骑手T" style="html=1;verticalAlign=bottom;endArrow=block;exitX=0.8;exitY=0.183;exitDx=0;exitDy=0;exitPerimeter=0;" parent="1" source="qm-dL68TJm12xnXsdDqb-104" target="qm-dL68TJm12xnXsdDqb-58" edge="1">
          <mxGeometry relative="1" as="geometry">
            <mxPoint x="442.75" y="3564" as="sourcePoint" />
            <mxPoint x="123.75" y="3648.7" as="targetPoint" />
          </mxGeometry>
        </mxCell>
        <mxCell id="qm-dL68TJm12xnXsdDqb-74" value="return" style="html=1;verticalAlign=bottom;endArrow=open;dashed=1;endSize=8;exitX=0;exitY=0.95;entryX=1.329;entryY=0.746;entryDx=0;entryDy=0;entryPerimeter=0;" parent="1" source="qm-dL68TJm12xnXsdDqb-58" target="qm-dL68TJm12xnXsdDqb-104" edge="1">
          <mxGeometry relative="1" as="geometry">
            <mxPoint x="-97.25" y="3685" as="targetPoint" />
          </mxGeometry>
        </mxCell>
        <mxCell id="qm-dL68TJm12xnXsdDqb-75" value="并行呼单询T" style="html=1;verticalAlign=bottom;endArrow=block;entryX=0;entryY=0;" parent="1" target="qm-dL68TJm12xnXsdDqb-59" edge="1">
          <mxGeometry relative="1" as="geometry">
            <mxPoint x="-97.25" y="3804" as="sourcePoint" />
          </mxGeometry>
        </mxCell>
        <mxCell id="qm-dL68TJm12xnXsdDqb-76" value="return" style="html=1;verticalAlign=bottom;endArrow=open;dashed=1;endSize=8;exitX=0;exitY=0.95;" parent="1" source="qm-dL68TJm12xnXsdDqb-59" edge="1">
          <mxGeometry relative="1" as="geometry">
            <mxPoint x="-100.92647058823604" y="3842" as="targetPoint" />
          </mxGeometry>
        </mxCell>
        <mxCell id="qm-dL68TJm12xnXsdDqb-77" value="确认运力" style="html=1;verticalAlign=bottom;endArrow=block;entryX=0;entryY=0;exitX=1.129;exitY=0.22;exitDx=0;exitDy=0;exitPerimeter=0;" parent="1" source="qm-dL68TJm12xnXsdDqb-106" target="qm-dL68TJm12xnXsdDqb-60" edge="1">
          <mxGeometry relative="1" as="geometry">
            <mxPoint x="-87.25" y="3947" as="sourcePoint" />
          </mxGeometry>
        </mxCell>
        <mxCell id="qm-dL68TJm12xnXsdDqb-78" value="T算法" style="shape=umlLifeline;perimeter=lifelinePerimeter;whiteSpace=wrap;html=1;container=1;collapsible=0;recursiveResize=0;outlineConnect=0;comic=0;" parent="1" vertex="1">
          <mxGeometry x="295.75" y="3190" width="100" height="1247" as="geometry" />
        </mxCell>
        <mxCell id="qm-dL68TJm12xnXsdDqb-79" value="" style="html=1;points=[];perimeter=orthogonalPerimeter;comic=0;" parent="qm-dL68TJm12xnXsdDqb-78" vertex="1">
          <mxGeometry x="45" y="107" width="10" height="20" as="geometry" />
        </mxCell>
        <mxCell id="qm-dL68TJm12xnXsdDqb-80" value="调用算法" style="html=1;verticalAlign=bottom;endArrow=block;entryX=0;entryY=0;" parent="1" target="qm-dL68TJm12xnXsdDqb-79" edge="1">
          <mxGeometry relative="1" as="geometry">
            <mxPoint x="135" y="3297" as="sourcePoint" />
          </mxGeometry>
        </mxCell>
        <mxCell id="qm-dL68TJm12xnXsdDqb-81" value="return" style="html=1;verticalAlign=bottom;endArrow=open;dashed=1;endSize=8;exitX=0;exitY=0.95;" parent="1" source="qm-dL68TJm12xnXsdDqb-79" target="qm-dL68TJm12xnXsdDqb-56" edge="1">
          <mxGeometry relative="1" as="geometry">
            <mxPoint x="269.75" y="3343" as="targetPoint" />
          </mxGeometry>
        </mxCell>
        <mxCell id="qm-dL68TJm12xnXsdDqb-82" value="" style="html=1;points=[];perimeter=orthogonalPerimeter;comic=0;" parent="1" vertex="1">
          <mxGeometry x="340.25" y="3442.5" width="10" height="20" as="geometry" />
        </mxCell>
        <mxCell id="qm-dL68TJm12xnXsdDqb-83" value="调用算法" style="html=1;verticalAlign=bottom;endArrow=block;entryX=0;entryY=0;" parent="1" source="qm-dL68TJm12xnXsdDqb-57" target="qm-dL68TJm12xnXsdDqb-82" edge="1">
          <mxGeometry relative="1" as="geometry">
            <mxPoint x="133.57352941176464" y="3307" as="sourcePoint" />
          </mxGeometry>
        </mxCell>
        <mxCell id="qm-dL68TJm12xnXsdDqb-84" value="return" style="html=1;verticalAlign=bottom;endArrow=open;dashed=1;endSize=8;entryX=0.575;entryY=0.622;entryDx=0;entryDy=0;entryPerimeter=0;" parent="1" target="qm-dL68TJm12xnXsdDqb-57" edge="1">
          <mxGeometry relative="1" as="geometry">
            <mxPoint x="133.75" y="3457" as="targetPoint" />
            <mxPoint x="345.75" y="3457" as="sourcePoint" />
          </mxGeometry>
        </mxCell>
        <mxCell id="qm-dL68TJm12xnXsdDqb-85" value="T工程&lt;br&gt;" style="shape=umlLifeline;perimeter=lifelinePerimeter;whiteSpace=wrap;html=1;container=1;collapsible=0;recursiveResize=0;outlineConnect=0;comic=0;" parent="1" vertex="1">
          <mxGeometry x="44" y="1968.5" width="100" height="300" as="geometry" />
        </mxCell>
        <mxCell id="qm-dL68TJm12xnXsdDqb-86" value="" style="html=1;points=[];perimeter=orthogonalPerimeter;comic=0;" parent="qm-dL68TJm12xnXsdDqb-85" vertex="1">
          <mxGeometry x="46" y="90" width="10" height="200" as="geometry" />
        </mxCell>
        <mxCell id="qm-dL68TJm12xnXsdDqb-87" value="定时触发" style="html=1;verticalAlign=bottom;startArrow=oval;endArrow=block;startSize=8;" parent="qm-dL68TJm12xnXsdDqb-85" target="qm-dL68TJm12xnXsdDqb-86" edge="1">
          <mxGeometry relative="1" as="geometry">
            <mxPoint x="-14" y="90" as="sourcePoint" />
          </mxGeometry>
        </mxCell>
        <mxCell id="qm-dL68TJm12xnXsdDqb-88" value="minos" style="shape=umlLifeline;perimeter=lifelinePerimeter;whiteSpace=wrap;html=1;container=1;collapsible=0;recursiveResize=0;outlineConnect=0;comic=0;" parent="1" vertex="1">
          <mxGeometry x="240" y="1968.5" width="100" height="300" as="geometry" />
        </mxCell>
        <mxCell id="qm-dL68TJm12xnXsdDqb-89" value="" style="html=1;points=[];perimeter=orthogonalPerimeter;comic=0;" parent="qm-dL68TJm12xnXsdDqb-88" vertex="1">
          <mxGeometry x="45" y="110" width="10" height="50" as="geometry" />
        </mxCell>
        <mxCell id="qm-dL68TJm12xnXsdDqb-90" value="T算法" style="shape=umlLifeline;perimeter=lifelinePerimeter;whiteSpace=wrap;html=1;container=1;collapsible=0;recursiveResize=0;outlineConnect=0;comic=0;" parent="1" vertex="1">
          <mxGeometry x="420" y="1968.5" width="100" height="300" as="geometry" />
        </mxCell>
        <mxCell id="qm-dL68TJm12xnXsdDqb-91" value="" style="html=1;points=[];perimeter=orthogonalPerimeter;comic=0;" parent="qm-dL68TJm12xnXsdDqb-90" vertex="1">
          <mxGeometry x="45" y="210" width="10" height="60" as="geometry" />
        </mxCell>
        <mxCell id="qm-dL68TJm12xnXsdDqb-92" value="批量查询商家卡餐数据" style="html=1;verticalAlign=bottom;endArrow=block;entryX=0;entryY=0;" parent="1" target="qm-dL68TJm12xnXsdDqb-89" edge="1">
          <mxGeometry relative="1" as="geometry">
            <mxPoint x="99" y="2078.5" as="sourcePoint" />
          </mxGeometry>
        </mxCell>
        <mxCell id="qm-dL68TJm12xnXsdDqb-93" value="return" style="html=1;verticalAlign=bottom;endArrow=open;dashed=1;endSize=8;exitX=0;exitY=0.95;" parent="1" source="qm-dL68TJm12xnXsdDqb-89" edge="1">
          <mxGeometry relative="1" as="geometry">
            <mxPoint x="101" y="2126.5" as="targetPoint" />
          </mxGeometry>
        </mxCell>
        <mxCell id="qm-dL68TJm12xnXsdDqb-94" value="调用算法(带卡餐)" style="html=1;verticalAlign=bottom;endArrow=block;entryX=0;entryY=0;exitX=1.343;exitY=0.604;exitDx=0;exitDy=0;exitPerimeter=0;" parent="1" source="qm-dL68TJm12xnXsdDqb-86" target="qm-dL68TJm12xnXsdDqb-91" edge="1">
          <mxGeometry x="0.2535" y="20" relative="1" as="geometry">
            <mxPoint x="100" y="2158.5" as="sourcePoint" />
            <mxPoint as="offset" />
          </mxGeometry>
        </mxCell>
        <mxCell id="qm-dL68TJm12xnXsdDqb-95" value="return" style="html=1;verticalAlign=bottom;endArrow=open;dashed=1;endSize=8;exitX=0;exitY=0.95;" parent="1" source="qm-dL68TJm12xnXsdDqb-91" edge="1">
          <mxGeometry relative="1" as="geometry">
            <mxPoint x="95" y="2235.5" as="targetPoint" />
          </mxGeometry>
        </mxCell>
        <mxCell id="qm-dL68TJm12xnXsdDqb-96" value="商家列表T计算" style="text;html=1;align=center;verticalAlign=middle;resizable=0;points=[];autosize=1;strokeColor=none;" parent="1" vertex="1">
          <mxGeometry x="40" y="1918.5" width="90" height="20" as="geometry" />
        </mxCell>
        <mxCell id="qm-dL68TJm12xnXsdDqb-97" value="查询分段T" style="html=1;verticalAlign=bottom;endArrow=block;entryX=0;entryY=0;" parent="1" source="qm-dL68TJm12xnXsdDqb-63" target="qm-dL68TJm12xnXsdDqb-62" edge="1">
          <mxGeometry relative="1" as="geometry">
            <mxPoint x="-101.25" y="4117" as="sourcePoint" />
          </mxGeometry>
        </mxCell>
        <mxCell id="qm-dL68TJm12xnXsdDqb-98" value="return" style="html=1;verticalAlign=bottom;endArrow=open;dashed=1;endSize=8;exitX=0;exitY=0.95;entryX=1.129;entryY=0.684;entryDx=0;entryDy=0;entryPerimeter=0;" parent="1" source="qm-dL68TJm12xnXsdDqb-62" target="qm-dL68TJm12xnXsdDqb-125" edge="1">
          <mxGeometry relative="1" as="geometry">
            <mxPoint x="49.25" y="4153" as="targetPoint" />
          </mxGeometry>
        </mxCell>
        <mxCell id="qm-dL68TJm12xnXsdDqb-99" value="物流协同" style="shape=umlLifeline;perimeter=lifelinePerimeter;whiteSpace=wrap;html=1;container=1;collapsible=0;recursiveResize=0;outlineConnect=0;comic=0;" parent="1" vertex="1">
          <mxGeometry x="-535" y="3187" width="100" height="1250" as="geometry" />
        </mxCell>
        <mxCell id="qm-dL68TJm12xnXsdDqb-100" value="" style="html=1;points=[];perimeter=orthogonalPerimeter;comic=0;" parent="qm-dL68TJm12xnXsdDqb-99" vertex="1">
          <mxGeometry x="45" y="90" width="10" height="50" as="geometry" />
        </mxCell>
        <mxCell id="qm-dL68TJm12xnXsdDqb-101" value="询用户T" style="html=1;verticalAlign=bottom;endArrow=block;entryX=0;entryY=0;" parent="qm-dL68TJm12xnXsdDqb-99" target="qm-dL68TJm12xnXsdDqb-100" edge="1">
          <mxGeometry relative="1" as="geometry">
            <mxPoint x="-120" y="90" as="sourcePoint" />
          </mxGeometry>
        </mxCell>
        <mxCell id="qm-dL68TJm12xnXsdDqb-102" value="分流" style="shape=umlLifeline;perimeter=lifelinePerimeter;whiteSpace=wrap;html=1;container=1;collapsible=0;recursiveResize=0;outlineConnect=0;comic=0;" parent="1" vertex="1">
          <mxGeometry x="-148" y="3190" width="100" height="1250" as="geometry" />
        </mxCell>
        <mxCell id="qm-dL68TJm12xnXsdDqb-103" value="apollo" style="shape=umlLifeline;perimeter=lifelinePerimeter;whiteSpace=wrap;html=1;container=1;collapsible=0;recursiveResize=0;outlineConnect=0;comic=0;" parent="1" vertex="1">
          <mxGeometry x="-360" y="3188.5" width="100" height="1247" as="geometry" />
        </mxCell>
        <mxCell id="qm-dL68TJm12xnXsdDqb-104" value="" style="html=1;points=[];perimeter=orthogonalPerimeter;comic=0;" parent="qm-dL68TJm12xnXsdDqb-103" vertex="1">
          <mxGeometry x="43" y="417" width="10" height="100" as="geometry" />
        </mxCell>
        <mxCell id="qm-dL68TJm12xnXsdDqb-105" value="生成运单" style="html=1;verticalAlign=bottom;startArrow=oval;endArrow=block;startSize=8;" parent="qm-dL68TJm12xnXsdDqb-103" target="qm-dL68TJm12xnXsdDqb-104" edge="1">
          <mxGeometry relative="1" as="geometry">
            <mxPoint x="-25" y="424.5" as="sourcePoint" />
          </mxGeometry>
        </mxCell>
        <mxCell id="qm-dL68TJm12xnXsdDqb-106" value="" style="html=1;points=[];perimeter=orthogonalPerimeter;comic=0;" parent="qm-dL68TJm12xnXsdDqb-103" vertex="1">
          <mxGeometry x="45" y="737" width="10" height="80" as="geometry" />
        </mxCell>
        <mxCell id="qm-dL68TJm12xnXsdDqb-107" value="确认运力" style="html=1;verticalAlign=bottom;startArrow=oval;endArrow=block;startSize=8;" parent="qm-dL68TJm12xnXsdDqb-103" target="qm-dL68TJm12xnXsdDqb-106" edge="1">
          <mxGeometry relative="1" as="geometry">
            <mxPoint x="-15" y="737" as="sourcePoint" />
          </mxGeometry>
        </mxCell>
        <mxCell id="qm-dL68TJm12xnXsdDqb-108" value="return" style="html=1;verticalAlign=bottom;endArrow=open;dashed=1;endSize=8;exitX=0;exitY=0.95;" parent="1" source="qm-dL68TJm12xnXsdDqb-100" edge="1">
          <mxGeometry relative="1" as="geometry">
            <mxPoint x="-662" y="3326" as="targetPoint" />
          </mxGeometry>
        </mxCell>
        <mxCell id="qm-dL68TJm12xnXsdDqb-109" value="询用户T" style="html=1;verticalAlign=bottom;endArrow=block;" parent="1" edge="1">
          <mxGeometry relative="1" as="geometry">
            <mxPoint x="-475" y="3287" as="sourcePoint" />
            <mxPoint x="115" y="3287" as="targetPoint" />
          </mxGeometry>
        </mxCell>
        <mxCell id="qm-dL68TJm12xnXsdDqb-110" value="return" style="html=1;verticalAlign=bottom;endArrow=open;dashed=1;endSize=8;" parent="1" source="qm-dL68TJm12xnXsdDqb-55" edge="1">
          <mxGeometry relative="1" as="geometry">
            <mxPoint x="-485" y="3317" as="targetPoint" />
            <mxPoint x="-227.5" y="3317" as="sourcePoint" />
          </mxGeometry>
        </mxCell>
        <mxCell id="qm-dL68TJm12xnXsdDqb-111" value="" style="html=1;points=[];perimeter=orthogonalPerimeter;comic=0;" parent="1" vertex="1">
          <mxGeometry x="-105" y="3787" width="10" height="90" as="geometry" />
        </mxCell>
        <mxCell id="qm-dL68TJm12xnXsdDqb-112" value="并行呼单" style="html=1;verticalAlign=bottom;startArrow=oval;endArrow=block;startSize=8;" parent="1" target="qm-dL68TJm12xnXsdDqb-111" edge="1">
          <mxGeometry relative="1" as="geometry">
            <mxPoint x="-175" y="3797" as="sourcePoint" />
            <Array as="points" />
          </mxGeometry>
        </mxCell>
        <mxCell id="qm-dL68TJm12xnXsdDqb-113" value="" style="html=1;points=[];perimeter=orthogonalPerimeter;comic=0;" parent="1" vertex="1">
          <mxGeometry x="340.25" y="3637" width="10" height="20" as="geometry" />
        </mxCell>
        <mxCell id="qm-dL68TJm12xnXsdDqb-114" value="调用算法" style="html=1;verticalAlign=bottom;endArrow=block;entryX=0;entryY=0;" parent="1" target="qm-dL68TJm12xnXsdDqb-113" edge="1">
          <mxGeometry relative="1" as="geometry">
            <mxPoint x="129.25" y="3637" as="sourcePoint" />
          </mxGeometry>
        </mxCell>
        <mxCell id="qm-dL68TJm12xnXsdDqb-115" value="return" style="html=1;verticalAlign=bottom;endArrow=open;dashed=1;endSize=8;" parent="1" target="qm-dL68TJm12xnXsdDqb-55" edge="1">
          <mxGeometry relative="1" as="geometry">
            <mxPoint x="133.75" y="3651.5" as="targetPoint" />
            <mxPoint x="345.75" y="3651.5" as="sourcePoint" />
          </mxGeometry>
        </mxCell>
        <mxCell id="qm-dL68TJm12xnXsdDqb-116" value="" style="html=1;points=[];perimeter=orthogonalPerimeter;comic=0;" parent="1" vertex="1">
          <mxGeometry x="341.93" y="3817" width="10" height="20" as="geometry" />
        </mxCell>
        <mxCell id="qm-dL68TJm12xnXsdDqb-117" value="调用算法" style="html=1;verticalAlign=bottom;endArrow=block;entryX=0;entryY=0;" parent="1" target="qm-dL68TJm12xnXsdDqb-116" edge="1">
          <mxGeometry relative="1" as="geometry">
            <mxPoint x="130.9300000000003" y="3817" as="sourcePoint" />
          </mxGeometry>
        </mxCell>
        <mxCell id="qm-dL68TJm12xnXsdDqb-118" value="return" style="html=1;verticalAlign=bottom;endArrow=open;dashed=1;endSize=8;" parent="1" edge="1">
          <mxGeometry relative="1" as="geometry">
            <mxPoint x="125.00142857142782" y="3831.5" as="targetPoint" />
            <mxPoint x="347.4300000000003" y="3831.5" as="sourcePoint" />
          </mxGeometry>
        </mxCell>
        <mxCell id="qm-dL68TJm12xnXsdDqb-119" value="" style="html=1;points=[];perimeter=orthogonalPerimeter;comic=0;" parent="1" vertex="1">
          <mxGeometry x="341.93" y="3957" width="10" height="20" as="geometry" />
        </mxCell>
        <mxCell id="qm-dL68TJm12xnXsdDqb-120" value="调用算法" style="html=1;verticalAlign=bottom;endArrow=block;entryX=0;entryY=0;" parent="1" target="qm-dL68TJm12xnXsdDqb-119" edge="1">
          <mxGeometry relative="1" as="geometry">
            <mxPoint x="130.9300000000003" y="3957" as="sourcePoint" />
          </mxGeometry>
        </mxCell>
        <mxCell id="qm-dL68TJm12xnXsdDqb-121" value="return" style="html=1;verticalAlign=bottom;endArrow=open;dashed=1;endSize=8;" parent="1" edge="1">
          <mxGeometry relative="1" as="geometry">
            <mxPoint x="125.00142857142782" y="3971.5" as="targetPoint" />
            <mxPoint x="347.4300000000003" y="3971.5" as="sourcePoint" />
          </mxGeometry>
        </mxCell>
        <mxCell id="qm-dL68TJm12xnXsdDqb-122" value="" style="html=1;points=[];perimeter=orthogonalPerimeter;comic=0;" parent="1" vertex="1">
          <mxGeometry x="341.93" y="4127" width="10" height="20" as="geometry" />
        </mxCell>
        <mxCell id="qm-dL68TJm12xnXsdDqb-123" value="调用算法" style="html=1;verticalAlign=bottom;endArrow=block;entryX=0;entryY=0;" parent="1" target="qm-dL68TJm12xnXsdDqb-122" edge="1">
          <mxGeometry relative="1" as="geometry">
            <mxPoint x="130.9300000000003" y="4127" as="sourcePoint" />
          </mxGeometry>
        </mxCell>
        <mxCell id="qm-dL68TJm12xnXsdDqb-124" value="return" style="html=1;verticalAlign=bottom;endArrow=open;dashed=1;endSize=8;" parent="1" edge="1">
          <mxGeometry relative="1" as="geometry">
            <mxPoint x="125.00142857142782" y="4141.5" as="targetPoint" />
            <mxPoint x="347.4300000000003" y="4141.5" as="sourcePoint" />
          </mxGeometry>
        </mxCell>
        <mxCell id="qm-dL68TJm12xnXsdDqb-125" value="" style="html=1;points=[];perimeter=orthogonalPerimeter;comic=0;" parent="1" vertex="1">
          <mxGeometry x="-665.5" y="4097" width="10" height="80" as="geometry" />
        </mxCell>
        <mxCell id="qm-dL68TJm12xnXsdDqb-126" value="详情页询T" style="html=1;verticalAlign=bottom;endArrow=block;entryX=0.036;entryY=0.169;entryDx=0;entryDy=0;entryPerimeter=0;" parent="1" target="qm-dL68TJm12xnXsdDqb-125" edge="1">
          <mxGeometry width="80" relative="1" as="geometry">
            <mxPoint x="-745" y="4110.5" as="sourcePoint" />
            <mxPoint x="-675" y="4118.5" as="targetPoint" />
          </mxGeometry>
        </mxCell>
        <mxCell id="qm-dL68TJm12xnXsdDqb-127" value="return" style="html=1;verticalAlign=bottom;endArrow=open;dashed=1;endSize=8;exitX=0;exitY=0.95;" parent="1" source="qm-dL68TJm12xnXsdDqb-125" edge="1">
          <mxGeometry relative="1" as="geometry">
            <mxPoint x="-745" y="4172.5" as="targetPoint" />
          </mxGeometry>
        </mxCell>
        <mxCell id="qm-dL68TJm12xnXsdDqb-128" value="用户提单" style="whiteSpace=wrap;html=1;comic=0;" parent="1" vertex="1">
          <mxGeometry x="-947" y="3257" width="120" height="60" as="geometry" />
        </mxCell>
        <mxCell id="qm-dL68TJm12xnXsdDqb-129" value="用户下单" style="whiteSpace=wrap;html=1;comic=0;" parent="1" vertex="1">
          <mxGeometry x="-952" y="3417" width="120" height="60" as="geometry" />
        </mxCell>
        <mxCell id="qm-dL68TJm12xnXsdDqb-130" value="商户接单" style="whiteSpace=wrap;html=1;comic=0;" parent="1" vertex="1">
          <mxGeometry x="-952" y="3597" width="120" height="60" as="geometry" />
        </mxCell>
        <mxCell id="qm-dL68TJm12xnXsdDqb-131" value="骑手接单" style="whiteSpace=wrap;html=1;comic=0;" parent="1" vertex="1">
          <mxGeometry x="-952" y="3897" width="120" height="60" as="geometry" />
        </mxCell>
        <mxCell id="qm-dL68TJm12xnXsdDqb-132" value="查看详情" style="whiteSpace=wrap;html=1;comic=0;" parent="1" vertex="1">
          <mxGeometry x="-952" y="4097" width="120" height="60" as="geometry" />
        </mxCell>
        <mxCell id="qm-dL68TJm12xnXsdDqb-203" value="修改地址" style="whiteSpace=wrap;html=1;" parent="1" vertex="1">
          <mxGeometry x="-955" y="4227" width="120" height="60" as="geometry" />
        </mxCell>
        <mxCell id="qm-dL68TJm12xnXsdDqb-204" value="异常报备" style="whiteSpace=wrap;html=1;" parent="1" vertex="1">
          <mxGeometry x="-955" y="4327" width="120" height="60" as="geometry" />
        </mxCell>
        <mxCell id="qm-dL68TJm12xnXsdDqb-205" value="交易 -&amp;gt; 商家履约 -&amp;gt; apollo(同步调用)" style="text;html=1;align=center;verticalAlign=middle;resizable=0;points=[];autosize=1;strokeColor=none;" parent="1" vertex="1">
          <mxGeometry x="-410" y="3557" width="320" height="40" as="geometry" />
        </mxCell>
        <mxCell id="qm-dL68TJm12xnXsdDqb-207" value="apollo -&amp;gt; 分流" style="text;html=1;align=center;verticalAlign=middle;resizable=0;points=[];autosize=1;strokeColor=none;" parent="1" vertex="1">
          <mxGeometry x="-180" y="3757" width="90" height="20" as="geometry" />
        </mxCell>
        <mxCell id="qm-dL68TJm12xnXsdDqb-208" value="专送：带骑手信息询T" style="text;html=1;align=center;verticalAlign=middle;resizable=0;points=[];autosize=1;strokeColor=none;" parent="1" vertex="1">
          <mxGeometry x="-375" y="3877" width="130" height="20" as="geometry" />
        </mxCell>
        <mxCell id="qm-dL68TJm12xnXsdDqb-210" value="交易-&amp;gt;T" style="text;html=1;align=center;verticalAlign=middle;resizable=0;points=[];autosize=1;strokeColor=none;" parent="1" vertex="1">
          <mxGeometry x="-832" y="4247" width="60" height="20" as="geometry" />
        </mxCell>
        <mxCell id="qm-dL68TJm12xnXsdDqb-211" value="骑手端 -&amp;gt; T" style="text;html=1;align=center;verticalAlign=middle;resizable=0;points=[];autosize=1;strokeColor=none;" parent="1" vertex="1">
          <mxGeometry x="-835" y="4347" width="80" height="20" as="geometry" />
        </mxCell>
        <mxCell id="qm-dL68TJm12xnXsdDqb-212" value="商户出餐" style="whiteSpace=wrap;html=1;" parent="1" vertex="1">
          <mxGeometry x="-952" y="3737" width="120" height="60" as="geometry" />
        </mxCell>
        <mxCell id="qm-dL68TJm12xnXsdDqb-213" value="出餐后再执行并行呼单" style="text;html=1;align=center;verticalAlign=middle;resizable=0;points=[];autosize=1;strokeColor=none;" parent="1" vertex="1">
          <mxGeometry x="-798.12" y="3737.75" width="140" height="20" as="geometry" />
        </mxCell>
        <mxCell id="qm-dL68TJm12xnXsdDqb-215" value="" style="shape=flexArrow;endArrow=classic;html=1;" parent="1" edge="1">
          <mxGeometry width="50" height="50" relative="1" as="geometry">
            <mxPoint x="-815" y="3777" as="sourcePoint" />
            <mxPoint x="-195" y="3777" as="targetPoint" />
          </mxGeometry>
        </mxCell>
        <mxCell id="E5TletpsyKjZHeqUfo8F-1" value="并行呼单" style="text;html=1;align=center;verticalAlign=middle;resizable=0;points=[];autosize=1;strokeColor=none;fillColor=none;" parent="1" vertex="1">
          <mxGeometry x="3015" y="1950" width="80" height="20" as="geometry" />
        </mxCell>
        <mxCell id="E5TletpsyKjZHeqUfo8F-2" value="逆向单逻辑&lt;br&gt;直接返回" style="whiteSpace=wrap;html=1;hachureGap=4;pointerEvents=0;" parent="1" vertex="1">
          <mxGeometry x="3015" y="2000" width="240" height="80" as="geometry" />
        </mxCell>
        <mxCell id="E5TletpsyKjZHeqUfo8F-3" value="buildContext" style="whiteSpace=wrap;html=1;hachureGap=4;pointerEvents=0;" parent="1" vertex="1">
          <mxGeometry x="3015" y="2110" width="240" height="80" as="geometry" />
        </mxCell>
        <mxCell id="E5TletpsyKjZHeqUfo8F-4" value="preSetContext&lt;br&gt;设置预定单标识，&lt;br&gt;设置context运单创建时间" style="whiteSpace=wrap;html=1;hachureGap=4;pointerEvents=0;" parent="1" vertex="1">
          <mxGeometry x="3015" y="2220" width="240" height="80" as="geometry" />
        </mxCell>
        <mxCell id="E5TletpsyKjZHeqUfo8F-5" value="doPredict" style="whiteSpace=wrap;html=1;hachureGap=4;pointerEvents=0;" parent="1" vertex="1">
          <mxGeometry x="3015" y="2340" width="240" height="80" as="geometry" />
        </mxCell>
        <mxCell id="E5TletpsyKjZHeqUfo8F-6" value="即时单处理&lt;br&gt;兜底T逻辑" style="whiteSpace=wrap;html=1;hachureGap=4;pointerEvents=0;" parent="1" vertex="1">
          <mxGeometry x="3015" y="2440" width="240" height="90" as="geometry" />
        </mxCell>
        <mxCell id="E5TletpsyKjZHeqUfo8F-7" value="&lt;br&gt;即时单处理isUseShippingDeliveryTime&lt;br&gt;" style="whiteSpace=wrap;html=1;hachureGap=4;pointerEvents=0;" parent="1" vertex="1">
          <mxGeometry x="3010" y="2562" width="245" height="84" as="geometry" />
        </mxCell>
        <mxCell id="E5TletpsyKjZHeqUfo8F-8" value="未变更运力&lt;br&gt;判断是否使用运单上原来的骑手T&lt;br&gt;前一次骑手T大于当前骑手T，则使用之前的&lt;br&gt;当前时间与订单生成时间没有超时10min，则使用之前的&amp;nbsp;" style="text;html=1;strokeColor=none;fillColor=none;align=center;verticalAlign=middle;whiteSpace=wrap;hachureGap=4;pointerEvents=0;" parent="1" vertex="1">
          <mxGeometry x="3254.5" y="2554" width="380.5" height="96" as="geometry" />
        </mxCell>
        <mxCell id="E5TletpsyKjZHeqUfo8F-10" value="预定单处理isTriggerBookedOrderCatchAllT" style="whiteSpace=wrap;html=1;hachureGap=4;pointerEvents=0;" parent="1" vertex="1">
          <mxGeometry x="3015" y="2710" width="240" height="90" as="geometry" />
        </mxCell>
        <mxCell id="E5TletpsyKjZHeqUfo8F-13" value="预定单当前时间+兜底T &amp;gt; 最晚送达时间&lt;br&gt;则将最晚送达时间设置成前两者相加" style="text;html=1;align=center;verticalAlign=middle;resizable=0;points=[];autosize=1;strokeColor=none;fillColor=none;" parent="1" vertex="1">
          <mxGeometry x="3265" y="2740" width="280" height="30" as="geometry" />
        </mxCell>
        <mxCell id="E5TletpsyKjZHeqUfo8F-15" value="即时单处理" style="whiteSpace=wrap;html=1;hachureGap=4;pointerEvents=0;" parent="1" vertex="1">
          <mxGeometry x="3015" y="2870" width="240" height="80" as="geometry" />
        </mxCell>
        <mxCell id="E5TletpsyKjZHeqUfo8F-16" value="" style="shape=flexArrow;endArrow=classic;html=1;startSize=14;endSize=14;sourcePerimeterSpacing=8;targetPerimeterSpacing=8;width=17.647058823529413;" parent="1" edge="1">
          <mxGeometry width="50" height="50" relative="1" as="geometry">
            <mxPoint x="3273.5" y="2909.6399999999994" as="sourcePoint" />
            <mxPoint x="3383.5" y="2909.41" as="targetPoint" />
          </mxGeometry>
        </mxCell>
        <mxCell id="E5TletpsyKjZHeqUfo8F-20" value="" style="edgeStyle=none;curved=1;orthogonalLoop=1;jettySize=auto;html=1;endArrow=open;startSize=14;endSize=14;sourcePerimeterSpacing=8;targetPerimeterSpacing=8;" parent="1" source="E5TletpsyKjZHeqUfo8F-18" target="E5TletpsyKjZHeqUfo8F-19" edge="1">
          <mxGeometry relative="1" as="geometry" />
        </mxCell>
        <mxCell id="E5TletpsyKjZHeqUfo8F-22" value="" style="edgeStyle=none;curved=1;orthogonalLoop=1;jettySize=auto;html=1;endArrow=open;startSize=14;endSize=14;sourcePerimeterSpacing=8;targetPerimeterSpacing=8;" parent="1" source="E5TletpsyKjZHeqUfo8F-18" target="E5TletpsyKjZHeqUfo8F-21" edge="1">
          <mxGeometry relative="1" as="geometry" />
        </mxCell>
        <mxCell id="E5TletpsyKjZHeqUfo8F-18" value="&lt;span&gt;众包 &amp;amp;&amp;amp;&amp;nbsp; 专人直送？&lt;/span&gt;" style="rhombus;whiteSpace=wrap;html=1;hachureGap=4;pointerEvents=0;" parent="1" vertex="1">
          <mxGeometry x="3455" y="2830" width="163" height="74" as="geometry" />
        </mxCell>
        <mxCell id="E5TletpsyKjZHeqUfo8F-19" value="查TRecord" style="whiteSpace=wrap;html=1;hachureGap=4;" parent="1" vertex="1">
          <mxGeometry x="3370.88" y="2950" width="120" height="60" as="geometry" />
        </mxCell>
        <mxCell id="E5TletpsyKjZHeqUfo8F-21" value="取上面计算的T&lt;br&gt;构建accpetRecord" style="whiteSpace=wrap;html=1;hachureGap=4;" parent="1" vertex="1">
          <mxGeometry x="3570.88" y="2954" width="131.25" height="60" as="geometry" />
        </mxCell>
        <mxCell id="E5TletpsyKjZHeqUfo8F-23" value="是" style="text;html=1;align=center;verticalAlign=middle;resizable=0;points=[];autosize=1;strokeColor=none;fillColor=none;" parent="1" vertex="1">
          <mxGeometry x="3410" y="2894" width="30" height="20" as="geometry" />
        </mxCell>
        <mxCell id="E5TletpsyKjZHeqUfo8F-24" value="否" style="text;html=1;align=center;verticalAlign=middle;resizable=0;points=[];autosize=1;strokeColor=none;fillColor=none;" parent="1" vertex="1">
          <mxGeometry x="3612.5" y="2894" width="30" height="20" as="geometry" />
        </mxCell>
        <mxCell id="E5TletpsyKjZHeqUfo8F-25" value="出餐后呼单补T" style="whiteSpace=wrap;html=1;hachureGap=4;pointerEvents=0;" parent="1" vertex="1">
          <mxGeometry x="3370.88" y="3040" width="120" height="60" as="geometry" />
        </mxCell>
        <mxCell id="E5TletpsyKjZHeqUfo8F-26" value="&lt;span&gt;非（众包 &amp;amp;&amp;amp;&amp;nbsp; 专人直送）&lt;br&gt;记录Tcase&lt;br&gt;&lt;/span&gt;" style="whiteSpace=wrap;html=1;hachureGap=4;pointerEvents=0;" parent="1" vertex="1">
          <mxGeometry x="3015" y="3020" width="240" height="80" as="geometry" />
        </mxCell>
        <mxCell id="E5TletpsyKjZHeqUfo8F-27" value="build apollo&amp;nbsp; param&lt;br&gt;专人直送/非专人直送" style="whiteSpace=wrap;html=1;hachureGap=4;pointerEvents=0;" parent="1" vertex="1">
          <mxGeometry x="3015" y="3160" width="240" height="80" as="geometry" />
        </mxCell>
        <mxCell id="E5TletpsyKjZHeqUfo8F-28" value="即时单处理&lt;br&gt;保存接单记录" style="whiteSpace=wrap;html=1;hachureGap=4;pointerEvents=0;" parent="1" vertex="1">
          <mxGeometry x="3015" y="3290" width="240" height="70" as="geometry" />
        </mxCell>
        <mxCell id="E5TletpsyKjZHeqUfo8F-29" value="预定单处理&lt;br&gt;如果是众包&lt;br&gt;更新调度T" style="whiteSpace=wrap;html=1;hachureGap=4;pointerEvents=0;" parent="1" vertex="1">
          <mxGeometry x="3017.5" y="3410" width="237.5" height="70" as="geometry" />
        </mxCell>
        <mxCell id="E5TletpsyKjZHeqUfo8F-30" value="并行呼单" style="text;html=1;align=center;verticalAlign=middle;resizable=0;points=[];autosize=1;strokeColor=none;fillColor=none;" parent="1" vertex="1">
          <mxGeometry x="4019" y="1955" width="80" height="20" as="geometry" />
        </mxCell>
        <mxCell id="E5TletpsyKjZHeqUfo8F-31" value="逆向单逻辑&lt;br&gt;直接返回" style="whiteSpace=wrap;html=1;hachureGap=4;pointerEvents=0;" parent="1" vertex="1">
          <mxGeometry x="4019" y="2005" width="240" height="80" as="geometry" />
        </mxCell>
        <mxCell id="E5TletpsyKjZHeqUfo8F-32" value="buildContext" style="whiteSpace=wrap;html=1;hachureGap=4;pointerEvents=0;" parent="1" vertex="1">
          <mxGeometry x="4019" y="2115" width="240" height="80" as="geometry" />
        </mxCell>
        <mxCell id="E5TletpsyKjZHeqUfo8F-33" value="preSetContext&lt;br&gt;设置预定单标识，&lt;br&gt;设置context运单创建时间" style="whiteSpace=wrap;html=1;hachureGap=4;pointerEvents=0;" parent="1" vertex="1">
          <mxGeometry x="4019" y="2225" width="240" height="80" as="geometry" />
        </mxCell>
        <mxCell id="E5TletpsyKjZHeqUfo8F-34" value="doPredict" style="whiteSpace=wrap;html=1;hachureGap=4;pointerEvents=0;" parent="1" vertex="1">
          <mxGeometry x="4019" y="2345" width="240" height="80" as="geometry" />
        </mxCell>
        <mxCell id="E5TletpsyKjZHeqUfo8F-35" value="即时单处理&lt;br&gt;兜底T逻辑" style="whiteSpace=wrap;html=1;hachureGap=4;pointerEvents=0;" parent="1" vertex="1">
          <mxGeometry x="4019" y="2445" width="240" height="90" as="geometry" />
        </mxCell>
        <mxCell id="E5TletpsyKjZHeqUfo8F-36" value="&lt;br&gt;即时单处理isUseShippingDeliveryTime&lt;br&gt;" style="whiteSpace=wrap;html=1;hachureGap=4;pointerEvents=0;" parent="1" vertex="1">
          <mxGeometry x="4014" y="2567" width="245" height="84" as="geometry" />
        </mxCell>
        <mxCell id="E5TletpsyKjZHeqUfo8F-38" value="预定单处理isTriggerBookedOrderCatchAllT" style="whiteSpace=wrap;html=1;hachureGap=4;pointerEvents=0;" parent="1" vertex="1">
          <mxGeometry x="4019" y="2715" width="240" height="90" as="geometry" />
        </mxCell>
        <mxCell id="kSpTlPhXk6LOheyk7qJw-5" value="" style="edgeStyle=orthogonalEdgeStyle;rounded=0;orthogonalLoop=1;jettySize=auto;html=1;" parent="1" source="kSpTlPhXk6LOheyk7qJw-2" target="kSpTlPhXk6LOheyk7qJw-3" edge="1">
          <mxGeometry relative="1" as="geometry" />
        </mxCell>
        <mxCell id="kSpTlPhXk6LOheyk7qJw-17" value="" style="edgeStyle=orthogonalEdgeStyle;rounded=0;orthogonalLoop=1;jettySize=auto;html=1;" parent="1" source="kSpTlPhXk6LOheyk7qJw-2" target="kSpTlPhXk6LOheyk7qJw-3" edge="1">
          <mxGeometry relative="1" as="geometry" />
        </mxCell>
        <mxCell id="kSpTlPhXk6LOheyk7qJw-2" value="构建并行呼单记录" style="rounded=1;whiteSpace=wrap;html=1;" parent="1" vertex="1">
          <mxGeometry x="2390" y="4250" width="210" height="80" as="geometry" />
        </mxCell>
        <mxCell id="kSpTlPhXk6LOheyk7qJw-7" value="" style="edgeStyle=orthogonalEdgeStyle;rounded=0;orthogonalLoop=1;jettySize=auto;html=1;" parent="1" source="kSpTlPhXk6LOheyk7qJw-3" target="kSpTlPhXk6LOheyk7qJw-6" edge="1">
          <mxGeometry relative="1" as="geometry" />
        </mxCell>
        <mxCell id="kSpTlPhXk6LOheyk7qJw-3" value="构建apollo更新参数" style="rounded=1;whiteSpace=wrap;html=1;" parent="1" vertex="1">
          <mxGeometry x="2390" y="4390" width="210" height="80" as="geometry" />
        </mxCell>
        <mxCell id="kSpTlPhXk6LOheyk7qJw-9" value="" style="edgeStyle=orthogonalEdgeStyle;rounded=0;orthogonalLoop=1;jettySize=auto;html=1;" parent="1" source="kSpTlPhXk6LOheyk7qJw-6" target="kSpTlPhXk6LOheyk7qJw-8" edge="1">
          <mxGeometry relative="1" as="geometry" />
        </mxCell>
        <mxCell id="kSpTlPhXk6LOheyk7qJw-6" value="&lt;meta charset=&quot;utf-8&quot;&gt;&lt;span style=&quot;color: rgb(0, 0, 0); font-family: helvetica; font-size: 12px; font-style: normal; font-weight: 400; letter-spacing: normal; text-align: center; text-indent: 0px; text-transform: none; word-spacing: 0px; background-color: rgb(248, 249, 250); display: inline; float: none;&quot;&gt;插入并行呼单记录&lt;/span&gt;" style="rounded=1;whiteSpace=wrap;html=1;" parent="1" vertex="1">
          <mxGeometry x="2390" y="4530" width="210" height="80" as="geometry" />
        </mxCell>
        <mxCell id="kSpTlPhXk6LOheyk7qJw-66" value="" style="edgeStyle=orthogonalEdgeStyle;rounded=0;orthogonalLoop=1;jettySize=auto;html=1;" parent="1" source="kSpTlPhXk6LOheyk7qJw-8" target="kSpTlPhXk6LOheyk7qJw-65" edge="1">
          <mxGeometry relative="1" as="geometry" />
        </mxCell>
        <mxCell id="kSpTlPhXk6LOheyk7qJw-8" value="更新apollo呼单记录" style="rounded=1;whiteSpace=wrap;html=1;" parent="1" vertex="1">
          <mxGeometry x="2390" y="4680" width="210" height="80" as="geometry" />
        </mxCell>
        <mxCell id="kSpTlPhXk6LOheyk7qJw-11" value="并行呼单核心逻辑" style="text;html=1;strokeColor=none;fillColor=none;align=center;verticalAlign=middle;whiteSpace=wrap;rounded=0;" parent="1" vertex="1">
          <mxGeometry x="2407.5" y="4180" width="175" height="60" as="geometry" />
        </mxCell>
        <mxCell id="kSpTlPhXk6LOheyk7qJw-14" value="构建新并行呼单记录" style="text;html=1;strokeColor=none;fillColor=none;align=center;verticalAlign=middle;whiteSpace=wrap;rounded=0;" parent="1" vertex="1">
          <mxGeometry x="3915" y="4180" width="202.5" height="60" as="geometry" />
        </mxCell>
        <mxCell id="kSpTlPhXk6LOheyk7qJw-16" value="构建并行呼单记录" style="text;html=1;strokeColor=none;fillColor=none;align=center;verticalAlign=middle;whiteSpace=wrap;rounded=0;" parent="1" vertex="1">
          <mxGeometry x="4047.5" y="5240" width="175" height="60" as="geometry" />
        </mxCell>
        <mxCell id="kSpTlPhXk6LOheyk7qJw-19" value="开始" style="rounded=1;whiteSpace=wrap;html=1;" parent="1" vertex="1">
          <mxGeometry x="3900" y="4250" width="210" height="80" as="geometry" />
        </mxCell>
        <mxCell id="kSpTlPhXk6LOheyk7qJw-20" value="查询T记录" style="rounded=1;whiteSpace=wrap;html=1;" parent="1" vertex="1">
          <mxGeometry x="3630" y="4420" width="210" height="80" as="geometry" />
        </mxCell>
        <mxCell id="kSpTlPhXk6LOheyk7qJw-31" value="" style="edgeStyle=orthogonalEdgeStyle;rounded=0;orthogonalLoop=1;jettySize=auto;html=1;" parent="1" source="kSpTlPhXk6LOheyk7qJw-22" target="kSpTlPhXk6LOheyk7qJw-23" edge="1">
          <mxGeometry relative="1" as="geometry" />
        </mxCell>
        <mxCell id="kSpTlPhXk6LOheyk7qJw-22" value="查询T记录" style="rounded=1;whiteSpace=wrap;html=1;" parent="1" vertex="1">
          <mxGeometry x="3900" y="4422" width="210" height="80" as="geometry" />
        </mxCell>
        <mxCell id="kSpTlPhXk6LOheyk7qJw-40" value="" style="edgeStyle=orthogonalEdgeStyle;rounded=0;orthogonalLoop=1;jettySize=auto;html=1;" parent="1" source="kSpTlPhXk6LOheyk7qJw-23" target="kSpTlPhXk6LOheyk7qJw-39" edge="1">
          <mxGeometry relative="1" as="geometry" />
        </mxCell>
        <mxCell id="kSpTlPhXk6LOheyk7qJw-23" value="补T" style="rounded=1;whiteSpace=wrap;html=1;" parent="1" vertex="1">
          <mxGeometry x="3900" y="4540" width="210" height="80" as="geometry" />
        </mxCell>
        <mxCell id="kSpTlPhXk6LOheyk7qJw-25" value="" style="endArrow=classic;html=1;rounded=0;entryX=0.561;entryY=-0.002;entryDx=0;entryDy=0;entryPerimeter=0;" parent="1" source="kSpTlPhXk6LOheyk7qJw-19" target="kSpTlPhXk6LOheyk7qJw-20" edge="1">
          <mxGeometry width="50" height="50" relative="1" as="geometry">
            <mxPoint x="3850" y="4410" as="sourcePoint" />
            <mxPoint x="3900" y="4360" as="targetPoint" />
          </mxGeometry>
        </mxCell>
        <mxCell id="kSpTlPhXk6LOheyk7qJw-28" value="逆向单 || (运力未变更 &amp;amp;&amp;amp; 非出餐后单&lt;br&gt;&amp;amp;&amp;amp; 10 min内 )" style="text;html=1;strokeColor=none;fillColor=none;align=center;verticalAlign=middle;whiteSpace=wrap;rounded=0;" parent="1" vertex="1">
          <mxGeometry x="3590" y="4350" width="280" height="30" as="geometry" />
        </mxCell>
        <mxCell id="kSpTlPhXk6LOheyk7qJw-32" value="新询T" style="rounded=1;whiteSpace=wrap;html=1;" parent="1" vertex="1">
          <mxGeometry x="4190" y="4420" width="210" height="80" as="geometry" />
        </mxCell>
        <mxCell id="kSpTlPhXk6LOheyk7qJw-33" value="" style="endArrow=classic;html=1;rounded=0;entryX=0.568;entryY=-0.041;entryDx=0;entryDy=0;entryPerimeter=0;" parent="1" source="kSpTlPhXk6LOheyk7qJw-19" target="kSpTlPhXk6LOheyk7qJw-32" edge="1">
          <mxGeometry width="50" height="50" relative="1" as="geometry">
            <mxPoint x="4410.001308411216" y="4300" as="sourcePoint" />
            <mxPoint x="4580.130000000001" y="4388.4" as="targetPoint" />
          </mxGeometry>
        </mxCell>
        <mxCell id="kSpTlPhXk6LOheyk7qJw-35" value="" style="endArrow=classic;html=1;rounded=0;exitX=0.5;exitY=1;exitDx=0;exitDy=0;" parent="1" source="kSpTlPhXk6LOheyk7qJw-19" target="kSpTlPhXk6LOheyk7qJw-22" edge="1">
          <mxGeometry width="50" height="50" relative="1" as="geometry">
            <mxPoint x="4010" y="4360" as="sourcePoint" />
            <mxPoint x="4060" y="4360" as="targetPoint" />
          </mxGeometry>
        </mxCell>
        <mxCell id="kSpTlPhXk6LOheyk7qJw-37" value="zrzs &amp;amp;&amp;amp; zb" style="text;html=1;strokeColor=none;fillColor=none;align=center;verticalAlign=middle;whiteSpace=wrap;rounded=0;" parent="1" vertex="1">
          <mxGeometry x="4020" y="4350" width="90" height="30" as="geometry" />
        </mxCell>
        <mxCell id="kSpTlPhXk6LOheyk7qJw-38" value="其他" style="text;html=1;strokeColor=none;fillColor=none;align=center;verticalAlign=middle;whiteSpace=wrap;rounded=0;" parent="1" vertex="1">
          <mxGeometry x="4230" y="4350" width="60" height="30" as="geometry" />
        </mxCell>
        <mxCell id="kSpTlPhXk6LOheyk7qJw-39" value="构建并行呼单记录" style="rounded=1;whiteSpace=wrap;html=1;" parent="1" vertex="1">
          <mxGeometry x="3900" y="4720" width="210" height="80" as="geometry" />
        </mxCell>
        <mxCell id="kSpTlPhXk6LOheyk7qJw-41" value="" style="endArrow=classic;html=1;rounded=0;exitX=0.5;exitY=1;exitDx=0;exitDy=0;entryX=0.5;entryY=0;entryDx=0;entryDy=0;" parent="1" source="kSpTlPhXk6LOheyk7qJw-20" target="kSpTlPhXk6LOheyk7qJw-39" edge="1">
          <mxGeometry width="50" height="50" relative="1" as="geometry">
            <mxPoint x="3750" y="4790" as="sourcePoint" />
            <mxPoint x="3800" y="4690" as="targetPoint" />
          </mxGeometry>
        </mxCell>
        <mxCell id="kSpTlPhXk6LOheyk7qJw-42" value="" style="endArrow=classic;html=1;rounded=0;" parent="1" source="kSpTlPhXk6LOheyk7qJw-32" target="kSpTlPhXk6LOheyk7qJw-39" edge="1">
          <mxGeometry width="50" height="50" relative="1" as="geometry">
            <mxPoint x="4250" y="4620" as="sourcePoint" />
            <mxPoint x="4080" y="4680" as="targetPoint" />
          </mxGeometry>
        </mxCell>
        <mxCell id="kSpTlPhXk6LOheyk7qJw-43" value="&lt;span&gt;即时单新询T&lt;/span&gt;" style="text;html=1;align=center;verticalAlign=middle;resizable=0;points=[];autosize=1;strokeColor=none;fillColor=none;" parent="1" vertex="1">
          <mxGeometry x="4755" y="4180" width="100" height="20" as="geometry" />
        </mxCell>
        <mxCell id="kSpTlPhXk6LOheyk7qJw-49" value="" style="edgeStyle=orthogonalEdgeStyle;rounded=0;orthogonalLoop=1;jettySize=auto;html=1;" parent="1" source="kSpTlPhXk6LOheyk7qJw-44" target="kSpTlPhXk6LOheyk7qJw-45" edge="1">
          <mxGeometry relative="1" as="geometry" />
        </mxCell>
        <mxCell id="kSpTlPhXk6LOheyk7qJw-44" value="构建询T参数" style="rounded=1;whiteSpace=wrap;html=1;" parent="1" vertex="1">
          <mxGeometry x="4700" y="4236.5" width="210" height="80" as="geometry" />
        </mxCell>
        <mxCell id="kSpTlPhXk6LOheyk7qJw-50" value="" style="edgeStyle=orthogonalEdgeStyle;rounded=0;orthogonalLoop=1;jettySize=auto;html=1;" parent="1" source="kSpTlPhXk6LOheyk7qJw-45" target="kSpTlPhXk6LOheyk7qJw-46" edge="1">
          <mxGeometry relative="1" as="geometry" />
        </mxCell>
        <mxCell id="kSpTlPhXk6LOheyk7qJw-45" value="preSetContext" style="rounded=1;whiteSpace=wrap;html=1;" parent="1" vertex="1">
          <mxGeometry x="4700" y="4375.5" width="210" height="80" as="geometry" />
        </mxCell>
        <mxCell id="kSpTlPhXk6LOheyk7qJw-51" value="" style="edgeStyle=orthogonalEdgeStyle;rounded=0;orthogonalLoop=1;jettySize=auto;html=1;" parent="1" source="kSpTlPhXk6LOheyk7qJw-46" target="kSpTlPhXk6LOheyk7qJw-47" edge="1">
          <mxGeometry relative="1" as="geometry" />
        </mxCell>
        <mxCell id="kSpTlPhXk6LOheyk7qJw-46" value="doPredict" style="rounded=1;whiteSpace=wrap;html=1;" parent="1" vertex="1">
          <mxGeometry x="4700" y="4510" width="210" height="80" as="geometry" />
        </mxCell>
        <mxCell id="kSpTlPhXk6LOheyk7qJw-52" value="" style="edgeStyle=orthogonalEdgeStyle;rounded=0;orthogonalLoop=1;jettySize=auto;html=1;" parent="1" source="kSpTlPhXk6LOheyk7qJw-47" target="kSpTlPhXk6LOheyk7qJw-48" edge="1">
          <mxGeometry relative="1" as="geometry" />
        </mxCell>
        <mxCell id="kSpTlPhXk6LOheyk7qJw-47" value="zbCatchAllT" style="rounded=1;whiteSpace=wrap;html=1;" parent="1" vertex="1">
          <mxGeometry x="4700" y="4640" width="210" height="80" as="geometry" />
        </mxCell>
        <mxCell id="kSpTlPhXk6LOheyk7qJw-159" value="" style="edgeStyle=orthogonalEdgeStyle;rounded=0;orthogonalLoop=1;jettySize=auto;html=1;" parent="1" source="kSpTlPhXk6LOheyk7qJw-48" target="kSpTlPhXk6LOheyk7qJw-158" edge="1">
          <mxGeometry relative="1" as="geometry" />
        </mxCell>
        <mxCell id="kSpTlPhXk6LOheyk7qJw-48" value="新骑手T兜底逻辑" style="rounded=1;whiteSpace=wrap;html=1;" parent="1" vertex="1">
          <mxGeometry x="4700" y="4768.5" width="210" height="80" as="geometry" />
        </mxCell>
        <mxCell id="kSpTlPhXk6LOheyk7qJw-58" value="" style="edgeStyle=orthogonalEdgeStyle;rounded=0;orthogonalLoop=1;jettySize=auto;html=1;" parent="1" source="kSpTlPhXk6LOheyk7qJw-59" target="kSpTlPhXk6LOheyk7qJw-61" edge="1">
          <mxGeometry relative="1" as="geometry" />
        </mxCell>
        <mxCell id="kSpTlPhXk6LOheyk7qJw-59" value="构建询T参数" style="rounded=1;whiteSpace=wrap;html=1;" parent="1" vertex="1">
          <mxGeometry x="4030" y="5310" width="210" height="80" as="geometry" />
        </mxCell>
        <mxCell id="kSpTlPhXk6LOheyk7qJw-60" value="" style="edgeStyle=orthogonalEdgeStyle;rounded=0;orthogonalLoop=1;jettySize=auto;html=1;" parent="1" source="kSpTlPhXk6LOheyk7qJw-61" target="kSpTlPhXk6LOheyk7qJw-62" edge="1">
          <mxGeometry relative="1" as="geometry" />
        </mxCell>
        <mxCell id="kSpTlPhXk6LOheyk7qJw-61" value="preSetContext" style="rounded=1;whiteSpace=wrap;html=1;" parent="1" vertex="1">
          <mxGeometry x="4030" y="5449" width="210" height="80" as="geometry" />
        </mxCell>
        <mxCell id="kSpTlPhXk6LOheyk7qJw-64" value="" style="edgeStyle=orthogonalEdgeStyle;rounded=0;orthogonalLoop=1;jettySize=auto;html=1;" parent="1" source="kSpTlPhXk6LOheyk7qJw-62" target="kSpTlPhXk6LOheyk7qJw-63" edge="1">
          <mxGeometry relative="1" as="geometry" />
        </mxCell>
        <mxCell id="kSpTlPhXk6LOheyk7qJw-62" value="doPredict" style="rounded=1;whiteSpace=wrap;html=1;" parent="1" vertex="1">
          <mxGeometry x="4030" y="5583.5" width="210" height="80" as="geometry" />
        </mxCell>
        <mxCell id="kSpTlPhXk6LOheyk7qJw-157" value="" style="edgeStyle=orthogonalEdgeStyle;rounded=0;orthogonalLoop=1;jettySize=auto;html=1;" parent="1" source="kSpTlPhXk6LOheyk7qJw-63" target="kSpTlPhXk6LOheyk7qJw-156" edge="1">
          <mxGeometry relative="1" as="geometry" />
        </mxCell>
        <mxCell id="kSpTlPhXk6LOheyk7qJw-63" value="&lt;p class=&quot;p1&quot; style=&quot;margin: 0px ; font-stretch: normal ; font-size: 13px ; line-height: normal ; font-family: &amp;#34;pingfang sc&amp;#34;&quot;&gt;预定单兜底规则&lt;/p&gt;" style="rounded=1;whiteSpace=wrap;html=1;" parent="1" vertex="1">
          <mxGeometry x="4030" y="5730" width="210" height="80" as="geometry" />
        </mxCell>
        <mxCell id="kSpTlPhXk6LOheyk7qJw-65" value="更新TCase" style="rounded=1;whiteSpace=wrap;html=1;" parent="1" vertex="1">
          <mxGeometry x="2390" y="4811.5" width="210" height="80" as="geometry" />
        </mxCell>
        <mxCell id="kSpTlPhXk6LOheyk7qJw-69" value="三大四小逻辑" style="text;html=1;strokeColor=none;fillColor=none;align=center;verticalAlign=middle;whiteSpace=wrap;rounded=0;" parent="1" vertex="1">
          <mxGeometry x="3015" y="4170" width="175" height="60" as="geometry" />
        </mxCell>
        <mxCell id="kSpTlPhXk6LOheyk7qJw-77" value="" style="edgeStyle=orthogonalEdgeStyle;rounded=0;orthogonalLoop=1;jettySize=auto;html=1;" parent="1" source="kSpTlPhXk6LOheyk7qJw-71" target="kSpTlPhXk6LOheyk7qJw-72" edge="1">
          <mxGeometry relative="1" as="geometry" />
        </mxCell>
        <mxCell id="kSpTlPhXk6LOheyk7qJw-71" value="开始" style="rounded=1;whiteSpace=wrap;html=1;" parent="1" vertex="1">
          <mxGeometry x="3010" y="4237" width="210" height="80" as="geometry" />
        </mxCell>
        <mxCell id="kSpTlPhXk6LOheyk7qJw-105" style="edgeStyle=orthogonalEdgeStyle;rounded=0;orthogonalLoop=1;jettySize=auto;html=1;entryX=0.448;entryY=0;entryDx=0;entryDy=0;entryPerimeter=0;" parent="1" source="kSpTlPhXk6LOheyk7qJw-72" target="kSpTlPhXk6LOheyk7qJw-75" edge="1">
          <mxGeometry relative="1" as="geometry">
            <Array as="points">
              <mxPoint x="2964" y="4401" />
            </Array>
          </mxGeometry>
        </mxCell>
        <mxCell id="kSpTlPhXk6LOheyk7qJw-106" style="edgeStyle=orthogonalEdgeStyle;rounded=0;orthogonalLoop=1;jettySize=auto;html=1;" parent="1" source="kSpTlPhXk6LOheyk7qJw-72" target="kSpTlPhXk6LOheyk7qJw-74" edge="1">
          <mxGeometry relative="1" as="geometry">
            <Array as="points">
              <mxPoint x="3270" y="4401" />
            </Array>
          </mxGeometry>
        </mxCell>
        <mxCell id="kSpTlPhXk6LOheyk7qJw-72" value="ZB &amp;amp;&amp;amp; 存在并行呼单记录？" style="rhombus;whiteSpace=wrap;html=1;" parent="1" vertex="1">
          <mxGeometry x="2993.75" y="4360" width="242.5" height="81.5" as="geometry" />
        </mxCell>
        <mxCell id="kSpTlPhXk6LOheyk7qJw-111" style="edgeStyle=orthogonalEdgeStyle;rounded=0;orthogonalLoop=1;jettySize=auto;html=1;entryX=1;entryY=0.5;entryDx=0;entryDy=0;" parent="1" source="kSpTlPhXk6LOheyk7qJw-74" target="kSpTlPhXk6LOheyk7qJw-98" edge="1">
          <mxGeometry relative="1" as="geometry" />
        </mxCell>
        <mxCell id="kSpTlPhXk6LOheyk7qJw-74" value="构建新并行呼单记录" style="rounded=1;whiteSpace=wrap;html=1;" parent="1" vertex="1">
          <mxGeometry x="3160" y="4520" width="210" height="80" as="geometry" />
        </mxCell>
        <mxCell id="kSpTlPhXk6LOheyk7qJw-109" value="" style="edgeStyle=orthogonalEdgeStyle;rounded=0;orthogonalLoop=1;jettySize=auto;html=1;" parent="1" source="kSpTlPhXk6LOheyk7qJw-75" target="kSpTlPhXk6LOheyk7qJw-98" edge="1">
          <mxGeometry relative="1" as="geometry">
            <Array as="points">
              <mxPoint x="2975" y="4700" />
            </Array>
          </mxGeometry>
        </mxCell>
        <mxCell id="kSpTlPhXk6LOheyk7qJw-75" value="根据并行呼单记录&lt;br&gt;构建新呼单记录" style="rounded=1;whiteSpace=wrap;html=1;" parent="1" vertex="1">
          <mxGeometry x="2870" y="4520" width="210" height="80" as="geometry" />
        </mxCell>
        <mxCell id="kSpTlPhXk6LOheyk7qJw-84" value="是" style="text;html=1;strokeColor=none;fillColor=none;align=center;verticalAlign=middle;whiteSpace=wrap;rounded=0;" parent="1" vertex="1">
          <mxGeometry x="2970" y="4430" width="60" height="30" as="geometry" />
        </mxCell>
        <mxCell id="kSpTlPhXk6LOheyk7qJw-89" value="否" style="text;html=1;strokeColor=none;fillColor=none;align=center;verticalAlign=middle;whiteSpace=wrap;rounded=0;" parent="1" vertex="1">
          <mxGeometry x="3200" y="4430" width="60" height="30" as="geometry" />
        </mxCell>
        <mxCell id="kSpTlPhXk6LOheyk7qJw-97" value="" style="shape=flexArrow;endArrow=classic;html=1;rounded=0;width=24;endSize=7.34;" parent="1" edge="1">
          <mxGeometry width="50" height="50" relative="1" as="geometry">
            <mxPoint x="4450" y="4460" as="sourcePoint" />
            <mxPoint x="4630" y="4461" as="targetPoint" />
          </mxGeometry>
        </mxCell>
        <mxCell id="kSpTlPhXk6LOheyk7qJw-98" value="结束" style="rounded=1;whiteSpace=wrap;html=1;" parent="1" vertex="1">
          <mxGeometry x="3010" y="4670" width="210" height="80" as="geometry" />
        </mxCell>
        <mxCell id="kSpTlPhXk6LOheyk7qJw-102" value="" style="shape=flexArrow;endArrow=classic;html=1;rounded=0;width=24;endSize=7.34;" parent="1" edge="1">
          <mxGeometry width="50" height="50" relative="1" as="geometry">
            <mxPoint x="3400" y="4550" as="sourcePoint" />
            <mxPoint x="3580" y="4551" as="targetPoint" />
          </mxGeometry>
        </mxCell>
        <mxCell id="kSpTlPhXk6LOheyk7qJw-103" value="" style="shape=flexArrow;endArrow=classic;html=1;rounded=0;width=24;endSize=7.34;" parent="1" edge="1">
          <mxGeometry width="50" height="50" relative="1" as="geometry">
            <mxPoint x="2660" y="4290" as="sourcePoint" />
            <mxPoint x="2840" y="4291" as="targetPoint" />
          </mxGeometry>
        </mxCell>
        <mxCell id="kSpTlPhXk6LOheyk7qJw-104" value="即时单并行呼单逻辑" style="text;html=1;align=center;verticalAlign=middle;resizable=0;points=[];autosize=1;strokeColor=none;fillColor=none;" parent="1" vertex="1">
          <mxGeometry x="3450" y="4090" width="150" height="20" as="geometry" />
        </mxCell>
        <mxCell id="kSpTlPhXk6LOheyk7qJw-112" value="&lt;span&gt;预定单并行呼单逻辑&lt;/span&gt;" style="text;html=1;align=center;verticalAlign=middle;resizable=0;points=[];autosize=1;strokeColor=none;fillColor=none;" parent="1" vertex="1">
          <mxGeometry x="3420" y="5134" width="150" height="20" as="geometry" />
        </mxCell>
        <mxCell id="kSpTlPhXk6LOheyk7qJw-114" value="" style="edgeStyle=orthogonalEdgeStyle;rounded=0;orthogonalLoop=1;jettySize=auto;html=1;" parent="1" source="kSpTlPhXk6LOheyk7qJw-116" target="kSpTlPhXk6LOheyk7qJw-118" edge="1">
          <mxGeometry relative="1" as="geometry" />
        </mxCell>
        <mxCell id="kSpTlPhXk6LOheyk7qJw-115" value="" style="edgeStyle=orthogonalEdgeStyle;rounded=0;orthogonalLoop=1;jettySize=auto;html=1;" parent="1" source="kSpTlPhXk6LOheyk7qJw-116" target="kSpTlPhXk6LOheyk7qJw-118" edge="1">
          <mxGeometry relative="1" as="geometry" />
        </mxCell>
        <mxCell id="kSpTlPhXk6LOheyk7qJw-116" value="构建并行呼单记录" style="rounded=1;whiteSpace=wrap;html=1;" parent="1" vertex="1">
          <mxGeometry x="2730" y="5298.5" width="210" height="80" as="geometry" />
        </mxCell>
        <mxCell id="kSpTlPhXk6LOheyk7qJw-117" value="" style="edgeStyle=orthogonalEdgeStyle;rounded=0;orthogonalLoop=1;jettySize=auto;html=1;" parent="1" source="kSpTlPhXk6LOheyk7qJw-118" target="kSpTlPhXk6LOheyk7qJw-120" edge="1">
          <mxGeometry relative="1" as="geometry" />
        </mxCell>
        <mxCell id="kSpTlPhXk6LOheyk7qJw-118" value="构建apollo更新参数" style="rounded=1;whiteSpace=wrap;html=1;" parent="1" vertex="1">
          <mxGeometry x="2730" y="5438.5" width="210" height="80" as="geometry" />
        </mxCell>
        <mxCell id="kSpTlPhXk6LOheyk7qJw-119" value="" style="edgeStyle=orthogonalEdgeStyle;rounded=0;orthogonalLoop=1;jettySize=auto;html=1;" parent="1" source="kSpTlPhXk6LOheyk7qJw-120" target="kSpTlPhXk6LOheyk7qJw-122" edge="1">
          <mxGeometry relative="1" as="geometry" />
        </mxCell>
        <mxCell id="kSpTlPhXk6LOheyk7qJw-120" value="&lt;span&gt;插入并行呼单记录&lt;/span&gt;" style="rounded=1;whiteSpace=wrap;html=1;" parent="1" vertex="1">
          <mxGeometry x="2730" y="5578.5" width="210" height="80" as="geometry" />
        </mxCell>
        <mxCell id="kSpTlPhXk6LOheyk7qJw-121" value="" style="edgeStyle=orthogonalEdgeStyle;rounded=0;orthogonalLoop=1;jettySize=auto;html=1;" parent="1" source="kSpTlPhXk6LOheyk7qJw-122" target="kSpTlPhXk6LOheyk7qJw-123" edge="1">
          <mxGeometry relative="1" as="geometry" />
        </mxCell>
        <mxCell id="kSpTlPhXk6LOheyk7qJw-122" value="更新apollo呼单记录" style="rounded=1;whiteSpace=wrap;html=1;" parent="1" vertex="1">
          <mxGeometry x="2730" y="5728.5" width="210" height="80" as="geometry" />
        </mxCell>
        <mxCell id="kSpTlPhXk6LOheyk7qJw-123" value="更新调度T" style="rounded=1;whiteSpace=wrap;html=1;" parent="1" vertex="1">
          <mxGeometry x="2730" y="5860" width="210" height="80" as="geometry" />
        </mxCell>
        <mxCell id="kSpTlPhXk6LOheyk7qJw-126" value="" style="shape=flexArrow;endArrow=classic;html=1;rounded=0;width=24;endSize=7.34;" parent="1" edge="1">
          <mxGeometry width="50" height="50" relative="1" as="geometry">
            <mxPoint x="2993.75" y="5337.67" as="sourcePoint" />
            <mxPoint x="3173.75" y="5338.67" as="targetPoint" />
          </mxGeometry>
        </mxCell>
        <mxCell id="kSpTlPhXk6LOheyk7qJw-127" value="预定单核心逻辑" style="text;html=1;strokeColor=none;fillColor=none;align=center;verticalAlign=middle;whiteSpace=wrap;rounded=0;" parent="1" vertex="1">
          <mxGeometry x="2740" y="5230" width="175" height="60" as="geometry" />
        </mxCell>
        <mxCell id="kSpTlPhXk6LOheyk7qJw-141" value="三大四小逻辑" style="text;html=1;strokeColor=none;fillColor=none;align=center;verticalAlign=middle;whiteSpace=wrap;rounded=0;" parent="1" vertex="1">
          <mxGeometry x="3381.25" y="5228.5" width="175" height="60" as="geometry" />
        </mxCell>
        <mxCell id="kSpTlPhXk6LOheyk7qJw-142" value="" style="edgeStyle=orthogonalEdgeStyle;rounded=0;orthogonalLoop=1;jettySize=auto;html=1;" parent="1" source="kSpTlPhXk6LOheyk7qJw-143" target="kSpTlPhXk6LOheyk7qJw-146" edge="1">
          <mxGeometry relative="1" as="geometry" />
        </mxCell>
        <mxCell id="kSpTlPhXk6LOheyk7qJw-143" value="开始" style="rounded=1;whiteSpace=wrap;html=1;" parent="1" vertex="1">
          <mxGeometry x="3376.25" y="5295.5" width="210" height="80" as="geometry" />
        </mxCell>
        <mxCell id="kSpTlPhXk6LOheyk7qJw-144" style="edgeStyle=orthogonalEdgeStyle;rounded=0;orthogonalLoop=1;jettySize=auto;html=1;entryX=0.448;entryY=0;entryDx=0;entryDy=0;entryPerimeter=0;" parent="1" source="kSpTlPhXk6LOheyk7qJw-146" target="kSpTlPhXk6LOheyk7qJw-150" edge="1">
          <mxGeometry relative="1" as="geometry">
            <Array as="points">
              <mxPoint x="3330.25" y="5459.5" />
            </Array>
          </mxGeometry>
        </mxCell>
        <mxCell id="kSpTlPhXk6LOheyk7qJw-145" style="edgeStyle=orthogonalEdgeStyle;rounded=0;orthogonalLoop=1;jettySize=auto;html=1;" parent="1" source="kSpTlPhXk6LOheyk7qJw-146" target="kSpTlPhXk6LOheyk7qJw-148" edge="1">
          <mxGeometry relative="1" as="geometry">
            <Array as="points">
              <mxPoint x="3636.25" y="5459.5" />
            </Array>
          </mxGeometry>
        </mxCell>
        <mxCell id="kSpTlPhXk6LOheyk7qJw-146" value="ZB &amp;amp;&amp;amp; 存在并行呼单记录？" style="rhombus;whiteSpace=wrap;html=1;" parent="1" vertex="1">
          <mxGeometry x="3360" y="5418.5" width="242.5" height="81.5" as="geometry" />
        </mxCell>
        <mxCell id="kSpTlPhXk6LOheyk7qJw-147" style="edgeStyle=orthogonalEdgeStyle;rounded=0;orthogonalLoop=1;jettySize=auto;html=1;entryX=1;entryY=0.5;entryDx=0;entryDy=0;" parent="1" source="kSpTlPhXk6LOheyk7qJw-148" target="kSpTlPhXk6LOheyk7qJw-153" edge="1">
          <mxGeometry relative="1" as="geometry" />
        </mxCell>
        <mxCell id="kSpTlPhXk6LOheyk7qJw-148" value="构建新并行呼单记录" style="rounded=1;whiteSpace=wrap;html=1;" parent="1" vertex="1">
          <mxGeometry x="3526.25" y="5578.5" width="210" height="80" as="geometry" />
        </mxCell>
        <mxCell id="kSpTlPhXk6LOheyk7qJw-149" value="" style="edgeStyle=orthogonalEdgeStyle;rounded=0;orthogonalLoop=1;jettySize=auto;html=1;" parent="1" source="kSpTlPhXk6LOheyk7qJw-150" target="kSpTlPhXk6LOheyk7qJw-153" edge="1">
          <mxGeometry relative="1" as="geometry">
            <Array as="points">
              <mxPoint x="3341.25" y="5758.5" />
            </Array>
          </mxGeometry>
        </mxCell>
        <mxCell id="kSpTlPhXk6LOheyk7qJw-150" value="根据并行呼单记录&lt;br&gt;构建新呼单记录" style="rounded=1;whiteSpace=wrap;html=1;" parent="1" vertex="1">
          <mxGeometry x="3236.25" y="5578.5" width="210" height="80" as="geometry" />
        </mxCell>
        <mxCell id="kSpTlPhXk6LOheyk7qJw-151" value="是" style="text;html=1;strokeColor=none;fillColor=none;align=center;verticalAlign=middle;whiteSpace=wrap;rounded=0;" parent="1" vertex="1">
          <mxGeometry x="3336.25" y="5488.5" width="60" height="30" as="geometry" />
        </mxCell>
        <mxCell id="kSpTlPhXk6LOheyk7qJw-152" value="否" style="text;html=1;strokeColor=none;fillColor=none;align=center;verticalAlign=middle;whiteSpace=wrap;rounded=0;" parent="1" vertex="1">
          <mxGeometry x="3566.25" y="5488.5" width="60" height="30" as="geometry" />
        </mxCell>
        <mxCell id="kSpTlPhXk6LOheyk7qJw-153" value="结束" style="rounded=1;whiteSpace=wrap;html=1;" parent="1" vertex="1">
          <mxGeometry x="3376.25" y="5728.5" width="210" height="80" as="geometry" />
        </mxCell>
        <mxCell id="kSpTlPhXk6LOheyk7qJw-154" value="" style="shape=flexArrow;endArrow=classic;html=1;rounded=0;width=24;endSize=7.34;" parent="1" edge="1">
          <mxGeometry width="50" height="50" relative="1" as="geometry">
            <mxPoint x="3780.000000000001" y="5630" as="sourcePoint" />
            <mxPoint x="3960.000000000001" y="5631" as="targetPoint" />
          </mxGeometry>
        </mxCell>
        <mxCell id="kSpTlPhXk6LOheyk7qJw-156" value="&lt;p class=&quot;p1&quot; style=&quot;margin: 0px ; font-stretch: normal ; font-size: 13px ; line-height: normal ; font-family: &amp;#34;pingfang sc&amp;#34;&quot;&gt;构建新并行呼单记录&lt;/p&gt;" style="rounded=1;whiteSpace=wrap;html=1;" parent="1" vertex="1">
          <mxGeometry x="4030" y="5870" width="210" height="80" as="geometry" />
        </mxCell>
        <mxCell id="kSpTlPhXk6LOheyk7qJw-158" value="构建并行呼单记录" style="rounded=1;whiteSpace=wrap;html=1;" parent="1" vertex="1">
          <mxGeometry x="4700" y="4900" width="210" height="80" as="geometry" />
        </mxCell>
        <mxCell id="kSpTlPhXk6LOheyk7qJw-163" value="&lt;b&gt;IAcceptRecordBuildStrategy&lt;/b&gt;" style="html=1;" parent="1" vertex="1">
          <mxGeometry x="4030" y="6580" width="280" height="70" as="geometry" />
        </mxCell>
        <mxCell id="kSpTlPhXk6LOheyk7qJw-170" value="&lt;b&gt;AbstractAcceptRecordBuildStrategy&lt;/b&gt;" style="html=1;" parent="1" vertex="1">
          <mxGeometry x="4030" y="6720" width="280" height="70" as="geometry" />
        </mxCell>
        <mxCell id="kSpTlPhXk6LOheyk7qJw-175" value="&lt;b&gt;OriginTBuildStrategy&lt;/b&gt;" style="html=1;" parent="1" vertex="1">
          <mxGeometry x="3690" y="6870" width="280" height="70" as="geometry" />
        </mxCell>
        <mxCell id="kSpTlPhXk6LOheyk7qJw-176" value="&lt;b&gt;ZrZsAndZbBuildStrategy&lt;/b&gt;" style="html=1;" parent="1" vertex="1">
          <mxGeometry x="4030" y="6870" width="280" height="70" as="geometry" />
        </mxCell>
        <mxCell id="kSpTlPhXk6LOheyk7qJw-177" value="&lt;b&gt;NewPredictBuildStrategy&lt;/b&gt;" style="html=1;" parent="1" vertex="1">
          <mxGeometry x="4370" y="6870" width="280" height="70" as="geometry" />
        </mxCell>
        <mxCell id="kSpTlPhXk6LOheyk7qJw-178" value="" style="endArrow=block;dashed=1;endFill=0;endSize=12;html=1;rounded=0;" parent="1" source="kSpTlPhXk6LOheyk7qJw-170" target="kSpTlPhXk6LOheyk7qJw-163" edge="1">
          <mxGeometry width="160" relative="1" as="geometry">
            <mxPoint x="4130" y="7070" as="sourcePoint" />
            <mxPoint x="4290" y="7070" as="targetPoint" />
          </mxGeometry>
        </mxCell>
        <mxCell id="kSpTlPhXk6LOheyk7qJw-179" value="" style="endArrow=block;endSize=16;endFill=0;html=1;rounded=0;" parent="1" source="kSpTlPhXk6LOheyk7qJw-176" target="kSpTlPhXk6LOheyk7qJw-170" edge="1">
          <mxGeometry width="160" relative="1" as="geometry">
            <mxPoint x="3860" y="7080" as="sourcePoint" />
            <mxPoint x="4020" y="7080" as="targetPoint" />
          </mxGeometry>
        </mxCell>
        <mxCell id="kSpTlPhXk6LOheyk7qJw-182" value="" style="endArrow=block;endSize=16;endFill=0;html=1;rounded=0;" parent="1" source="kSpTlPhXk6LOheyk7qJw-175" target="kSpTlPhXk6LOheyk7qJw-170" edge="1">
          <mxGeometry width="160" relative="1" as="geometry">
            <mxPoint x="4190.000000000001" y="6890" as="sourcePoint" />
            <mxPoint x="4190.000000000001" y="6810" as="targetPoint" />
          </mxGeometry>
        </mxCell>
        <mxCell id="kSpTlPhXk6LOheyk7qJw-186" value="" style="endArrow=block;endSize=16;endFill=0;html=1;rounded=0;" parent="1" source="kSpTlPhXk6LOheyk7qJw-177" target="kSpTlPhXk6LOheyk7qJw-170" edge="1">
          <mxGeometry width="160" relative="1" as="geometry">
            <mxPoint x="4180.000000000001" y="6880" as="sourcePoint" />
            <mxPoint x="4180.000000000001" y="6800" as="targetPoint" />
          </mxGeometry>
        </mxCell>
        <mxCell id="kSpTlPhXk6LOheyk7qJw-192" value="IAcceptRecordBuilder" style="swimlane;fontStyle=1;childLayout=stackLayout;horizontal=1;startSize=26;fillColor=none;horizontalStack=0;resizeParent=1;resizeParentMax=0;resizeLast=0;collapsible=1;marginBottom=0;fontSize=15;" parent="1" vertex="1">
          <mxGeometry x="3331" y="6370" width="310" height="78" as="geometry" />
        </mxCell>
        <mxCell id="kSpTlPhXk6LOheyk7qJw-193" value="buildForCommonOrder()" style="text;strokeColor=none;fillColor=none;align=left;verticalAlign=top;spacingLeft=4;spacingRight=4;overflow=hidden;rotatable=0;points=[[0,0.5],[1,0.5]];portConstraint=eastwest;fontSize=15;" parent="kSpTlPhXk6LOheyk7qJw-192" vertex="1">
          <mxGeometry y="26" width="310" height="26" as="geometry" />
        </mxCell>
        <mxCell id="kSpTlPhXk6LOheyk7qJw-194" value="buildForPreOrder();" style="text;strokeColor=none;fillColor=none;align=left;verticalAlign=top;spacingLeft=4;spacingRight=4;overflow=hidden;rotatable=0;points=[[0,0.5],[1,0.5]];portConstraint=eastwest;fontSize=15;" parent="kSpTlPhXk6LOheyk7qJw-192" vertex="1">
          <mxGeometry y="52" width="310" height="26" as="geometry" />
        </mxCell>
        <mxCell id="kSpTlPhXk6LOheyk7qJw-197" value="&lt;b&gt;SupportCarrierTypeSplitBuilderDecorator&lt;/b&gt;" style="html=1;" parent="1" vertex="1">
          <mxGeometry x="2940" y="6710" width="320" height="70" as="geometry" />
        </mxCell>
        <mxCell id="kSpTlPhXk6LOheyk7qJw-200" value="" style="endArrow=block;dashed=1;endFill=0;endSize=12;html=1;rounded=0;fontSize=15;entryX=0.501;entryY=1.181;entryDx=0;entryDy=0;entryPerimeter=0;exitX=0.572;exitY=-0.055;exitDx=0;exitDy=0;exitPerimeter=0;" parent="1" source="kSpTlPhXk6LOheyk7qJw-227" target="kSpTlPhXk6LOheyk7qJw-194" edge="1">
          <mxGeometry width="160" relative="1" as="geometry">
            <mxPoint x="3253" y="6510" as="sourcePoint" />
            <mxPoint x="3480" y="6500" as="targetPoint" />
          </mxGeometry>
        </mxCell>
        <mxCell id="kSpTlPhXk6LOheyk7qJw-201" value="" style="endArrow=block;endSize=16;endFill=0;html=1;rounded=0;fontSize=15;" parent="1" source="kSpTlPhXk6LOheyk7qJw-197" target="kSpTlPhXk6LOheyk7qJw-228" edge="1">
          <mxGeometry width="160" relative="1" as="geometry">
            <mxPoint x="1982.5" y="6873.5" as="sourcePoint" />
            <mxPoint x="3078.379310344828" y="6640" as="targetPoint" />
          </mxGeometry>
        </mxCell>
        <mxCell id="kSpTlPhXk6LOheyk7qJw-203" value="&lt;span style=&quot;font-size: 15px&quot;&gt;&lt;b&gt;GenericAcceptRecordBuilder&lt;/b&gt;&lt;/span&gt;" style="html=1;" parent="1" vertex="1">
          <mxGeometry x="3331" y="6570" width="310" height="70" as="geometry" />
        </mxCell>
        <mxCell id="kSpTlPhXk6LOheyk7qJw-204" value="" style="endArrow=block;dashed=1;endFill=0;endSize=12;html=1;rounded=0;fontSize=15;exitX=0.5;exitY=0;exitDx=0;exitDy=0;" parent="1" source="kSpTlPhXk6LOheyk7qJw-203" target="kSpTlPhXk6LOheyk7qJw-194" edge="1">
          <mxGeometry width="160" relative="1" as="geometry">
            <mxPoint x="3420" y="6930" as="sourcePoint" />
            <mxPoint x="3580" y="6930" as="targetPoint" />
          </mxGeometry>
        </mxCell>
        <mxCell id="kSpTlPhXk6LOheyk7qJw-226" value="&lt;span style=&quot;font-size: 15px&quot;&gt;&lt;b&gt;IPredictForDispatchService&lt;/b&gt;&lt;/span&gt;" style="html=1;" parent="1" vertex="1">
          <mxGeometry x="2560" y="6374" width="310" height="70" as="geometry" />
        </mxCell>
        <mxCell id="kSpTlPhXk6LOheyk7qJw-227" value="AbstractBuilderDecorator" style="swimlane;fontStyle=1;childLayout=stackLayout;horizontal=1;startSize=26;fillColor=none;horizontalStack=0;resizeParent=1;resizeParentMax=0;resizeLast=0;collapsible=1;marginBottom=0;fontSize=15;" parent="1" vertex="1">
          <mxGeometry x="2940" y="6570" width="320" height="70" as="geometry" />
        </mxCell>
        <mxCell id="kSpTlPhXk6LOheyk7qJw-228" value=" realBuilder: IAcceptRecordBuilder" style="text;strokeColor=none;fillColor=none;align=left;verticalAlign=top;spacingLeft=4;spacingRight=4;overflow=hidden;rotatable=0;points=[[0,0.5],[1,0.5]];portConstraint=eastwest;fontSize=15;" parent="kSpTlPhXk6LOheyk7qJw-227" vertex="1">
          <mxGeometry y="26" width="320" height="44" as="geometry" />
        </mxCell>
        <mxCell id="kSpTlPhXk6LOheyk7qJw-237" value="" style="endArrow=open;html=1;endSize=12;startArrow=diamondThin;startSize=14;startFill=0;edgeStyle=orthogonalEdgeStyle;rounded=0;fontSize=15;entryX=0;entryY=0.5;entryDx=0;entryDy=0;" parent="1" target="kSpTlPhXk6LOheyk7qJw-193" edge="1">
          <mxGeometry relative="1" as="geometry">
            <mxPoint x="2870" y="6410" as="sourcePoint" />
            <mxPoint x="3237.45" y="6319.998823529413" as="targetPoint" />
            <Array as="points" />
          </mxGeometry>
        </mxCell>
        <mxCell id="6CgunpHf8Ncdcgwdq1P5-1" value="" style="endArrow=open;html=1;endSize=12;startArrow=diamondThin;startSize=14;startFill=0;edgeStyle=orthogonalEdgeStyle;rounded=0;exitX=0.5;exitY=0;exitDx=0;exitDy=0;" parent="1" source="kSpTlPhXk6LOheyk7qJw-227" edge="1">
          <mxGeometry relative="1" as="geometry">
            <mxPoint x="3062" y="6485" as="sourcePoint" />
            <mxPoint x="3330" y="6410" as="targetPoint" />
            <Array as="points">
              <mxPoint x="3100" y="6410" />
            </Array>
          </mxGeometry>
        </mxCell>
        <mxCell id="6CgunpHf8Ncdcgwdq1P5-5" value="" style="endArrow=open;endSize=12;dashed=1;html=1;rounded=0;exitX=0.998;exitY=0.626;exitDx=0;exitDy=0;exitPerimeter=0;" parent="1" source="kSpTlPhXk6LOheyk7qJw-203" target="kSpTlPhXk6LOheyk7qJw-163" edge="1">
          <mxGeometry width="160" relative="1" as="geometry">
            <mxPoint x="3700" y="6610" as="sourcePoint" />
            <mxPoint x="3860" y="6610" as="targetPoint" />
          </mxGeometry>
        </mxCell>
        <mxCell id="qDP3Hpl89R7axa0EM4YJ-15" value="" style="edgeStyle=orthogonalEdgeStyle;rounded=0;orthogonalLoop=1;jettySize=auto;html=1;" parent="1" source="qDP3Hpl89R7axa0EM4YJ-2" target="qDP3Hpl89R7axa0EM4YJ-3" edge="1">
          <mxGeometry relative="1" as="geometry" />
        </mxCell>
        <mxCell id="qDP3Hpl89R7axa0EM4YJ-2" value="构建询T参数" style="rounded=0;whiteSpace=wrap;html=1;" parent="1" vertex="1">
          <mxGeometry x="-948.44" y="5100" width="120" height="60" as="geometry" />
        </mxCell>
        <mxCell id="qDP3Hpl89R7axa0EM4YJ-16" value="" style="edgeStyle=orthogonalEdgeStyle;rounded=0;orthogonalLoop=1;jettySize=auto;html=1;" parent="1" source="qDP3Hpl89R7axa0EM4YJ-3" target="qDP3Hpl89R7axa0EM4YJ-4" edge="1">
          <mxGeometry relative="1" as="geometry" />
        </mxCell>
        <mxCell id="qDP3Hpl89R7axa0EM4YJ-3" value="Caculator" style="rounded=0;whiteSpace=wrap;html=1;fillColor=#dae8fc;strokeColor=#6c8ebf;" parent="1" vertex="1">
          <mxGeometry x="-948.44" y="5220" width="120" height="60" as="geometry" />
        </mxCell>
        <mxCell id="qDP3Hpl89R7axa0EM4YJ-17" value="" style="edgeStyle=orthogonalEdgeStyle;rounded=0;orthogonalLoop=1;jettySize=auto;html=1;" parent="1" source="qDP3Hpl89R7axa0EM4YJ-4" target="qDP3Hpl89R7axa0EM4YJ-5" edge="1">
          <mxGeometry relative="1" as="geometry" />
        </mxCell>
        <mxCell id="qDP3Hpl89R7axa0EM4YJ-4" value="other set" style="rounded=0;whiteSpace=wrap;html=1;" parent="1" vertex="1">
          <mxGeometry x="-948.44" y="5340" width="120" height="60" as="geometry" />
        </mxCell>
        <mxCell id="qDP3Hpl89R7axa0EM4YJ-18" value="" style="edgeStyle=orthogonalEdgeStyle;rounded=0;orthogonalLoop=1;jettySize=auto;html=1;" parent="1" source="qDP3Hpl89R7axa0EM4YJ-5" target="qDP3Hpl89R7axa0EM4YJ-9" edge="1">
          <mxGeometry relative="1" as="geometry" />
        </mxCell>
        <mxCell id="qDP3Hpl89R7axa0EM4YJ-5" value="Regulate" style="rounded=0;whiteSpace=wrap;html=1;fillColor=#f8cecc;strokeColor=#b85450;" parent="1" vertex="1">
          <mxGeometry x="-948.44" y="5450" width="120" height="60" as="geometry" />
        </mxCell>
        <mxCell id="qDP3Hpl89R7axa0EM4YJ-6" value="after 末端校准" style="whiteSpace=wrap;html=1;fillColor=#f8cecc;strokeColor=#b85450;" parent="1" vertex="1">
          <mxGeometry x="-948.44" y="5670" width="120" height="60" as="geometry" />
        </mxCell>
        <mxCell id="qDP3Hpl89R7axa0EM4YJ-7" value="新增固定T Caculator" style="rounded=0;whiteSpace=wrap;html=1;fillColor=#f8cecc;strokeColor=#b85450;" parent="1" vertex="1">
          <mxGeometry x="-593.44" y="5220" width="120" height="60" as="geometry" />
        </mxCell>
        <mxCell id="qDP3Hpl89R7axa0EM4YJ-8" value="修改商户自设 Caculator" style="whiteSpace=wrap;html=1;fillColor=#f8cecc;strokeColor=#b85450;" parent="1" vertex="1">
          <mxGeometry x="-774.44" y="5220" width="120" height="60" as="geometry" />
        </mxCell>
        <mxCell id="qDP3Hpl89R7axa0EM4YJ-19" value="" style="edgeStyle=orthogonalEdgeStyle;rounded=0;orthogonalLoop=1;jettySize=auto;html=1;" parent="1" source="qDP3Hpl89R7axa0EM4YJ-9" target="qDP3Hpl89R7axa0EM4YJ-6" edge="1">
          <mxGeometry relative="1" as="geometry" />
        </mxCell>
        <mxCell id="qDP3Hpl89R7axa0EM4YJ-9" value="末端校准" style="whiteSpace=wrap;html=1;fillColor=#f8cecc;strokeColor=#b85450;" parent="1" vertex="1">
          <mxGeometry x="-948.44" y="5560" width="120" height="60" as="geometry" />
        </mxCell>
        <mxCell id="qDP3Hpl89R7axa0EM4YJ-10" value="调用规则服务&lt;br&gt;选T0&lt;br&gt;拆T&lt;br&gt;&amp;nbsp;运营规则&lt;br&gt;上下限&lt;br&gt;对齐&lt;br&gt;实时" style="whiteSpace=wrap;html=1;fillColor=#f8cecc;strokeColor=#b85450;" parent="1" vertex="1">
          <mxGeometry x="-773.44" y="5415" width="120" height="130" as="geometry" />
        </mxCell>
        <mxCell id="qDP3Hpl89R7axa0EM4YJ-11" value="zrzs处理" style="whiteSpace=wrap;html=1;fillColor=#f8cecc;strokeColor=#b85450;" parent="1" vertex="1">
          <mxGeometry x="-445.94" y="5670" width="120" height="60" as="geometry" />
        </mxCell>
        <mxCell id="qDP3Hpl89R7axa0EM4YJ-12" value="出参后呼单处理" style="whiteSpace=wrap;html=1;fillColor=#f8cecc;strokeColor=#b85450;" parent="1" vertex="1">
          <mxGeometry x="-774.44" y="5670" width="120" height="60" as="geometry" />
        </mxCell>
        <mxCell id="qDP3Hpl89R7axa0EM4YJ-13" value="时间片处理" style="whiteSpace=wrap;html=1;fillColor=#f8cecc;strokeColor=#b85450;" parent="1" vertex="1">
          <mxGeometry x="-287.19" y="5670" width="120" height="60" as="geometry" />
        </mxCell>
        <mxCell id="qDP3Hpl89R7axa0EM4YJ-24" value="" style="edgeStyle=orthogonalEdgeStyle;rounded=0;orthogonalLoop=1;jettySize=auto;html=1;" parent="1" source="qDP3Hpl89R7axa0EM4YJ-20" target="qDP3Hpl89R7axa0EM4YJ-21" edge="1">
          <mxGeometry relative="1" as="geometry" />
        </mxCell>
        <mxCell id="qDP3Hpl89R7axa0EM4YJ-20" value="构建询T参数" style="rounded=1;whiteSpace=wrap;html=1;absoluteArcSize=1;arcSize=14;strokeWidth=2;" parent="1" vertex="1">
          <mxGeometry x="-843.06" y="5900" width="156.5" height="60" as="geometry" />
        </mxCell>
        <mxCell id="qDP3Hpl89R7axa0EM4YJ-25" value="" style="edgeStyle=orthogonalEdgeStyle;rounded=0;orthogonalLoop=1;jettySize=auto;html=1;" parent="1" source="qDP3Hpl89R7axa0EM4YJ-21" target="qDP3Hpl89R7axa0EM4YJ-22" edge="1">
          <mxGeometry relative="1" as="geometry" />
        </mxCell>
        <mxCell id="qDP3Hpl89R7axa0EM4YJ-26" value="" style="edgeStyle=orthogonalEdgeStyle;rounded=0;orthogonalLoop=1;jettySize=auto;html=1;" parent="1" source="qDP3Hpl89R7axa0EM4YJ-21" target="qDP3Hpl89R7axa0EM4YJ-23" edge="1">
          <mxGeometry relative="1" as="geometry" />
        </mxCell>
        <mxCell id="qDP3Hpl89R7axa0EM4YJ-21" value="match新固定T标签" style="strokeWidth=2;html=1;shape=mxgraph.flowchart.decision;whiteSpace=wrap;" parent="1" vertex="1">
          <mxGeometry x="-837.31" y="6020" width="145" height="100" as="geometry" />
        </mxCell>
        <mxCell id="qDP3Hpl89R7axa0EM4YJ-33" style="edgeStyle=orthogonalEdgeStyle;rounded=0;orthogonalLoop=1;jettySize=auto;html=1;entryX=1;entryY=0.5;entryDx=0;entryDy=0;" parent="1" source="qDP3Hpl89R7axa0EM4YJ-22" target="qDP3Hpl89R7axa0EM4YJ-28" edge="1">
          <mxGeometry relative="1" as="geometry">
            <Array as="points">
              <mxPoint x="-536.56" y="6320" />
            </Array>
          </mxGeometry>
        </mxCell>
        <mxCell id="qDP3Hpl89R7axa0EM4YJ-22" value="新固定T caculator" style="rounded=1;whiteSpace=wrap;html=1;absoluteArcSize=1;arcSize=14;strokeWidth=2;fillColor=#f8cecc;strokeColor=#b85450;" parent="1" vertex="1">
          <mxGeometry x="-614.81" y="6040" width="156.5" height="60" as="geometry" />
        </mxCell>
        <mxCell id="qDP3Hpl89R7axa0EM4YJ-29" value="" style="edgeStyle=orthogonalEdgeStyle;rounded=0;orthogonalLoop=1;jettySize=auto;html=1;" parent="1" source="qDP3Hpl89R7axa0EM4YJ-23" target="qDP3Hpl89R7axa0EM4YJ-28" edge="1">
          <mxGeometry relative="1" as="geometry" />
        </mxCell>
        <mxCell id="qDP3Hpl89R7axa0EM4YJ-23" value="其余 caculator" style="rounded=1;whiteSpace=wrap;html=1;absoluteArcSize=1;arcSize=14;strokeWidth=2;" parent="1" vertex="1">
          <mxGeometry x="-843.06" y="6170" width="156.5" height="60" as="geometry" />
        </mxCell>
        <mxCell id="qDP3Hpl89R7axa0EM4YJ-45" value="" style="edgeStyle=orthogonalEdgeStyle;rounded=0;orthogonalLoop=1;jettySize=auto;html=1;" parent="1" source="qDP3Hpl89R7axa0EM4YJ-28" target="qDP3Hpl89R7axa0EM4YJ-41" edge="1">
          <mxGeometry relative="1" as="geometry" />
        </mxCell>
        <mxCell id="qDP3Hpl89R7axa0EM4YJ-28" value="初始询T结果" style="rounded=1;whiteSpace=wrap;html=1;absoluteArcSize=1;arcSize=14;strokeWidth=2;" parent="1" vertex="1">
          <mxGeometry x="-843.06" y="6290" width="156.5" height="60" as="geometry" />
        </mxCell>
        <mxCell id="qDP3Hpl89R7axa0EM4YJ-31" value="是" style="text;html=1;align=center;verticalAlign=middle;resizable=0;points=[];autosize=1;strokeColor=none;fillColor=none;" parent="1" vertex="1">
          <mxGeometry x="-676.56" y="6030" width="30" height="20" as="geometry" />
        </mxCell>
        <mxCell id="qDP3Hpl89R7axa0EM4YJ-32" value="否" style="text;html=1;align=center;verticalAlign=middle;resizable=0;points=[];autosize=1;strokeColor=none;fillColor=none;" parent="1" vertex="1">
          <mxGeometry x="-814.06" y="6130" width="30" height="20" as="geometry" />
        </mxCell>
        <mxCell id="qDP3Hpl89R7axa0EM4YJ-47" value="" style="edgeStyle=orthogonalEdgeStyle;rounded=0;orthogonalLoop=1;jettySize=auto;html=1;" parent="1" source="qDP3Hpl89R7axa0EM4YJ-37" target="qDP3Hpl89R7axa0EM4YJ-38" edge="1">
          <mxGeometry relative="1" as="geometry" />
        </mxCell>
        <mxCell id="qDP3Hpl89R7axa0EM4YJ-37" value="是否过规则标识" style="strokeWidth=2;html=1;shape=mxgraph.flowchart.decision;whiteSpace=wrap;" parent="1" vertex="1">
          <mxGeometry x="-832.31" y="6520" width="135" height="100" as="geometry" />
        </mxCell>
        <mxCell id="qDP3Hpl89R7axa0EM4YJ-48" value="" style="edgeStyle=orthogonalEdgeStyle;rounded=0;orthogonalLoop=1;jettySize=auto;html=1;" parent="1" source="qDP3Hpl89R7axa0EM4YJ-38" target="qDP3Hpl89R7axa0EM4YJ-43" edge="1">
          <mxGeometry relative="1" as="geometry" />
        </mxCell>
        <mxCell id="qDP3Hpl89R7axa0EM4YJ-38" value="用户T规则调控" style="rounded=1;whiteSpace=wrap;html=1;absoluteArcSize=1;arcSize=14;strokeWidth=2;fillColor=#f8cecc;strokeColor=#b85450;" parent="1" vertex="1">
          <mxGeometry x="-843.06" y="6670" width="156.5" height="60" as="geometry" />
        </mxCell>
        <mxCell id="qDP3Hpl89R7axa0EM4YJ-46" value="" style="edgeStyle=orthogonalEdgeStyle;rounded=0;orthogonalLoop=1;jettySize=auto;html=1;" parent="1" source="qDP3Hpl89R7axa0EM4YJ-41" target="qDP3Hpl89R7axa0EM4YJ-37" edge="1">
          <mxGeometry relative="1" as="geometry" />
        </mxCell>
        <mxCell id="qDP3Hpl89R7axa0EM4YJ-41" value="参数构建" style="rounded=1;whiteSpace=wrap;html=1;absoluteArcSize=1;arcSize=14;strokeWidth=2;" parent="1" vertex="1">
          <mxGeometry x="-843.06" y="6400" width="156.5" height="60" as="geometry" />
        </mxCell>
        <mxCell id="qDP3Hpl89R7axa0EM4YJ-49" value="" style="edgeStyle=orthogonalEdgeStyle;rounded=0;orthogonalLoop=1;jettySize=auto;html=1;" parent="1" source="qDP3Hpl89R7axa0EM4YJ-43" target="qDP3Hpl89R7axa0EM4YJ-44" edge="1">
          <mxGeometry relative="1" as="geometry" />
        </mxCell>
        <mxCell id="qDP3Hpl89R7axa0EM4YJ-43" value="末端校准" style="rounded=1;whiteSpace=wrap;html=1;absoluteArcSize=1;arcSize=14;strokeWidth=2;fillColor=#f8cecc;strokeColor=#b85450;" parent="1" vertex="1">
          <mxGeometry x="-843.06" y="6790" width="156.5" height="60" as="geometry" />
        </mxCell>
        <mxCell id="qDP3Hpl89R7axa0EM4YJ-44" value="后置业务规则" style="rounded=1;whiteSpace=wrap;html=1;absoluteArcSize=1;arcSize=14;strokeWidth=2;fillColor=#f8cecc;strokeColor=#b85450;" parent="1" vertex="1">
          <mxGeometry x="-843.06" y="6910" width="156.5" height="60" as="geometry" />
        </mxCell>
        <mxCell id="qDP3Hpl89R7axa0EM4YJ-51" value="出餐后呼单、专人直送、mealOnTime、时间片" style="text;html=1;align=center;verticalAlign=middle;resizable=0;points=[];autosize=1;" parent="1" vertex="1">
          <mxGeometry x="-910.44" y="6990" width="330" height="20" as="geometry" />
        </mxCell>
        <mxCell id="qDP3Hpl89R7axa0EM4YJ-52" value="询用户T" style="text;html=1;align=center;verticalAlign=middle;resizable=0;points=[];autosize=1;strokeColor=none;fillColor=none;" parent="1" vertex="1">
          <mxGeometry x="-837.31" y="5840" width="70" height="20" as="geometry" />
        </mxCell>
        <mxCell id="qDP3Hpl89R7axa0EM4YJ-53" value="用户T规则调控" style="text;html=1;align=center;verticalAlign=middle;resizable=0;points=[];autosize=1;strokeColor=none;fillColor=none;" parent="1" vertex="1">
          <mxGeometry x="37.120000000000005" y="5663.5" width="110" height="20" as="geometry" />
        </mxCell>
        <mxCell id="qDP3Hpl89R7axa0EM4YJ-123" value="" style="edgeStyle=orthogonalEdgeStyle;rounded=0;orthogonalLoop=1;jettySize=auto;html=1;" parent="1" source="qDP3Hpl89R7axa0EM4YJ-54" target="qDP3Hpl89R7axa0EM4YJ-55" edge="1">
          <mxGeometry relative="1" as="geometry" />
        </mxCell>
        <mxCell id="qDP3Hpl89R7axa0EM4YJ-54" value="选T0规则" style="rounded=1;whiteSpace=wrap;html=1;absoluteArcSize=1;arcSize=14;strokeWidth=2;" parent="1" vertex="1">
          <mxGeometry x="29.620000000000005" y="5713.5" width="156.5" height="60" as="geometry" />
        </mxCell>
        <mxCell id="qDP3Hpl89R7axa0EM4YJ-124" value="" style="edgeStyle=orthogonalEdgeStyle;rounded=0;orthogonalLoop=1;jettySize=auto;html=1;" parent="1" source="qDP3Hpl89R7axa0EM4YJ-55" target="qDP3Hpl89R7axa0EM4YJ-56" edge="1">
          <mxGeometry relative="1" as="geometry" />
        </mxCell>
        <mxCell id="qDP3Hpl89R7axa0EM4YJ-55" value="计算骑手T规则" style="rounded=1;whiteSpace=wrap;html=1;absoluteArcSize=1;arcSize=14;strokeWidth=2;" parent="1" vertex="1">
          <mxGeometry x="29.620000000000005" y="5833.5" width="156.5" height="60" as="geometry" />
        </mxCell>
        <mxCell id="qDP3Hpl89R7axa0EM4YJ-125" value="" style="edgeStyle=orthogonalEdgeStyle;rounded=0;orthogonalLoop=1;jettySize=auto;html=1;" parent="1" source="qDP3Hpl89R7axa0EM4YJ-56" target="qDP3Hpl89R7axa0EM4YJ-57" edge="1">
          <mxGeometry relative="1" as="geometry" />
        </mxCell>
        <mxCell id="qDP3Hpl89R7axa0EM4YJ-56" value="运营规则" style="rounded=1;whiteSpace=wrap;html=1;absoluteArcSize=1;arcSize=14;strokeWidth=2;" parent="1" vertex="1">
          <mxGeometry x="29.620000000000005" y="5943.5" width="156.5" height="60" as="geometry" />
        </mxCell>
        <mxCell id="qDP3Hpl89R7axa0EM4YJ-126" value="" style="edgeStyle=orthogonalEdgeStyle;rounded=0;orthogonalLoop=1;jettySize=auto;html=1;" parent="1" source="qDP3Hpl89R7axa0EM4YJ-57" target="qDP3Hpl89R7axa0EM4YJ-58" edge="1">
          <mxGeometry relative="1" as="geometry" />
        </mxCell>
        <mxCell id="qDP3Hpl89R7axa0EM4YJ-57" value="上下限规则" style="rounded=1;whiteSpace=wrap;html=1;absoluteArcSize=1;arcSize=14;strokeWidth=2;" parent="1" vertex="1">
          <mxGeometry x="29.620000000000005" y="6063.5" width="156.5" height="60" as="geometry" />
        </mxCell>
        <mxCell id="qDP3Hpl89R7axa0EM4YJ-127" value="" style="edgeStyle=orthogonalEdgeStyle;rounded=0;orthogonalLoop=1;jettySize=auto;html=1;" parent="1" source="qDP3Hpl89R7axa0EM4YJ-58" target="qDP3Hpl89R7axa0EM4YJ-59" edge="1">
          <mxGeometry relative="1" as="geometry" />
        </mxCell>
        <mxCell id="qDP3Hpl89R7axa0EM4YJ-58" value="T对齐规则" style="rounded=1;whiteSpace=wrap;html=1;absoluteArcSize=1;arcSize=14;strokeWidth=2;" parent="1" vertex="1">
          <mxGeometry x="29.620000000000005" y="6193.5" width="156.5" height="60" as="geometry" />
        </mxCell>
        <mxCell id="qDP3Hpl89R7axa0EM4YJ-59" value="实时调控规则" style="rounded=1;whiteSpace=wrap;html=1;absoluteArcSize=1;arcSize=14;strokeWidth=2;" parent="1" vertex="1">
          <mxGeometry x="29.620000000000005" y="6313.5" width="156.5" height="60" as="geometry" />
        </mxCell>
        <mxCell id="qDP3Hpl89R7axa0EM4YJ-61" value="&lt;div class=&quot;lake-content&quot;&gt;&lt;p id=&quot;ub7798f51&quot; class=&quot;ne-p&quot; style=&quot;margin: 0 ; padding: 0 ; min-height: 24px&quot;&gt;规则表&lt;/p&gt;&lt;p id=&quot;ub7798f51&quot; class=&quot;ne-p&quot; style=&quot;margin: 0 ; padding: 0 ; min-height: 24px&quot;&gt;&lt;span class=&quot;ne-text&quot;&gt;tb_select_vector_t_rule&lt;/span&gt;&lt;/p&gt;&lt;p id=&quot;ub7798f51&quot; class=&quot;ne-p&quot; style=&quot;margin: 0 ; padding: 0 ; min-height: 24px&quot;&gt;&lt;span&gt;tb_operation_rule&lt;/span&gt;&lt;/p&gt;&lt;p id=&quot;u06692495&quot; class=&quot;ne-p&quot; style=&quot;margin: 0 ; padding: 0 ; min-height: 24px&quot;&gt;&lt;span class=&quot;ne-text&quot;&gt;tb_tmodel_real_time_rule&lt;/span&gt;&lt;/p&gt;&lt;p id=&quot;ucde5ccbb&quot; class=&quot;ne-p&quot; style=&quot;margin: 0 ; padding: 0 ; min-height: 24px&quot;&gt;&lt;span class=&quot;ne-text&quot;&gt;tb_tmodel_merchant_rule&lt;/span&gt;&lt;/p&gt;&lt;/div&gt;" style="text;html=1;align=center;verticalAlign=middle;resizable=0;points=[];autosize=1;strokeColor=none;fillColor=none;" parent="1" vertex="1">
          <mxGeometry x="360.37" y="5723.5" width="190" height="130" as="geometry" />
        </mxCell>
        <mxCell id="qDP3Hpl89R7axa0EM4YJ-70" value="固定T caculator" style="text;html=1;align=center;verticalAlign=middle;resizable=0;points=[];autosize=1;strokeColor=none;fillColor=none;" parent="1" vertex="1">
          <mxGeometry x="-1007.31" y="7380" width="120" height="20" as="geometry" />
        </mxCell>
        <mxCell id="qDP3Hpl89R7axa0EM4YJ-71" value="商户自设caculator" style="text;html=1;align=center;verticalAlign=middle;resizable=0;points=[];autosize=1;strokeColor=none;fillColor=none;" parent="1" vertex="1">
          <mxGeometry x="-300.94" y="7390" width="140" height="20" as="geometry" />
        </mxCell>
        <mxCell id="qDP3Hpl89R7axa0EM4YJ-77" value="biz" style="shape=umlLifeline;perimeter=lifelinePerimeter;whiteSpace=wrap;html=1;container=1;collapsible=0;recursiveResize=0;outlineConnect=0;" parent="1" vertex="1">
          <mxGeometry x="-1047.31" y="7450" width="100" height="300" as="geometry" />
        </mxCell>
        <mxCell id="qDP3Hpl89R7axa0EM4YJ-81" value="" style="html=1;points=[];perimeter=orthogonalPerimeter;" parent="qDP3Hpl89R7axa0EM4YJ-77" vertex="1">
          <mxGeometry x="45" y="100" width="10" height="80" as="geometry" />
        </mxCell>
        <mxCell id="qDP3Hpl89R7axa0EM4YJ-82" value="计算固定T" style="html=1;verticalAlign=bottom;endArrow=block;entryX=0;entryY=0;rounded=0;" parent="qDP3Hpl89R7axa0EM4YJ-77" target="qDP3Hpl89R7axa0EM4YJ-81" edge="1">
          <mxGeometry relative="1" as="geometry">
            <mxPoint x="-25" y="100" as="sourcePoint" />
          </mxGeometry>
        </mxCell>
        <mxCell id="qDP3Hpl89R7axa0EM4YJ-83" value="return" style="html=1;verticalAlign=bottom;endArrow=open;dashed=1;endSize=8;exitX=0;exitY=0.95;rounded=0;" parent="qDP3Hpl89R7axa0EM4YJ-77" source="qDP3Hpl89R7axa0EM4YJ-81" edge="1">
          <mxGeometry relative="1" as="geometry">
            <mxPoint x="-25" y="176" as="targetPoint" />
          </mxGeometry>
        </mxCell>
        <mxCell id="qDP3Hpl89R7axa0EM4YJ-80" value="regulate" style="shape=umlLifeline;perimeter=lifelinePerimeter;whiteSpace=wrap;html=1;container=1;collapsible=0;recursiveResize=0;outlineConnect=0;" parent="1" vertex="1">
          <mxGeometry x="-867.31" y="7450" width="100" height="300" as="geometry" />
        </mxCell>
        <mxCell id="qDP3Hpl89R7axa0EM4YJ-84" value="" style="html=1;points=[];perimeter=orthogonalPerimeter;" parent="qDP3Hpl89R7axa0EM4YJ-80" vertex="1">
          <mxGeometry x="45" y="120" width="10" height="50" as="geometry" />
        </mxCell>
        <mxCell id="qDP3Hpl89R7axa0EM4YJ-85" value="解析运营规则" style="html=1;verticalAlign=bottom;endArrow=block;entryX=0;entryY=0;rounded=0;exitX=1;exitY=0.259;exitDx=0;exitDy=0;exitPerimeter=0;" parent="1" source="qDP3Hpl89R7axa0EM4YJ-81" target="qDP3Hpl89R7axa0EM4YJ-84" edge="1">
          <mxGeometry relative="1" as="geometry">
            <mxPoint x="-897.31" y="7550" as="sourcePoint" />
          </mxGeometry>
        </mxCell>
        <mxCell id="qDP3Hpl89R7axa0EM4YJ-86" value="固定T" style="html=1;verticalAlign=bottom;endArrow=open;dashed=1;endSize=8;exitX=0;exitY=0.95;rounded=0;" parent="1" source="qDP3Hpl89R7axa0EM4YJ-84" target="qDP3Hpl89R7axa0EM4YJ-77" edge="1">
          <mxGeometry relative="1" as="geometry">
            <mxPoint x="-897.31" y="7626" as="targetPoint" />
          </mxGeometry>
        </mxCell>
        <mxCell id="qDP3Hpl89R7axa0EM4YJ-89" value="" style="edgeStyle=orthogonalEdgeStyle;rounded=0;orthogonalLoop=1;jettySize=auto;html=1;" parent="1" source="qDP3Hpl89R7axa0EM4YJ-87" target="qDP3Hpl89R7axa0EM4YJ-88" edge="1">
          <mxGeometry relative="1" as="geometry" />
        </mxCell>
        <mxCell id="qDP3Hpl89R7axa0EM4YJ-87" value="开始" style="rounded=1;whiteSpace=wrap;html=1;" parent="1" vertex="1">
          <mxGeometry x="-278.44" y="7440" width="110" height="50" as="geometry" />
        </mxCell>
        <mxCell id="qDP3Hpl89R7axa0EM4YJ-101" value="" style="edgeStyle=orthogonalEdgeStyle;rounded=0;orthogonalLoop=1;jettySize=auto;html=1;" parent="1" source="qDP3Hpl89R7axa0EM4YJ-88" target="qDP3Hpl89R7axa0EM4YJ-90" edge="1">
          <mxGeometry relative="1" as="geometry" />
        </mxCell>
        <mxCell id="qDP3Hpl89R7axa0EM4YJ-109" style="edgeStyle=orthogonalEdgeStyle;rounded=0;orthogonalLoop=1;jettySize=auto;html=1;entryX=1;entryY=0.5;entryDx=0;entryDy=0;" parent="1" source="qDP3Hpl89R7axa0EM4YJ-88" target="qDP3Hpl89R7axa0EM4YJ-105" edge="1">
          <mxGeometry relative="1" as="geometry">
            <Array as="points">
              <mxPoint x="-5.939999999999998" y="7580" />
              <mxPoint x="-5.939999999999998" y="8140" />
            </Array>
          </mxGeometry>
        </mxCell>
        <mxCell id="qDP3Hpl89R7axa0EM4YJ-88" value="自设是否有值" style="strokeWidth=2;html=1;shape=mxgraph.flowchart.decision;whiteSpace=wrap;" parent="1" vertex="1">
          <mxGeometry x="-294.94" y="7530" width="143" height="100" as="geometry" />
        </mxCell>
        <mxCell id="qDP3Hpl89R7axa0EM4YJ-103" value="" style="edgeStyle=orthogonalEdgeStyle;rounded=0;orthogonalLoop=1;jettySize=auto;html=1;" parent="1" source="qDP3Hpl89R7axa0EM4YJ-90" target="qDP3Hpl89R7axa0EM4YJ-93" edge="1">
          <mxGeometry relative="1" as="geometry" />
        </mxCell>
        <mxCell id="qDP3Hpl89R7axa0EM4YJ-90" value="调用normalCaculator" style="rounded=1;whiteSpace=wrap;html=1;" parent="1" vertex="1">
          <mxGeometry x="-283.44" y="7680" width="120" height="60" as="geometry" />
        </mxCell>
        <mxCell id="qDP3Hpl89R7axa0EM4YJ-106" style="edgeStyle=orthogonalEdgeStyle;rounded=0;orthogonalLoop=1;jettySize=auto;html=1;" parent="1" source="qDP3Hpl89R7axa0EM4YJ-91" target="qDP3Hpl89R7axa0EM4YJ-105" edge="1">
          <mxGeometry relative="1" as="geometry" />
        </mxCell>
        <mxCell id="qDP3Hpl89R7axa0EM4YJ-91" value="&lt;div class=&quot;lake-content&quot;&gt;&lt;span class=&quot;ne-text&quot;&gt;MerchantSetupRegulateHandler&lt;/span&gt;&lt;/div&gt;" style="rounded=1;whiteSpace=wrap;html=1;" parent="1" vertex="1">
          <mxGeometry x="-429.69" y="7940" width="230" height="60" as="geometry" />
        </mxCell>
        <mxCell id="qDP3Hpl89R7axa0EM4YJ-97" value="" style="edgeStyle=orthogonalEdgeStyle;rounded=0;orthogonalLoop=1;jettySize=auto;html=1;" parent="1" source="qDP3Hpl89R7axa0EM4YJ-93" target="qDP3Hpl89R7axa0EM4YJ-91" edge="1">
          <mxGeometry relative="1" as="geometry" />
        </mxCell>
        <mxCell id="qDP3Hpl89R7axa0EM4YJ-98" style="edgeStyle=orthogonalEdgeStyle;rounded=0;orthogonalLoop=1;jettySize=auto;html=1;entryX=0.393;entryY=0.006;entryDx=0;entryDy=0;entryPerimeter=0;" parent="1" source="qDP3Hpl89R7axa0EM4YJ-93" target="qDP3Hpl89R7axa0EM4YJ-94" edge="1">
          <mxGeometry relative="1" as="geometry" />
        </mxCell>
        <mxCell id="qDP3Hpl89R7axa0EM4YJ-93" value="判断标品" style="strokeWidth=2;html=1;shape=mxgraph.flowchart.decision;whiteSpace=wrap;" parent="1" vertex="1">
          <mxGeometry x="-294.94" y="7790" width="143" height="100" as="geometry" />
        </mxCell>
        <mxCell id="qDP3Hpl89R7axa0EM4YJ-107" style="edgeStyle=orthogonalEdgeStyle;rounded=0;orthogonalLoop=1;jettySize=auto;html=1;" parent="1" source="qDP3Hpl89R7axa0EM4YJ-94" target="qDP3Hpl89R7axa0EM4YJ-105" edge="1">
          <mxGeometry relative="1" as="geometry" />
        </mxCell>
        <mxCell id="qDP3Hpl89R7axa0EM4YJ-94" value="&lt;div class=&quot;lake-content&quot;&gt;&lt;span class=&quot;ne-text&quot;&gt;调用规则&lt;/span&gt;&lt;/div&gt;" style="rounded=1;whiteSpace=wrap;html=1;" parent="1" vertex="1">
          <mxGeometry x="-173.44" y="7940" width="137.5" height="60" as="geometry" />
        </mxCell>
        <mxCell id="qDP3Hpl89R7axa0EM4YJ-99" value="标品0" style="text;html=1;align=center;verticalAlign=middle;resizable=0;points=[];autosize=1;strokeColor=none;fillColor=none;" parent="1" vertex="1">
          <mxGeometry x="-334.69" y="7880" width="50" height="20" as="geometry" />
        </mxCell>
        <mxCell id="qDP3Hpl89R7axa0EM4YJ-100" value="标品47" style="text;html=1;align=center;verticalAlign=middle;resizable=0;points=[];autosize=1;strokeColor=none;fillColor=none;" parent="1" vertex="1">
          <mxGeometry x="-179.69" y="7880" width="60" height="20" as="geometry" />
        </mxCell>
        <mxCell id="qDP3Hpl89R7axa0EM4YJ-104" value="否" style="text;html=1;align=center;verticalAlign=middle;resizable=0;points=[];autosize=1;strokeColor=none;fillColor=none;" parent="1" vertex="1">
          <mxGeometry x="-265.94" y="7640" width="30" height="20" as="geometry" />
        </mxCell>
        <mxCell id="qDP3Hpl89R7axa0EM4YJ-105" value="结束" style="rounded=1;whiteSpace=wrap;html=1;" parent="1" vertex="1">
          <mxGeometry x="-271.94" y="8110" width="120" height="60" as="geometry" />
        </mxCell>
        <mxCell id="qDP3Hpl89R7axa0EM4YJ-110" value="是" style="text;html=1;align=center;verticalAlign=middle;resizable=0;points=[];autosize=1;strokeColor=none;fillColor=none;" parent="1" vertex="1">
          <mxGeometry x="-55.94" y="7610" width="30" height="20" as="geometry" />
        </mxCell>
        <mxCell id="qDP3Hpl89R7axa0EM4YJ-128" value="mealOnTime" style="whiteSpace=wrap;html=1;fillColor=#f8cecc;strokeColor=#b85450;" parent="1" vertex="1">
          <mxGeometry x="-608.44" y="5670" width="120" height="60" as="geometry" />
        </mxCell>
        <mxCell id="qDP3Hpl89R7axa0EM4YJ-131" value="实时商户T-餐饮-算法依赖" style="text;html=1;align=center;verticalAlign=middle;resizable=0;points=[];autosize=1;strokeColor=none;fillColor=none;" parent="1" vertex="1">
          <mxGeometry x="7100" y="2047" width="180" height="20" as="geometry" />
        </mxCell>
        <mxCell id="qDP3Hpl89R7axa0EM4YJ-134" value="查网格压力数据" style="rounded=1;whiteSpace=wrap;html=1;" parent="1" vertex="1">
          <mxGeometry x="6600" y="2184" width="160" height="60" as="geometry" />
        </mxCell>
        <mxCell id="qDP3Hpl89R7axa0EM4YJ-135" value="入参：网格id" style="text;html=1;align=center;verticalAlign=middle;resizable=0;points=[];autosize=1;strokeColor=none;fillColor=none;" parent="1" vertex="1">
          <mxGeometry x="6485" y="2196.5" width="100" height="20" as="geometry" />
        </mxCell>
        <mxCell id="qDP3Hpl89R7axa0EM4YJ-136" value="查网格zb统计数据" style="rounded=1;whiteSpace=wrap;html=1;" parent="1" vertex="1">
          <mxGeometry x="6600" y="2319" width="160" height="60" as="geometry" />
        </mxCell>
        <mxCell id="qDP3Hpl89R7axa0EM4YJ-138" value="查商户zb统计数据" style="rounded=1;whiteSpace=wrap;html=1;" parent="1" vertex="1">
          <mxGeometry x="6940" y="2178.5" width="160" height="60" as="geometry" />
        </mxCell>
        <mxCell id="qDP3Hpl89R7axa0EM4YJ-139" value="入参：retailerId&lt;br&gt;" style="text;html=1;align=center;verticalAlign=middle;resizable=0;points=[];autosize=1;strokeColor=none;fillColor=none;" parent="1" vertex="1">
          <mxGeometry x="6800" y="2199" width="120" height="20" as="geometry" />
        </mxCell>
        <mxCell id="qDP3Hpl89R7axa0EM4YJ-141" value="查商户未处理配送单量" style="rounded=1;whiteSpace=wrap;html=1;" parent="1" vertex="1">
          <mxGeometry x="6940" y="2316" width="160" height="60" as="geometry" />
        </mxCell>
        <mxCell id="qDP3Hpl89R7axa0EM4YJ-144" value="查商户30min配送时长" style="rounded=1;whiteSpace=wrap;html=1;" parent="1" vertex="1">
          <mxGeometry x="6940" y="2438.5" width="160" height="60" as="geometry" />
        </mxCell>
        <mxCell id="qDP3Hpl89R7axa0EM4YJ-146" value="入参：网格id" style="text;html=1;align=center;verticalAlign=middle;resizable=0;points=[];autosize=1;strokeColor=none;fillColor=none;" parent="1" vertex="1">
          <mxGeometry x="6485" y="2332" width="100" height="20" as="geometry" />
        </mxCell>
        <mxCell id="qDP3Hpl89R7axa0EM4YJ-147" value="入参：retailerId&lt;br&gt;" style="text;html=1;align=center;verticalAlign=middle;resizable=0;points=[];autosize=1;strokeColor=none;fillColor=none;" parent="1" vertex="1">
          <mxGeometry x="6800" y="2339" width="120" height="20" as="geometry" />
        </mxCell>
        <mxCell id="qDP3Hpl89R7axa0EM4YJ-148" value="入参：retailerId&lt;br&gt;" style="text;html=1;align=center;verticalAlign=middle;resizable=0;points=[];autosize=1;strokeColor=none;fillColor=none;" parent="1" vertex="1">
          <mxGeometry x="6800" y="2458.5" width="120" height="20" as="geometry" />
        </mxCell>
        <mxCell id="qDP3Hpl89R7axa0EM4YJ-150" value="查ETA数据" style="rounded=1;whiteSpace=wrap;html=1;" parent="1" vertex="1">
          <mxGeometry x="7395" y="2176" width="160" height="60" as="geometry" />
        </mxCell>
        <mxCell id="qDP3Hpl89R7axa0EM4YJ-151" value="查ETS数据" style="rounded=1;whiteSpace=wrap;html=1;" parent="1" vertex="1">
          <mxGeometry x="7395" y="2316" width="160" height="60" as="geometry" />
        </mxCell>
        <mxCell id="qDP3Hpl89R7axa0EM4YJ-152" value="入参：用户经纬度、商户经纬度" style="text;html=1;align=center;verticalAlign=middle;resizable=0;points=[];autosize=1;strokeColor=none;fillColor=none;" parent="1" vertex="1">
          <mxGeometry x="7150" y="2193.5" width="230" height="20" as="geometry" />
        </mxCell>
        <mxCell id="qDP3Hpl89R7axa0EM4YJ-153" value="入参：用户经纬度、用户地址" style="text;html=1;align=center;verticalAlign=middle;resizable=0;points=[];autosize=1;strokeColor=none;fillColor=none;" parent="1" vertex="1">
          <mxGeometry x="7160" y="2326" width="210" height="20" as="geometry" />
        </mxCell>
        <mxCell id="qDP3Hpl89R7axa0EM4YJ-154" value="商圈zb统计数据" style="rounded=1;whiteSpace=wrap;html=1;" parent="1" vertex="1">
          <mxGeometry x="7814" y="2173" width="160" height="60" as="geometry" />
        </mxCell>
        <mxCell id="qDP3Hpl89R7axa0EM4YJ-155" value="入参：merchantBusdistrictId" style="text;html=1;align=center;verticalAlign=middle;resizable=0;points=[];autosize=1;strokeColor=none;fillColor=none;" parent="1" vertex="1">
          <mxGeometry x="7599" y="2190.5" width="200" height="20" as="geometry" />
        </mxCell>
        <mxCell id="qDP3Hpl89R7axa0EM4YJ-156" value="查商户卡餐数据" style="rounded=1;whiteSpace=wrap;html=1;" parent="1" vertex="1">
          <mxGeometry x="6940" y="2568.5" width="160" height="60" as="geometry" />
        </mxCell>
        <mxCell id="qDP3Hpl89R7axa0EM4YJ-157" value="入参：retailderId" style="text;html=1;align=center;verticalAlign=middle;resizable=0;points=[];autosize=1;strokeColor=none;fillColor=none;" parent="1" vertex="1">
          <mxGeometry x="6800" y="2568.5" width="130" height="20" as="geometry" />
        </mxCell>
        <mxCell id="qDP3Hpl89R7axa0EM4YJ-158" value="查天气数据" style="rounded=1;whiteSpace=wrap;html=1;" parent="1" vertex="1">
          <mxGeometry x="6600" y="2441.5" width="160" height="60" as="geometry" />
        </mxCell>
        <mxCell id="qDP3Hpl89R7axa0EM4YJ-159" value="入参：网格Id / 商户经纬度" style="text;html=1;align=center;verticalAlign=middle;resizable=0;points=[];autosize=1;strokeColor=none;fillColor=none;" parent="1" vertex="1">
          <mxGeometry x="6401" y="2458.5" width="190" height="20" as="geometry" />
        </mxCell>
        <mxCell id="qDP3Hpl89R7axa0EM4YJ-161" value="实时商户T-新零售-算法依赖" style="text;html=1;align=center;verticalAlign=middle;resizable=0;points=[];autosize=1;strokeColor=none;fillColor=none;" parent="1" vertex="1">
          <mxGeometry x="7111" y="2797" width="200" height="20" as="geometry" />
        </mxCell>
        <mxCell id="qDP3Hpl89R7axa0EM4YJ-164" value="查网格压力数据" style="rounded=1;whiteSpace=wrap;html=1;" parent="1" vertex="1">
          <mxGeometry x="6611" y="2898.5" width="160" height="60" as="geometry" />
        </mxCell>
        <mxCell id="qDP3Hpl89R7axa0EM4YJ-165" value="入参：网格id" style="text;html=1;align=center;verticalAlign=middle;resizable=0;points=[];autosize=1;strokeColor=none;fillColor=none;" parent="1" vertex="1">
          <mxGeometry x="6496" y="2911" width="100" height="20" as="geometry" />
        </mxCell>
        <mxCell id="qDP3Hpl89R7axa0EM4YJ-166" value="查网格zb统计数据" style="rounded=1;whiteSpace=wrap;html=1;" parent="1" vertex="1">
          <mxGeometry x="6611" y="3017" width="160" height="60" as="geometry" />
        </mxCell>
        <mxCell id="qDP3Hpl89R7axa0EM4YJ-167" value="入参：网格id" style="text;html=1;align=center;verticalAlign=middle;resizable=0;points=[];autosize=1;strokeColor=none;fillColor=none;" parent="1" vertex="1">
          <mxGeometry x="6496" y="3037" width="100" height="20" as="geometry" />
        </mxCell>
        <mxCell id="qDP3Hpl89R7axa0EM4YJ-168" value="查商户未处理配送单量" style="rounded=1;whiteSpace=wrap;html=1;" parent="1" vertex="1">
          <mxGeometry x="6951" y="2897" width="160" height="60" as="geometry" />
        </mxCell>
        <mxCell id="qDP3Hpl89R7axa0EM4YJ-169" value="入参：retailerId&lt;br&gt;" style="text;html=1;align=center;verticalAlign=middle;resizable=0;points=[];autosize=1;strokeColor=none;fillColor=none;" parent="1" vertex="1">
          <mxGeometry x="6821" y="2911" width="120" height="20" as="geometry" />
        </mxCell>
        <mxCell id="qDP3Hpl89R7axa0EM4YJ-170" value="查商户30min配送时长" style="rounded=1;whiteSpace=wrap;html=1;" parent="1" vertex="1">
          <mxGeometry x="6951" y="3017" width="160" height="60" as="geometry" />
        </mxCell>
        <mxCell id="qDP3Hpl89R7axa0EM4YJ-171" value="入参：retailerId&lt;br&gt;" style="text;html=1;align=center;verticalAlign=middle;resizable=0;points=[];autosize=1;strokeColor=none;fillColor=none;" parent="1" vertex="1">
          <mxGeometry x="6821" y="3035.5" width="120" height="20" as="geometry" />
        </mxCell>
        <mxCell id="qDP3Hpl89R7axa0EM4YJ-173" value="查商户prepareTime" style="rounded=1;whiteSpace=wrap;html=1;" parent="1" vertex="1">
          <mxGeometry x="6951" y="3137" width="160" height="60" as="geometry" />
        </mxCell>
        <mxCell id="qDP3Hpl89R7axa0EM4YJ-174" value="入参：shopId" style="text;html=1;align=center;verticalAlign=middle;resizable=0;points=[];autosize=1;strokeColor=none;fillColor=none;" parent="1" vertex="1">
          <mxGeometry x="6826" y="3147" width="110" height="20" as="geometry" />
        </mxCell>
        <mxCell id="qDP3Hpl89R7axa0EM4YJ-175" value="查ETA数据" style="rounded=1;whiteSpace=wrap;html=1;" parent="1" vertex="1">
          <mxGeometry x="7429" y="2895.5" width="160" height="60" as="geometry" />
        </mxCell>
        <mxCell id="qDP3Hpl89R7axa0EM4YJ-176" value="查ETS数据" style="rounded=1;whiteSpace=wrap;html=1;" parent="1" vertex="1">
          <mxGeometry x="7428" y="3017" width="160" height="60" as="geometry" />
        </mxCell>
        <mxCell id="qDP3Hpl89R7axa0EM4YJ-177" value="入参：用户经纬度、商户经纬度" style="text;html=1;align=center;verticalAlign=middle;resizable=0;points=[];autosize=1;strokeColor=none;fillColor=none;" parent="1" vertex="1">
          <mxGeometry x="7184" y="2913" width="230" height="20" as="geometry" />
        </mxCell>
        <mxCell id="qDP3Hpl89R7axa0EM4YJ-178" value="入参：用户经纬度、用户地址" style="text;html=1;align=center;verticalAlign=middle;resizable=0;points=[];autosize=1;strokeColor=none;fillColor=none;" parent="1" vertex="1">
          <mxGeometry x="7193" y="3027" width="210" height="20" as="geometry" />
        </mxCell>
        <mxCell id="qDP3Hpl89R7axa0EM4YJ-179" value="查天气数据" style="rounded=1;whiteSpace=wrap;html=1;" parent="1" vertex="1">
          <mxGeometry x="6610" y="3147" width="160" height="60" as="geometry" />
        </mxCell>
        <mxCell id="qDP3Hpl89R7axa0EM4YJ-180" value="入参：网格 / 商户经纬度" style="text;html=1;align=center;verticalAlign=middle;resizable=0;points=[];autosize=1;strokeColor=none;fillColor=none;" parent="1" vertex="1">
          <mxGeometry x="6416" y="3165.5" width="180" height="20" as="geometry" />
        </mxCell>
        <mxCell id="qDP3Hpl89R7axa0EM4YJ-284" value="" style="edgeStyle=orthogonalEdgeStyle;rounded=0;orthogonalLoop=1;jettySize=auto;html=1;" parent="1" source="qDP3Hpl89R7axa0EM4YJ-194" target="qDP3Hpl89R7axa0EM4YJ-195" edge="1">
          <mxGeometry relative="1" as="geometry">
            <mxPoint x="6641" y="4758" as="targetPoint" />
          </mxGeometry>
        </mxCell>
        <mxCell id="qDP3Hpl89R7axa0EM4YJ-194" value="查询商户、&lt;span&gt;自设规则、新零售标识&lt;/span&gt;" style="rounded=1;whiteSpace=wrap;html=1;" parent="1" vertex="1">
          <mxGeometry x="6561" y="4765" width="159" height="55" as="geometry" />
        </mxCell>
        <mxCell id="qDP3Hpl89R7axa0EM4YJ-439" style="edgeStyle=orthogonalEdgeStyle;rounded=0;orthogonalLoop=1;jettySize=auto;html=1;" parent="1" source="qDP3Hpl89R7axa0EM4YJ-195" target="qDP3Hpl89R7axa0EM4YJ-197" edge="1">
          <mxGeometry relative="1" as="geometry" />
        </mxCell>
        <mxCell id="qDP3Hpl89R7axa0EM4YJ-444" value="" style="edgeStyle=orthogonalEdgeStyle;rounded=0;orthogonalLoop=1;jettySize=auto;html=1;" parent="1" source="qDP3Hpl89R7axa0EM4YJ-195" target="qDP3Hpl89R7axa0EM4YJ-198" edge="1">
          <mxGeometry relative="1" as="geometry" />
        </mxCell>
        <mxCell id="qDP3Hpl89R7axa0EM4YJ-445" style="edgeStyle=orthogonalEdgeStyle;rounded=0;orthogonalLoop=1;jettySize=auto;html=1;" parent="1" source="qDP3Hpl89R7axa0EM4YJ-195" target="qDP3Hpl89R7axa0EM4YJ-442" edge="1">
          <mxGeometry relative="1" as="geometry">
            <Array as="points">
              <mxPoint x="6641" y="4970" />
              <mxPoint x="6916" y="4970" />
            </Array>
          </mxGeometry>
        </mxCell>
        <mxCell id="qDP3Hpl89R7axa0EM4YJ-451" style="edgeStyle=orthogonalEdgeStyle;rounded=0;orthogonalLoop=1;jettySize=auto;html=1;entryX=0.5;entryY=0;entryDx=0;entryDy=0;" parent="1" source="qDP3Hpl89R7axa0EM4YJ-195" target="qDP3Hpl89R7axa0EM4YJ-450" edge="1">
          <mxGeometry relative="1" as="geometry">
            <Array as="points">
              <mxPoint x="6641" y="4970" />
              <mxPoint x="6340" y="4970" />
            </Array>
          </mxGeometry>
        </mxCell>
        <mxCell id="qDP3Hpl89R7axa0EM4YJ-195" value="计算链路选择" style="rounded=1;whiteSpace=wrap;html=1;" parent="1" vertex="1">
          <mxGeometry x="6561" y="4875" width="160" height="60" as="geometry" />
        </mxCell>
        <mxCell id="qDP3Hpl89R7axa0EM4YJ-453" style="edgeStyle=orthogonalEdgeStyle;rounded=0;orthogonalLoop=1;jettySize=auto;html=1;entryX=0.5;entryY=0;entryDx=0;entryDy=0;" parent="1" source="qDP3Hpl89R7axa0EM4YJ-197" target="qDP3Hpl89R7axa0EM4YJ-443" edge="1">
          <mxGeometry relative="1" as="geometry" />
        </mxCell>
        <mxCell id="qDP3Hpl89R7axa0EM4YJ-197" value="商户规则 caculator" style="rounded=1;whiteSpace=wrap;html=1;" parent="1" vertex="1">
          <mxGeometry x="6455.5" y="5000" width="160" height="60" as="geometry" />
        </mxCell>
        <mxCell id="qDP3Hpl89R7axa0EM4YJ-454" style="edgeStyle=orthogonalEdgeStyle;rounded=0;orthogonalLoop=1;jettySize=auto;html=1;entryX=0.5;entryY=0;entryDx=0;entryDy=0;" parent="1" source="qDP3Hpl89R7axa0EM4YJ-198" target="qDP3Hpl89R7axa0EM4YJ-443" edge="1">
          <mxGeometry relative="1" as="geometry" />
        </mxCell>
        <mxCell id="qDP3Hpl89R7axa0EM4YJ-198" value="餐饮商户 caculator" style="rounded=1;whiteSpace=wrap;html=1;" parent="1" vertex="1">
          <mxGeometry x="6645.5" y="5000" width="160" height="60" as="geometry" />
        </mxCell>
        <mxCell id="qDP3Hpl89R7axa0EM4YJ-250" value="" style="edgeStyle=orthogonalEdgeStyle;rounded=0;orthogonalLoop=1;jettySize=auto;html=1;" parent="1" source="qDP3Hpl89R7axa0EM4YJ-199" target="qDP3Hpl89R7axa0EM4YJ-215" edge="1">
          <mxGeometry relative="1" as="geometry" />
        </mxCell>
        <mxCell id="qDP3Hpl89R7axa0EM4YJ-199" value="规则逻辑" style="rounded=1;whiteSpace=wrap;html=1;" parent="1" vertex="1">
          <mxGeometry x="6559" y="5270" width="160" height="60" as="geometry" />
        </mxCell>
        <mxCell id="qDP3Hpl89R7axa0EM4YJ-200" value="查压力平衡" style="rounded=1;whiteSpace=wrap;html=1;" parent="1" vertex="1">
          <mxGeometry x="6610" y="3265.5" width="160" height="60" as="geometry" />
        </mxCell>
        <mxCell id="qDP3Hpl89R7axa0EM4YJ-201" value="入参：retailerId、gridId" style="text;html=1;align=center;verticalAlign=middle;resizable=0;points=[];autosize=1;strokeColor=none;fillColor=none;" parent="1" vertex="1">
          <mxGeometry x="6421" y="3285.5" width="170" height="20" as="geometry" />
        </mxCell>
        <mxCell id="qDP3Hpl89R7axa0EM4YJ-202" value="查压力平衡" style="rounded=1;whiteSpace=wrap;html=1;" parent="1" vertex="1">
          <mxGeometry x="6600" y="2558.5" width="160" height="60" as="geometry" />
        </mxCell>
        <mxCell id="qDP3Hpl89R7axa0EM4YJ-203" value="入参：retailerId、gridId" style="text;html=1;align=center;verticalAlign=middle;resizable=0;points=[];autosize=1;strokeColor=none;fillColor=none;" parent="1" vertex="1">
          <mxGeometry x="6415" y="2587" width="170" height="20" as="geometry" />
        </mxCell>
        <mxCell id="qDP3Hpl89R7axa0EM4YJ-253" value="" style="edgeStyle=orthogonalEdgeStyle;rounded=0;orthogonalLoop=1;jettySize=auto;html=1;" parent="1" source="qDP3Hpl89R7axa0EM4YJ-207" target="qDP3Hpl89R7axa0EM4YJ-218" edge="1">
          <mxGeometry relative="1" as="geometry" />
        </mxCell>
        <mxCell id="qDP3Hpl89R7axa0EM4YJ-207" value="查Ka T" style="rounded=1;whiteSpace=wrap;html=1;" parent="1" vertex="1">
          <mxGeometry x="6346" y="3890" width="160" height="60" as="geometry" />
        </mxCell>
        <mxCell id="qDP3Hpl89R7axa0EM4YJ-208" value="ka caculator" style="text;html=1;align=center;verticalAlign=middle;resizable=0;points=[];autosize=1;strokeColor=none;fillColor=none;" parent="1" vertex="1">
          <mxGeometry x="6376" y="3720" width="100" height="20" as="geometry" />
        </mxCell>
        <mxCell id="qDP3Hpl89R7axa0EM4YJ-255" value="" style="edgeStyle=orthogonalEdgeStyle;rounded=0;orthogonalLoop=1;jettySize=auto;html=1;" parent="1" source="qDP3Hpl89R7axa0EM4YJ-211" target="qDP3Hpl89R7axa0EM4YJ-220" edge="1">
          <mxGeometry relative="1" as="geometry" />
        </mxCell>
        <mxCell id="qDP3Hpl89R7axa0EM4YJ-211" value="开始" style="rounded=1;whiteSpace=wrap;html=1;" parent="1" vertex="1">
          <mxGeometry x="6726" y="3780" width="160" height="60" as="geometry" />
        </mxCell>
        <mxCell id="qDP3Hpl89R7axa0EM4YJ-212" value="商户规则 caculator" style="text;html=1;align=center;verticalAlign=middle;resizable=0;points=[];autosize=1;strokeColor=none;fillColor=none;" parent="1" vertex="1">
          <mxGeometry x="6726" y="3710" width="140" height="20" as="geometry" />
        </mxCell>
        <mxCell id="qDP3Hpl89R7axa0EM4YJ-251" value="" style="edgeStyle=orthogonalEdgeStyle;rounded=0;orthogonalLoop=1;jettySize=auto;html=1;" parent="1" source="qDP3Hpl89R7axa0EM4YJ-215" target="qDP3Hpl89R7axa0EM4YJ-216" edge="1">
          <mxGeometry relative="1" as="geometry" />
        </mxCell>
        <mxCell id="qDP3Hpl89R7axa0EM4YJ-215" value="末端校准" style="rounded=1;whiteSpace=wrap;html=1;" parent="1" vertex="1">
          <mxGeometry x="6559" y="5380" width="160" height="60" as="geometry" />
        </mxCell>
        <mxCell id="qDP3Hpl89R7axa0EM4YJ-216" value="结束" style="rounded=1;whiteSpace=wrap;html=1;" parent="1" vertex="1">
          <mxGeometry x="6559" y="5475" width="160" height="60" as="geometry" />
        </mxCell>
        <mxCell id="qDP3Hpl89R7axa0EM4YJ-252" value="" style="edgeStyle=orthogonalEdgeStyle;rounded=0;orthogonalLoop=1;jettySize=auto;html=1;" parent="1" source="qDP3Hpl89R7axa0EM4YJ-217" target="qDP3Hpl89R7axa0EM4YJ-207" edge="1">
          <mxGeometry relative="1" as="geometry" />
        </mxCell>
        <mxCell id="qDP3Hpl89R7axa0EM4YJ-217" value="开始" style="rounded=1;whiteSpace=wrap;html=1;" parent="1" vertex="1">
          <mxGeometry x="6346" y="3780" width="160" height="60" as="geometry" />
        </mxCell>
        <mxCell id="qDP3Hpl89R7axa0EM4YJ-254" value="" style="edgeStyle=orthogonalEdgeStyle;rounded=0;orthogonalLoop=1;jettySize=auto;html=1;" parent="1" source="qDP3Hpl89R7axa0EM4YJ-218" target="qDP3Hpl89R7axa0EM4YJ-222" edge="1">
          <mxGeometry relative="1" as="geometry" />
        </mxCell>
        <mxCell id="qDP3Hpl89R7axa0EM4YJ-218" value="计算T" style="rounded=1;whiteSpace=wrap;html=1;" parent="1" vertex="1">
          <mxGeometry x="6346" y="4000" width="160" height="60" as="geometry" />
        </mxCell>
        <mxCell id="qDP3Hpl89R7axa0EM4YJ-219" value="实时商户T整体流程" style="text;html=1;align=center;verticalAlign=middle;resizable=0;points=[];autosize=1;strokeColor=none;fillColor=none;" parent="1" vertex="1">
          <mxGeometry x="6571" y="4590" width="140" height="20" as="geometry" />
        </mxCell>
        <mxCell id="qDP3Hpl89R7axa0EM4YJ-256" value="" style="edgeStyle=orthogonalEdgeStyle;rounded=0;orthogonalLoop=1;jettySize=auto;html=1;" parent="1" source="qDP3Hpl89R7axa0EM4YJ-220" target="qDP3Hpl89R7axa0EM4YJ-221" edge="1">
          <mxGeometry relative="1" as="geometry" />
        </mxCell>
        <mxCell id="qDP3Hpl89R7axa0EM4YJ-220" value="查商户规则" style="rounded=1;whiteSpace=wrap;html=1;" parent="1" vertex="1">
          <mxGeometry x="6726" y="3890" width="160" height="60" as="geometry" />
        </mxCell>
        <mxCell id="qDP3Hpl89R7axa0EM4YJ-257" value="" style="edgeStyle=orthogonalEdgeStyle;rounded=0;orthogonalLoop=1;jettySize=auto;html=1;" parent="1" source="qDP3Hpl89R7axa0EM4YJ-221" target="qDP3Hpl89R7axa0EM4YJ-223" edge="1">
          <mxGeometry relative="1" as="geometry" />
        </mxCell>
        <mxCell id="qDP3Hpl89R7axa0EM4YJ-221" value="计算T" style="rounded=1;whiteSpace=wrap;html=1;" parent="1" vertex="1">
          <mxGeometry x="6726" y="4000" width="160" height="60" as="geometry" />
        </mxCell>
        <mxCell id="qDP3Hpl89R7axa0EM4YJ-222" value="结束" style="rounded=1;whiteSpace=wrap;html=1;" parent="1" vertex="1">
          <mxGeometry x="6346" y="4110" width="160" height="60" as="geometry" />
        </mxCell>
        <mxCell id="qDP3Hpl89R7axa0EM4YJ-223" value="结束" style="rounded=1;whiteSpace=wrap;html=1;" parent="1" vertex="1">
          <mxGeometry x="6726" y="4115" width="160" height="60" as="geometry" />
        </mxCell>
        <mxCell id="qDP3Hpl89R7axa0EM4YJ-258" style="edgeStyle=orthogonalEdgeStyle;rounded=0;orthogonalLoop=1;jettySize=auto;html=1;" parent="1" source="qDP3Hpl89R7axa0EM4YJ-224" target="qDP3Hpl89R7axa0EM4YJ-227" edge="1">
          <mxGeometry relative="1" as="geometry" />
        </mxCell>
        <mxCell id="qDP3Hpl89R7axa0EM4YJ-259" style="edgeStyle=orthogonalEdgeStyle;rounded=0;orthogonalLoop=1;jettySize=auto;html=1;" parent="1" source="qDP3Hpl89R7axa0EM4YJ-224" target="qDP3Hpl89R7axa0EM4YJ-231" edge="1">
          <mxGeometry relative="1" as="geometry" />
        </mxCell>
        <mxCell id="qDP3Hpl89R7axa0EM4YJ-224" value="开始" style="rounded=1;whiteSpace=wrap;html=1;" parent="1" vertex="1">
          <mxGeometry x="7226" y="3770" width="160" height="60" as="geometry" />
        </mxCell>
        <mxCell id="qDP3Hpl89R7axa0EM4YJ-225" value="算法 caculator" style="text;html=1;align=center;verticalAlign=middle;resizable=0;points=[];autosize=1;strokeColor=none;fillColor=none;" parent="1" vertex="1">
          <mxGeometry x="7246" y="3710" width="110" height="20" as="geometry" />
        </mxCell>
        <mxCell id="qDP3Hpl89R7axa0EM4YJ-260" style="edgeStyle=orthogonalEdgeStyle;rounded=0;orthogonalLoop=1;jettySize=auto;html=1;entryX=0.5;entryY=0;entryDx=0;entryDy=0;" parent="1" source="qDP3Hpl89R7axa0EM4YJ-227" target="qDP3Hpl89R7axa0EM4YJ-228" edge="1">
          <mxGeometry relative="1" as="geometry" />
        </mxCell>
        <mxCell id="qDP3Hpl89R7axa0EM4YJ-227" value="餐饮handler" style="rounded=1;whiteSpace=wrap;html=1;" parent="1" vertex="1">
          <mxGeometry x="7126" y="3885.5" width="160" height="60" as="geometry" />
        </mxCell>
        <mxCell id="qDP3Hpl89R7axa0EM4YJ-228" value="结束" style="rounded=1;whiteSpace=wrap;html=1;" parent="1" vertex="1">
          <mxGeometry x="7226" y="4010" width="160" height="60" as="geometry" />
        </mxCell>
        <mxCell id="qDP3Hpl89R7axa0EM4YJ-261" style="edgeStyle=orthogonalEdgeStyle;rounded=0;orthogonalLoop=1;jettySize=auto;html=1;entryX=0.5;entryY=0;entryDx=0;entryDy=0;" parent="1" source="qDP3Hpl89R7axa0EM4YJ-231" target="qDP3Hpl89R7axa0EM4YJ-228" edge="1">
          <mxGeometry relative="1" as="geometry" />
        </mxCell>
        <mxCell id="qDP3Hpl89R7axa0EM4YJ-231" value="新零售handler" style="rounded=1;whiteSpace=wrap;html=1;" parent="1" vertex="1">
          <mxGeometry x="7336" y="3885.5" width="160" height="60" as="geometry" />
        </mxCell>
        <mxCell id="qDP3Hpl89R7axa0EM4YJ-263" value="" style="edgeStyle=orthogonalEdgeStyle;rounded=0;orthogonalLoop=1;jettySize=auto;html=1;" parent="1" source="qDP3Hpl89R7axa0EM4YJ-262" target="qDP3Hpl89R7axa0EM4YJ-194" edge="1">
          <mxGeometry relative="1" as="geometry" />
        </mxCell>
        <mxCell id="qDP3Hpl89R7axa0EM4YJ-262" value="开始" style="rounded=1;whiteSpace=wrap;html=1;" parent="1" vertex="1">
          <mxGeometry x="6561" y="4640" width="160" height="60" as="geometry" />
        </mxCell>
        <mxCell id="qDP3Hpl89R7axa0EM4YJ-264" value="餐饮handler" style="text;html=1;align=center;verticalAlign=middle;resizable=0;points=[];autosize=1;strokeColor=none;fillColor=none;" parent="1" vertex="1">
          <mxGeometry x="7646" y="3700" width="100" height="20" as="geometry" />
        </mxCell>
        <mxCell id="qDP3Hpl89R7axa0EM4YJ-274" value="" style="edgeStyle=orthogonalEdgeStyle;rounded=0;orthogonalLoop=1;jettySize=auto;html=1;" parent="1" source="qDP3Hpl89R7axa0EM4YJ-265" target="qDP3Hpl89R7axa0EM4YJ-266" edge="1">
          <mxGeometry relative="1" as="geometry" />
        </mxCell>
        <mxCell id="qDP3Hpl89R7axa0EM4YJ-265" value="开始" style="rounded=1;whiteSpace=wrap;html=1;" parent="1" vertex="1">
          <mxGeometry x="7616" y="3760" width="160" height="60" as="geometry" />
        </mxCell>
        <mxCell id="qDP3Hpl89R7axa0EM4YJ-275" value="" style="edgeStyle=orthogonalEdgeStyle;rounded=0;orthogonalLoop=1;jettySize=auto;html=1;" parent="1" source="qDP3Hpl89R7axa0EM4YJ-266" target="qDP3Hpl89R7axa0EM4YJ-267" edge="1">
          <mxGeometry relative="1" as="geometry" />
        </mxCell>
        <mxCell id="qDP3Hpl89R7axa0EM4YJ-266" value="并行查询餐饮依赖" style="rounded=1;whiteSpace=wrap;html=1;" parent="1" vertex="1">
          <mxGeometry x="7616" y="3870" width="160" height="60" as="geometry" />
        </mxCell>
        <mxCell id="qDP3Hpl89R7axa0EM4YJ-276" value="" style="edgeStyle=orthogonalEdgeStyle;rounded=0;orthogonalLoop=1;jettySize=auto;html=1;" parent="1" source="qDP3Hpl89R7axa0EM4YJ-267" target="qDP3Hpl89R7axa0EM4YJ-268" edge="1">
          <mxGeometry relative="1" as="geometry" />
        </mxCell>
        <mxCell id="qDP3Hpl89R7axa0EM4YJ-267" value="构建算法参数" style="rounded=1;whiteSpace=wrap;html=1;" parent="1" vertex="1">
          <mxGeometry x="7616" y="3980" width="160" height="60" as="geometry" />
        </mxCell>
        <mxCell id="qDP3Hpl89R7axa0EM4YJ-323" value="" style="edgeStyle=orthogonalEdgeStyle;rounded=0;orthogonalLoop=1;jettySize=auto;html=1;" parent="1" source="qDP3Hpl89R7axa0EM4YJ-268" target="qDP3Hpl89R7axa0EM4YJ-322" edge="1">
          <mxGeometry relative="1" as="geometry" />
        </mxCell>
        <mxCell id="qDP3Hpl89R7axa0EM4YJ-268" value="调用算法餐饮接口" style="rounded=1;whiteSpace=wrap;html=1;" parent="1" vertex="1">
          <mxGeometry x="7616" y="4085" width="160" height="60" as="geometry" />
        </mxCell>
        <mxCell id="qDP3Hpl89R7axa0EM4YJ-269" value="新零售handler" style="text;html=1;align=center;verticalAlign=middle;resizable=0;points=[];autosize=1;strokeColor=none;fillColor=none;" parent="1" vertex="1">
          <mxGeometry x="7941" y="3700" width="110" height="20" as="geometry" />
        </mxCell>
        <mxCell id="qDP3Hpl89R7axa0EM4YJ-277" value="" style="edgeStyle=orthogonalEdgeStyle;rounded=0;orthogonalLoop=1;jettySize=auto;html=1;" parent="1" source="qDP3Hpl89R7axa0EM4YJ-270" target="qDP3Hpl89R7axa0EM4YJ-271" edge="1">
          <mxGeometry relative="1" as="geometry" />
        </mxCell>
        <mxCell id="qDP3Hpl89R7axa0EM4YJ-270" value="开始" style="rounded=1;whiteSpace=wrap;html=1;" parent="1" vertex="1">
          <mxGeometry x="7916" y="3760" width="160" height="60" as="geometry" />
        </mxCell>
        <mxCell id="qDP3Hpl89R7axa0EM4YJ-278" value="" style="edgeStyle=orthogonalEdgeStyle;rounded=0;orthogonalLoop=1;jettySize=auto;html=1;" parent="1" source="qDP3Hpl89R7axa0EM4YJ-271" target="qDP3Hpl89R7axa0EM4YJ-272" edge="1">
          <mxGeometry relative="1" as="geometry" />
        </mxCell>
        <mxCell id="qDP3Hpl89R7axa0EM4YJ-271" value="并行查询新零售依赖" style="rounded=1;whiteSpace=wrap;html=1;" parent="1" vertex="1">
          <mxGeometry x="7916" y="3870" width="160" height="60" as="geometry" />
        </mxCell>
        <mxCell id="qDP3Hpl89R7axa0EM4YJ-279" value="" style="edgeStyle=orthogonalEdgeStyle;rounded=0;orthogonalLoop=1;jettySize=auto;html=1;" parent="1" source="qDP3Hpl89R7axa0EM4YJ-272" target="qDP3Hpl89R7axa0EM4YJ-273" edge="1">
          <mxGeometry relative="1" as="geometry" />
        </mxCell>
        <mxCell id="qDP3Hpl89R7axa0EM4YJ-272" value="构建算法参数" style="rounded=1;whiteSpace=wrap;html=1;" parent="1" vertex="1">
          <mxGeometry x="7916" y="3980" width="160" height="60" as="geometry" />
        </mxCell>
        <mxCell id="qDP3Hpl89R7axa0EM4YJ-325" value="" style="edgeStyle=orthogonalEdgeStyle;rounded=0;orthogonalLoop=1;jettySize=auto;html=1;" parent="1" source="qDP3Hpl89R7axa0EM4YJ-273" target="qDP3Hpl89R7axa0EM4YJ-324" edge="1">
          <mxGeometry relative="1" as="geometry" />
        </mxCell>
        <mxCell id="qDP3Hpl89R7axa0EM4YJ-273" value="调用算法新零售接口" style="rounded=1;whiteSpace=wrap;html=1;" parent="1" vertex="1">
          <mxGeometry x="7916" y="4085" width="160" height="60" as="geometry" />
        </mxCell>
        <mxCell id="qDP3Hpl89R7axa0EM4YJ-317" style="edgeStyle=orthogonalEdgeStyle;rounded=0;orthogonalLoop=1;jettySize=auto;html=1;entryX=0.5;entryY=0;entryDx=0;entryDy=0;" parent="1" source="qDP3Hpl89R7axa0EM4YJ-286" target="qDP3Hpl89R7axa0EM4YJ-294" edge="1">
          <mxGeometry relative="1" as="geometry">
            <Array as="points">
              <mxPoint x="7523" y="5300" />
              <mxPoint x="7658" y="5300" />
            </Array>
          </mxGeometry>
        </mxCell>
        <mxCell id="qDP3Hpl89R7axa0EM4YJ-286" value="过配置上下限" style="rounded=1;whiteSpace=wrap;html=1;" parent="1" vertex="1">
          <mxGeometry x="7443" y="5175" width="160" height="60" as="geometry" />
        </mxCell>
        <mxCell id="qDP3Hpl89R7axa0EM4YJ-297" value="" style="edgeStyle=orthogonalEdgeStyle;rounded=0;orthogonalLoop=1;jettySize=auto;html=1;" parent="1" source="qDP3Hpl89R7axa0EM4YJ-287" target="qDP3Hpl89R7axa0EM4YJ-286" edge="1">
          <mxGeometry relative="1" as="geometry" />
        </mxCell>
        <mxCell id="qDP3Hpl89R7axa0EM4YJ-287" value="商户实时规则" style="rounded=1;whiteSpace=wrap;html=1;" parent="1" vertex="1">
          <mxGeometry x="7443" y="5060" width="160" height="60" as="geometry" />
        </mxCell>
        <mxCell id="qDP3Hpl89R7axa0EM4YJ-298" value="" style="edgeStyle=orthogonalEdgeStyle;rounded=0;orthogonalLoop=1;jettySize=auto;html=1;" parent="1" source="qDP3Hpl89R7axa0EM4YJ-292" target="qDP3Hpl89R7axa0EM4YJ-293" edge="1">
          <mxGeometry relative="1" as="geometry" />
        </mxCell>
        <mxCell id="qDP3Hpl89R7axa0EM4YJ-292" value="运营规则" style="rounded=1;whiteSpace=wrap;html=1;" parent="1" vertex="1">
          <mxGeometry x="7723" y="5065" width="160" height="60" as="geometry" />
        </mxCell>
        <mxCell id="qDP3Hpl89R7axa0EM4YJ-319" style="edgeStyle=orthogonalEdgeStyle;rounded=0;orthogonalLoop=1;jettySize=auto;html=1;" parent="1" source="qDP3Hpl89R7axa0EM4YJ-293" target="qDP3Hpl89R7axa0EM4YJ-294" edge="1">
          <mxGeometry relative="1" as="geometry">
            <Array as="points">
              <mxPoint x="7803" y="5300" />
              <mxPoint x="7658" y="5300" />
            </Array>
          </mxGeometry>
        </mxCell>
        <mxCell id="qDP3Hpl89R7axa0EM4YJ-293" value="实时规则" style="rounded=1;whiteSpace=wrap;html=1;" parent="1" vertex="1">
          <mxGeometry x="7723" y="5185" width="160" height="60" as="geometry" />
        </mxCell>
        <mxCell id="qDP3Hpl89R7axa0EM4YJ-302" value="" style="edgeStyle=orthogonalEdgeStyle;rounded=0;orthogonalLoop=1;jettySize=auto;html=1;" parent="1" source="qDP3Hpl89R7axa0EM4YJ-294" target="qDP3Hpl89R7axa0EM4YJ-295" edge="1">
          <mxGeometry relative="1" as="geometry" />
        </mxCell>
        <mxCell id="qDP3Hpl89R7axa0EM4YJ-294" value="商户最终上下限" style="rounded=1;whiteSpace=wrap;html=1;" parent="1" vertex="1">
          <mxGeometry x="7578" y="5344" width="160" height="60" as="geometry" />
        </mxCell>
        <mxCell id="qDP3Hpl89R7axa0EM4YJ-295" value="结束" style="rounded=1;whiteSpace=wrap;html=1;" parent="1" vertex="1">
          <mxGeometry x="7578" y="5460" width="160" height="60" as="geometry" />
        </mxCell>
        <mxCell id="qDP3Hpl89R7axa0EM4YJ-296" value="商户T规则流程" style="text;html=1;align=center;verticalAlign=middle;resizable=0;points=[];autosize=1;strokeColor=none;fillColor=none;" parent="1" vertex="1">
          <mxGeometry x="7603" y="4550" width="110" height="20" as="geometry" />
        </mxCell>
        <mxCell id="qDP3Hpl89R7axa0EM4YJ-316" value="" style="edgeStyle=orthogonalEdgeStyle;rounded=0;orthogonalLoop=1;jettySize=auto;html=1;" parent="1" source="qDP3Hpl89R7axa0EM4YJ-307" target="qDP3Hpl89R7axa0EM4YJ-308" edge="1">
          <mxGeometry relative="1" as="geometry" />
        </mxCell>
        <mxCell id="qDP3Hpl89R7axa0EM4YJ-307" value="开始" style="rounded=1;whiteSpace=wrap;html=1;" parent="1" vertex="1">
          <mxGeometry x="7578" y="4590" width="160" height="60" as="geometry" />
        </mxCell>
        <mxCell id="qDP3Hpl89R7axa0EM4YJ-314" value="" style="edgeStyle=orthogonalEdgeStyle;rounded=0;orthogonalLoop=1;jettySize=auto;html=1;" parent="1" source="qDP3Hpl89R7axa0EM4YJ-308" target="qDP3Hpl89R7axa0EM4YJ-309" edge="1">
          <mxGeometry relative="1" as="geometry" />
        </mxCell>
        <mxCell id="qDP3Hpl89R7axa0EM4YJ-320" style="edgeStyle=orthogonalEdgeStyle;rounded=0;orthogonalLoop=1;jettySize=auto;html=1;entryX=1;entryY=0.5;entryDx=0;entryDy=0;" parent="1" source="qDP3Hpl89R7axa0EM4YJ-308" target="qDP3Hpl89R7axa0EM4YJ-294" edge="1">
          <mxGeometry relative="1" as="geometry">
            <mxPoint x="7883" y="4760" as="targetPoint" />
            <Array as="points">
              <mxPoint x="7963" y="4760" />
              <mxPoint x="7963" y="5374" />
            </Array>
          </mxGeometry>
        </mxCell>
        <mxCell id="qDP3Hpl89R7axa0EM4YJ-308" value="自设？" style="strokeWidth=2;html=1;shape=mxgraph.flowchart.decision;whiteSpace=wrap;" parent="1" vertex="1">
          <mxGeometry x="7608" y="4710" width="100" height="100" as="geometry" />
        </mxCell>
        <mxCell id="qDP3Hpl89R7axa0EM4YJ-310" style="edgeStyle=orthogonalEdgeStyle;rounded=0;orthogonalLoop=1;jettySize=auto;html=1;entryX=0.5;entryY=0;entryDx=0;entryDy=0;" parent="1" source="qDP3Hpl89R7axa0EM4YJ-309" target="qDP3Hpl89R7axa0EM4YJ-287" edge="1">
          <mxGeometry relative="1" as="geometry" />
        </mxCell>
        <mxCell id="qDP3Hpl89R7axa0EM4YJ-311" style="edgeStyle=orthogonalEdgeStyle;rounded=0;orthogonalLoop=1;jettySize=auto;html=1;exitX=1;exitY=0.5;exitDx=0;exitDy=0;exitPerimeter=0;" parent="1" source="qDP3Hpl89R7axa0EM4YJ-309" target="qDP3Hpl89R7axa0EM4YJ-292" edge="1">
          <mxGeometry relative="1" as="geometry" />
        </mxCell>
        <mxCell id="qDP3Hpl89R7axa0EM4YJ-309" value="自配送？" style="strokeWidth=2;html=1;shape=mxgraph.flowchart.decision;whiteSpace=wrap;" parent="1" vertex="1">
          <mxGeometry x="7608" y="4880" width="100" height="100" as="geometry" />
        </mxCell>
        <mxCell id="qDP3Hpl89R7axa0EM4YJ-312" value="是" style="text;html=1;align=center;verticalAlign=middle;resizable=0;points=[];autosize=1;strokeColor=none;fillColor=none;" parent="1" vertex="1">
          <mxGeometry x="7533" y="4944" width="30" height="20" as="geometry" />
        </mxCell>
        <mxCell id="qDP3Hpl89R7axa0EM4YJ-313" value="否" style="text;html=1;align=center;verticalAlign=middle;resizable=0;points=[];autosize=1;strokeColor=none;fillColor=none;" parent="1" vertex="1">
          <mxGeometry x="7759" y="4944" width="30" height="20" as="geometry" />
        </mxCell>
        <mxCell id="qDP3Hpl89R7axa0EM4YJ-315" value="是" style="text;html=1;align=center;verticalAlign=middle;resizable=0;points=[];autosize=1;strokeColor=none;fillColor=none;" parent="1" vertex="1">
          <mxGeometry x="7729" y="4765" width="30" height="20" as="geometry" />
        </mxCell>
        <mxCell id="qDP3Hpl89R7axa0EM4YJ-321" value="否" style="text;html=1;align=center;verticalAlign=middle;resizable=0;points=[];autosize=1;strokeColor=none;fillColor=none;" parent="1" vertex="1">
          <mxGeometry x="7624" y="4815" width="30" height="20" as="geometry" />
        </mxCell>
        <mxCell id="qDP3Hpl89R7axa0EM4YJ-322" value="结束" style="rounded=1;whiteSpace=wrap;html=1;" parent="1" vertex="1">
          <mxGeometry x="7616" y="4200" width="160" height="60" as="geometry" />
        </mxCell>
        <mxCell id="qDP3Hpl89R7axa0EM4YJ-324" value="结束" style="rounded=1;whiteSpace=wrap;html=1;" parent="1" vertex="1">
          <mxGeometry x="7916" y="4202" width="160" height="60" as="geometry" />
        </mxCell>
        <mxCell id="qDP3Hpl89R7axa0EM4YJ-434" style="edgeStyle=orthogonalEdgeStyle;rounded=0;orthogonalLoop=1;jettySize=auto;html=1;exitX=0.5;exitY=1;exitDx=0;exitDy=0;" parent="1" edge="1">
          <mxGeometry relative="1" as="geometry">
            <mxPoint x="6440" y="5310" as="sourcePoint" />
            <mxPoint x="6440" y="5310" as="targetPoint" />
          </mxGeometry>
        </mxCell>
        <mxCell id="qDP3Hpl89R7axa0EM4YJ-455" style="edgeStyle=orthogonalEdgeStyle;rounded=0;orthogonalLoop=1;jettySize=auto;html=1;" parent="1" source="qDP3Hpl89R7axa0EM4YJ-442" target="qDP3Hpl89R7axa0EM4YJ-443" edge="1">
          <mxGeometry relative="1" as="geometry">
            <Array as="points">
              <mxPoint x="6916" y="5110" />
              <mxPoint x="6639" y="5110" />
            </Array>
          </mxGeometry>
        </mxCell>
        <mxCell id="qDP3Hpl89R7axa0EM4YJ-442" value="新零售商户 caculator" style="rounded=1;whiteSpace=wrap;html=1;" parent="1" vertex="1">
          <mxGeometry x="6835.5" y="5000" width="160" height="60" as="geometry" />
        </mxCell>
        <mxCell id="qDP3Hpl89R7axa0EM4YJ-449" value="" style="edgeStyle=orthogonalEdgeStyle;rounded=0;orthogonalLoop=1;jettySize=auto;html=1;" parent="1" source="qDP3Hpl89R7axa0EM4YJ-443" target="qDP3Hpl89R7axa0EM4YJ-199" edge="1">
          <mxGeometry relative="1" as="geometry" />
        </mxCell>
        <mxCell id="qDP3Hpl89R7axa0EM4YJ-443" value="降级 caculator" style="rounded=1;whiteSpace=wrap;html=1;" parent="1" vertex="1">
          <mxGeometry x="6559" y="5155" width="160" height="60" as="geometry" />
        </mxCell>
        <mxCell id="qDP3Hpl89R7axa0EM4YJ-452" style="edgeStyle=orthogonalEdgeStyle;rounded=0;orthogonalLoop=1;jettySize=auto;html=1;entryX=0.5;entryY=0;entryDx=0;entryDy=0;" parent="1" source="qDP3Hpl89R7axa0EM4YJ-450" target="qDP3Hpl89R7axa0EM4YJ-443" edge="1">
          <mxGeometry relative="1" as="geometry">
            <Array as="points">
              <mxPoint x="6340" y="5110" />
              <mxPoint x="6639" y="5110" />
            </Array>
          </mxGeometry>
        </mxCell>
        <mxCell id="qDP3Hpl89R7axa0EM4YJ-450" value="ka caculator" style="rounded=1;whiteSpace=wrap;html=1;" parent="1" vertex="1">
          <mxGeometry x="6260" y="5000" width="160" height="60" as="geometry" />
        </mxCell>
        <mxCell id="YAhVAdzrSbsZRVZ3iHBd-1" value="create&lt;br&gt;构建各维度特征" style="rounded=0;whiteSpace=wrap;html=1;" parent="1" vertex="1">
          <mxGeometry x="6425" y="6685" width="120" height="60" as="geometry" />
        </mxCell>
        <mxCell id="YAhVAdzrSbsZRVZ3iHBd-2" value="calculate&lt;br&gt;调用tpp预测T" style="rounded=0;whiteSpace=wrap;html=1;" parent="1" vertex="1">
          <mxGeometry x="6425" y="6745" width="120" height="60" as="geometry" />
        </mxCell>
        <mxCell id="YAhVAdzrSbsZRVZ3iHBd-3" value="adjust&lt;br&gt;过规则调整T" style="rounded=0;whiteSpace=wrap;html=1;" parent="1" vertex="1">
          <mxGeometry x="6425" y="6805" width="120" height="60" as="geometry" />
        </mxCell>
        <mxCell id="YAhVAdzrSbsZRVZ3iHBd-4" value="endCheck&lt;br&gt;末端校准" style="rounded=0;whiteSpace=wrap;html=1;" parent="1" vertex="1">
          <mxGeometry x="6425" y="6865" width="120" height="60" as="geometry" />
        </mxCell>
        <mxCell id="YAhVAdzrSbsZRVZ3iHBd-5" value="入参：若干商户" style="rounded=0;whiteSpace=wrap;html=1;" parent="1" vertex="1">
          <mxGeometry x="6715" y="6055" width="140" height="60" as="geometry" />
        </mxCell>
        <mxCell id="YAhVAdzrSbsZRVZ3iHBd-6" value="新零售商户若干" style="rounded=0;whiteSpace=wrap;html=1;" parent="1" vertex="1">
          <mxGeometry x="6625" y="6365" width="120" height="60" as="geometry" />
        </mxCell>
        <mxCell id="YAhVAdzrSbsZRVZ3iHBd-7" value="餐饮商户若干" style="rounded=0;whiteSpace=wrap;html=1;" parent="1" vertex="1">
          <mxGeometry x="6845" y="6365" width="120" height="60" as="geometry" />
        </mxCell>
        <mxCell id="YAhVAdzrSbsZRVZ3iHBd-8" value="3.每种类型商户按10个一组分成若干批" style="text;html=1;align=center;verticalAlign=middle;resizable=0;points=[];autosize=1;strokeColor=none;fillColor=none;" parent="1" vertex="1">
          <mxGeometry x="6120" y="6537" width="270" height="20" as="geometry" />
        </mxCell>
        <mxCell id="YAhVAdzrSbsZRVZ3iHBd-9" value="2.按商户计算类型分类" style="text;html=1;strokeColor=none;fillColor=none;align=center;verticalAlign=middle;whiteSpace=wrap;rounded=0;" parent="1" vertex="1">
          <mxGeometry x="6115" y="6375" width="190" height="25" as="geometry" />
        </mxCell>
        <mxCell id="YAhVAdzrSbsZRVZ3iHBd-10" value="" style="shape=flexArrow;endArrow=classic;html=1;rounded=0;" parent="1" edge="1">
          <mxGeometry width="50" height="50" relative="1" as="geometry">
            <mxPoint x="6793.46" y="6285" as="sourcePoint" />
            <mxPoint x="6793.46" y="6355" as="targetPoint" />
          </mxGeometry>
        </mxCell>
        <mxCell id="YAhVAdzrSbsZRVZ3iHBd-11" value="新零售商户&lt;br&gt;第1批" style="rounded=0;whiteSpace=wrap;html=1;" parent="1" vertex="1">
          <mxGeometry x="6425" y="6518.5" width="80" height="60" as="geometry" />
        </mxCell>
        <mxCell id="YAhVAdzrSbsZRVZ3iHBd-13" value="新零售商户&lt;br&gt;第2批" style="rounded=0;whiteSpace=wrap;html=1;" parent="1" vertex="1">
          <mxGeometry x="6535" y="6518.5" width="80" height="60" as="geometry" />
        </mxCell>
        <mxCell id="YAhVAdzrSbsZRVZ3iHBd-14" value="新零售商户&lt;br&gt;第n批" style="rounded=0;whiteSpace=wrap;html=1;" parent="1" vertex="1">
          <mxGeometry x="6665" y="6521.5" width="80" height="60" as="geometry" />
        </mxCell>
        <mxCell id="YAhVAdzrSbsZRVZ3iHBd-15" value="......" style="text;html=1;align=center;verticalAlign=middle;resizable=0;points=[];autosize=1;strokeColor=none;fillColor=none;" parent="1" vertex="1">
          <mxGeometry x="6615" y="6538.5" width="40" height="20" as="geometry" />
        </mxCell>
        <mxCell id="YAhVAdzrSbsZRVZ3iHBd-24" value="" style="shape=flexArrow;endArrow=classic;html=1;rounded=0;" parent="1" edge="1">
          <mxGeometry width="50" height="50" relative="1" as="geometry">
            <mxPoint x="6795" y="6445" as="sourcePoint" />
            <mxPoint x="6795" y="6515" as="targetPoint" />
          </mxGeometry>
        </mxCell>
        <mxCell id="YAhVAdzrSbsZRVZ3iHBd-25" value="补充商户基础数据" style="rounded=0;whiteSpace=wrap;html=1;" parent="1" vertex="1">
          <mxGeometry x="6720" y="6205" width="140" height="60" as="geometry" />
        </mxCell>
        <mxCell id="YAhVAdzrSbsZRVZ3iHBd-26" value="1.查询商户详情" style="text;html=1;align=center;verticalAlign=middle;resizable=0;points=[];autosize=1;strokeColor=none;fillColor=none;" parent="1" vertex="1">
          <mxGeometry x="6115" y="6225" width="120" height="20" as="geometry" />
        </mxCell>
        <mxCell id="YAhVAdzrSbsZRVZ3iHBd-27" value="餐饮商户&lt;br&gt;第1批" style="rounded=0;whiteSpace=wrap;html=1;" parent="1" vertex="1">
          <mxGeometry x="6845" y="6521.5" width="80" height="60" as="geometry" />
        </mxCell>
        <mxCell id="YAhVAdzrSbsZRVZ3iHBd-28" value="餐饮商户&lt;br&gt;第2批" style="rounded=0;whiteSpace=wrap;html=1;" parent="1" vertex="1">
          <mxGeometry x="6955" y="6521.5" width="80" height="60" as="geometry" />
        </mxCell>
        <mxCell id="YAhVAdzrSbsZRVZ3iHBd-29" value="餐饮商户&lt;br&gt;第n批" style="rounded=0;whiteSpace=wrap;html=1;" parent="1" vertex="1">
          <mxGeometry x="7085" y="6524.5" width="80" height="60" as="geometry" />
        </mxCell>
        <mxCell id="YAhVAdzrSbsZRVZ3iHBd-30" value="......" style="text;html=1;align=center;verticalAlign=middle;resizable=0;points=[];autosize=1;strokeColor=none;fillColor=none;" parent="1" vertex="1">
          <mxGeometry x="7035" y="6541.5" width="40" height="20" as="geometry" />
        </mxCell>
        <mxCell id="YAhVAdzrSbsZRVZ3iHBd-31" value="4.每批商户执行右侧计算逻辑，&lt;br&gt;&amp;nbsp; &amp;nbsp; &amp;nbsp; 每批作为一个task给线程池处理" style="text;html=1;align=center;verticalAlign=middle;resizable=0;points=[];autosize=1;strokeColor=none;fillColor=none;" parent="1" vertex="1">
          <mxGeometry x="6100" y="6720" width="250" height="30" as="geometry" />
        </mxCell>
        <mxCell id="YAhVAdzrSbsZRVZ3iHBd-33" value="task1" style="text;html=1;align=center;verticalAlign=middle;resizable=0;points=[];autosize=1;strokeColor=none;fillColor=none;" parent="1" vertex="1">
          <mxGeometry x="6455" y="6655" width="50" height="20" as="geometry" />
        </mxCell>
        <mxCell id="YAhVAdzrSbsZRVZ3iHBd-34" value="" style="rounded=0;whiteSpace=wrap;html=1;" parent="1" vertex="1">
          <mxGeometry x="6635" y="6635" width="160" height="300" as="geometry" />
        </mxCell>
        <mxCell id="YAhVAdzrSbsZRVZ3iHBd-35" value="create&lt;br&gt;构建各维度特征" style="rounded=0;whiteSpace=wrap;html=1;" parent="1" vertex="1">
          <mxGeometry x="6655" y="6685" width="120" height="60" as="geometry" />
        </mxCell>
        <mxCell id="YAhVAdzrSbsZRVZ3iHBd-36" value="calculate&lt;br&gt;调用tpp预测T" style="rounded=0;whiteSpace=wrap;html=1;" parent="1" vertex="1">
          <mxGeometry x="6655" y="6745" width="120" height="60" as="geometry" />
        </mxCell>
        <mxCell id="YAhVAdzrSbsZRVZ3iHBd-37" value="adjust&lt;br&gt;过规则调整T" style="rounded=0;whiteSpace=wrap;html=1;" parent="1" vertex="1">
          <mxGeometry x="6655" y="6805" width="120" height="60" as="geometry" />
        </mxCell>
        <mxCell id="YAhVAdzrSbsZRVZ3iHBd-38" value="endCheck&lt;br&gt;末端校准" style="rounded=0;whiteSpace=wrap;html=1;" parent="1" vertex="1">
          <mxGeometry x="6655" y="6865" width="120" height="60" as="geometry" />
        </mxCell>
        <mxCell id="YAhVAdzrSbsZRVZ3iHBd-39" value="task2" style="text;html=1;align=center;verticalAlign=middle;resizable=0;points=[];autosize=1;strokeColor=none;fillColor=none;" parent="1" vertex="1">
          <mxGeometry x="6685" y="6655" width="50" height="20" as="geometry" />
        </mxCell>
        <mxCell id="YAhVAdzrSbsZRVZ3iHBd-40" value="" style="rounded=0;whiteSpace=wrap;html=1;" parent="1" vertex="1">
          <mxGeometry x="7005" y="6635" width="160" height="300" as="geometry" />
        </mxCell>
        <mxCell id="YAhVAdzrSbsZRVZ3iHBd-41" value="create&lt;br&gt;构建各维度特征" style="rounded=0;whiteSpace=wrap;html=1;" parent="1" vertex="1">
          <mxGeometry x="7025" y="6685" width="120" height="60" as="geometry" />
        </mxCell>
        <mxCell id="YAhVAdzrSbsZRVZ3iHBd-42" value="calculate&lt;br&gt;调用tpp预测T" style="rounded=0;whiteSpace=wrap;html=1;" parent="1" vertex="1">
          <mxGeometry x="7025" y="6745" width="120" height="60" as="geometry" />
        </mxCell>
        <mxCell id="YAhVAdzrSbsZRVZ3iHBd-43" value="adjust&lt;br&gt;过规则调整T" style="rounded=0;whiteSpace=wrap;html=1;" parent="1" vertex="1">
          <mxGeometry x="7025" y="6805" width="120" height="60" as="geometry" />
        </mxCell>
        <mxCell id="YAhVAdzrSbsZRVZ3iHBd-44" value="endCheck&lt;br&gt;末端校准" style="rounded=0;whiteSpace=wrap;html=1;" parent="1" vertex="1">
          <mxGeometry x="7025" y="6865" width="120" height="60" as="geometry" />
        </mxCell>
        <mxCell id="YAhVAdzrSbsZRVZ3iHBd-45" value="task n" style="text;html=1;align=center;verticalAlign=middle;resizable=0;points=[];autosize=1;strokeColor=none;fillColor=none;" parent="1" vertex="1">
          <mxGeometry x="7050" y="6655" width="60" height="20" as="geometry" />
        </mxCell>
        <mxCell id="YAhVAdzrSbsZRVZ3iHBd-46" value="......" style="text;html=1;align=center;verticalAlign=middle;resizable=0;points=[];autosize=1;strokeColor=none;fillColor=none;" parent="1" vertex="1">
          <mxGeometry x="6875" y="6750" width="40" height="20" as="geometry" />
        </mxCell>
        <mxCell id="YAhVAdzrSbsZRVZ3iHBd-47" value="" style="shape=flexArrow;endArrow=classic;html=1;rounded=0;" parent="1" edge="1">
          <mxGeometry width="50" height="50" relative="1" as="geometry">
            <mxPoint x="6787" y="6125" as="sourcePoint" />
            <mxPoint x="6787" y="6195" as="targetPoint" />
          </mxGeometry>
        </mxCell>
        <mxCell id="YAhVAdzrSbsZRVZ3iHBd-48" value="T工程" style="shape=umlLifeline;perimeter=lifelinePerimeter;whiteSpace=wrap;html=1;container=1;collapsible=0;recursiveResize=0;outlineConnect=0;" parent="1" vertex="1">
          <mxGeometry x="7615" y="6020" width="100" height="1005" as="geometry" />
        </mxCell>
        <mxCell id="YAhVAdzrSbsZRVZ3iHBd-56" value="" style="html=1;points=[];perimeter=orthogonalPerimeter;" parent="YAhVAdzrSbsZRVZ3iHBd-48" vertex="1">
          <mxGeometry x="44" y="115" width="10" height="885" as="geometry" />
        </mxCell>
        <mxCell id="YAhVAdzrSbsZRVZ3iHBd-57" value="询列表T" style="html=1;verticalAlign=bottom;endArrow=block;entryX=0;entryY=0;rounded=0;" parent="YAhVAdzrSbsZRVZ3iHBd-48" target="YAhVAdzrSbsZRVZ3iHBd-56" edge="1">
          <mxGeometry relative="1" as="geometry">
            <mxPoint x="-26" y="115" as="sourcePoint" />
          </mxGeometry>
        </mxCell>
        <mxCell id="YAhVAdzrSbsZRVZ3iHBd-58" value="return" style="html=1;verticalAlign=bottom;endArrow=open;dashed=1;endSize=8;exitX=0;exitY=0.95;rounded=0;" parent="YAhVAdzrSbsZRVZ3iHBd-48" source="YAhVAdzrSbsZRVZ3iHBd-56" edge="1">
          <mxGeometry relative="1" as="geometry">
            <mxPoint x="-70" y="956" as="targetPoint" />
          </mxGeometry>
        </mxCell>
        <mxCell id="YAhVAdzrSbsZRVZ3iHBd-62" value="" style="html=1;points=[];perimeter=orthogonalPerimeter;" parent="YAhVAdzrSbsZRVZ3iHBd-48" vertex="1">
          <mxGeometry x="54" y="375" width="10" height="145" as="geometry" />
        </mxCell>
        <mxCell id="YAhVAdzrSbsZRVZ3iHBd-63" value="create&lt;br&gt;构建特征" style="edgeStyle=orthogonalEdgeStyle;html=1;align=left;spacingLeft=2;endArrow=block;rounded=0;entryX=1;entryY=0;" parent="YAhVAdzrSbsZRVZ3iHBd-48" target="YAhVAdzrSbsZRVZ3iHBd-62" edge="1">
          <mxGeometry relative="1" as="geometry">
            <mxPoint x="55" y="355" as="sourcePoint" />
            <Array as="points">
              <mxPoint x="85" y="355" />
            </Array>
          </mxGeometry>
        </mxCell>
        <mxCell id="YAhVAdzrSbsZRVZ3iHBd-67" value="" style="html=1;points=[];perimeter=orthogonalPerimeter;" parent="YAhVAdzrSbsZRVZ3iHBd-48" vertex="1">
          <mxGeometry x="54" y="175" width="10" height="65" as="geometry" />
        </mxCell>
        <mxCell id="YAhVAdzrSbsZRVZ3iHBd-68" value="补充商户详情" style="edgeStyle=orthogonalEdgeStyle;html=1;align=left;spacingLeft=2;endArrow=block;rounded=0;entryX=1;entryY=0;" parent="YAhVAdzrSbsZRVZ3iHBd-48" target="YAhVAdzrSbsZRVZ3iHBd-67" edge="1">
          <mxGeometry relative="1" as="geometry">
            <mxPoint x="55" y="155" as="sourcePoint" />
            <Array as="points">
              <mxPoint x="85" y="155" />
            </Array>
          </mxGeometry>
        </mxCell>
        <mxCell id="YAhVAdzrSbsZRVZ3iHBd-75" value="" style="html=1;points=[];perimeter=orthogonalPerimeter;" parent="YAhVAdzrSbsZRVZ3iHBd-48" vertex="1">
          <mxGeometry x="54" y="284.35" width="10" height="40" as="geometry" />
        </mxCell>
        <mxCell id="YAhVAdzrSbsZRVZ3iHBd-76" value="分批逻辑" style="edgeStyle=orthogonalEdgeStyle;html=1;align=left;spacingLeft=2;endArrow=block;rounded=0;entryX=1;entryY=0;exitX=1.018;exitY=0.27;exitDx=0;exitDy=0;exitPerimeter=0;" parent="YAhVAdzrSbsZRVZ3iHBd-48" target="YAhVAdzrSbsZRVZ3iHBd-75" edge="1">
          <mxGeometry relative="1" as="geometry">
            <mxPoint x="54.18000000000029" y="265.0000000000015" as="sourcePoint" />
            <Array as="points">
              <mxPoint x="89" y="265.35" />
              <mxPoint x="89" y="284.35" />
            </Array>
          </mxGeometry>
        </mxCell>
        <mxCell id="YAhVAdzrSbsZRVZ3iHBd-77" value="" style="html=1;points=[];perimeter=orthogonalPerimeter;" parent="YAhVAdzrSbsZRVZ3iHBd-48" vertex="1">
          <mxGeometry x="54" y="575" width="10" height="75" as="geometry" />
        </mxCell>
        <mxCell id="YAhVAdzrSbsZRVZ3iHBd-78" value="calcualte" style="edgeStyle=orthogonalEdgeStyle;html=1;align=left;spacingLeft=2;endArrow=block;rounded=0;entryX=1;entryY=0;" parent="YAhVAdzrSbsZRVZ3iHBd-48" target="YAhVAdzrSbsZRVZ3iHBd-77" edge="1">
          <mxGeometry relative="1" as="geometry">
            <mxPoint x="54" y="555" as="sourcePoint" />
            <Array as="points">
              <mxPoint x="84" y="555" />
            </Array>
          </mxGeometry>
        </mxCell>
        <mxCell id="YAhVAdzrSbsZRVZ3iHBd-83" value="" style="html=1;points=[];perimeter=orthogonalPerimeter;" parent="YAhVAdzrSbsZRVZ3iHBd-48" vertex="1">
          <mxGeometry x="54" y="715" width="10" height="65" as="geometry" />
        </mxCell>
        <mxCell id="YAhVAdzrSbsZRVZ3iHBd-84" value="adjust&lt;br&gt;过规则" style="edgeStyle=orthogonalEdgeStyle;html=1;align=left;spacingLeft=2;endArrow=block;rounded=0;entryX=1;entryY=0;" parent="YAhVAdzrSbsZRVZ3iHBd-48" target="YAhVAdzrSbsZRVZ3iHBd-83" edge="1">
          <mxGeometry relative="1" as="geometry">
            <mxPoint x="55" y="695" as="sourcePoint" />
            <Array as="points">
              <mxPoint x="85" y="695" />
            </Array>
          </mxGeometry>
        </mxCell>
        <mxCell id="YAhVAdzrSbsZRVZ3iHBd-88" value="" style="html=1;points=[];perimeter=orthogonalPerimeter;" parent="YAhVAdzrSbsZRVZ3iHBd-48" vertex="1">
          <mxGeometry x="54" y="855" width="10" height="65" as="geometry" />
        </mxCell>
        <mxCell id="YAhVAdzrSbsZRVZ3iHBd-89" value="endCheck&lt;br&gt;末端校准&lt;span style=&quot;white-space: pre&quot;&gt; &lt;/span&gt;" style="edgeStyle=orthogonalEdgeStyle;html=1;align=left;spacingLeft=2;endArrow=block;rounded=0;entryX=1;entryY=0;" parent="YAhVAdzrSbsZRVZ3iHBd-48" target="YAhVAdzrSbsZRVZ3iHBd-88" edge="1">
          <mxGeometry relative="1" as="geometry">
            <mxPoint x="54" y="835" as="sourcePoint" />
            <Array as="points">
              <mxPoint x="84" y="835" />
            </Array>
          </mxGeometry>
        </mxCell>
        <mxCell id="YAhVAdzrSbsZRVZ3iHBd-106" value="" style="html=1;points=[];perimeter=orthogonalPerimeter;" parent="YAhVAdzrSbsZRVZ3iHBd-48" vertex="1">
          <mxGeometry x="64" y="417.5" width="10" height="40" as="geometry" />
        </mxCell>
        <mxCell id="YAhVAdzrSbsZRVZ3iHBd-107" value="取本地缓存" style="edgeStyle=orthogonalEdgeStyle;html=1;align=left;spacingLeft=2;endArrow=block;rounded=0;entryX=1;entryY=0;" parent="YAhVAdzrSbsZRVZ3iHBd-48" target="YAhVAdzrSbsZRVZ3iHBd-106" edge="1">
          <mxGeometry relative="1" as="geometry">
            <mxPoint x="65" y="405" as="sourcePoint" />
            <Array as="points">
              <mxPoint x="95" y="405" />
            </Array>
          </mxGeometry>
        </mxCell>
        <mxCell id="YAhVAdzrSbsZRVZ3iHBd-49" value="Redis" style="shape=umlLifeline;perimeter=lifelinePerimeter;whiteSpace=wrap;html=1;container=1;collapsible=0;recursiveResize=0;outlineConnect=0;" parent="1" vertex="1">
          <mxGeometry x="7810" y="6020" width="100" height="995" as="geometry" />
        </mxCell>
        <mxCell id="YAhVAdzrSbsZRVZ3iHBd-69" value="" style="html=1;points=[];perimeter=orthogonalPerimeter;" parent="YAhVAdzrSbsZRVZ3iHBd-49" vertex="1">
          <mxGeometry x="45" y="195" width="10" height="35" as="geometry" />
        </mxCell>
        <mxCell id="YAhVAdzrSbsZRVZ3iHBd-72" value="" style="html=1;points=[];perimeter=orthogonalPerimeter;" parent="YAhVAdzrSbsZRVZ3iHBd-49" vertex="1">
          <mxGeometry x="45" y="475" width="10" height="35" as="geometry" />
        </mxCell>
        <mxCell id="YAhVAdzrSbsZRVZ3iHBd-50" value="Tpp" style="shape=umlLifeline;perimeter=lifelinePerimeter;whiteSpace=wrap;html=1;container=1;collapsible=0;recursiveResize=0;outlineConnect=0;" parent="1" vertex="1">
          <mxGeometry x="8006" y="6020" width="100" height="1005" as="geometry" />
        </mxCell>
        <mxCell id="YAhVAdzrSbsZRVZ3iHBd-80" value="" style="html=1;points=[];perimeter=orthogonalPerimeter;" parent="YAhVAdzrSbsZRVZ3iHBd-50" vertex="1">
          <mxGeometry x="45" y="585" width="10" height="65" as="geometry" />
        </mxCell>
        <mxCell id="YAhVAdzrSbsZRVZ3iHBd-90" value="" style="html=1;points=[];perimeter=orthogonalPerimeter;" parent="YAhVAdzrSbsZRVZ3iHBd-50" vertex="1">
          <mxGeometry x="44" y="870" width="10" height="40" as="geometry" />
        </mxCell>
        <mxCell id="YAhVAdzrSbsZRVZ3iHBd-52" value="规则服务" style="shape=umlLifeline;perimeter=lifelinePerimeter;whiteSpace=wrap;html=1;container=1;collapsible=0;recursiveResize=0;outlineConnect=0;" parent="1" vertex="1">
          <mxGeometry x="8180" y="6020" width="100" height="1005" as="geometry" />
        </mxCell>
        <mxCell id="YAhVAdzrSbsZRVZ3iHBd-85" value="" style="html=1;points=[];perimeter=orthogonalPerimeter;" parent="YAhVAdzrSbsZRVZ3iHBd-52" vertex="1">
          <mxGeometry x="45" y="730" width="10" height="40" as="geometry" />
        </mxCell>
        <mxCell id="YAhVAdzrSbsZRVZ3iHBd-70" value="mget" style="html=1;verticalAlign=bottom;endArrow=block;entryX=0;entryY=0;rounded=0;" parent="1" source="YAhVAdzrSbsZRVZ3iHBd-67" target="YAhVAdzrSbsZRVZ3iHBd-69" edge="1">
          <mxGeometry relative="1" as="geometry">
            <mxPoint x="7785" y="6215" as="sourcePoint" />
          </mxGeometry>
        </mxCell>
        <mxCell id="YAhVAdzrSbsZRVZ3iHBd-71" value="return" style="html=1;verticalAlign=bottom;endArrow=open;dashed=1;endSize=8;exitX=0;exitY=0.95;rounded=0;" parent="1" source="YAhVAdzrSbsZRVZ3iHBd-69" target="YAhVAdzrSbsZRVZ3iHBd-67" edge="1">
          <mxGeometry relative="1" as="geometry">
            <mxPoint x="7785" y="6291" as="targetPoint" />
          </mxGeometry>
        </mxCell>
        <mxCell id="YAhVAdzrSbsZRVZ3iHBd-73" value="若干次mget" style="html=1;verticalAlign=bottom;endArrow=block;rounded=0;exitX=1.167;exitY=0.71;exitDx=0;exitDy=0;exitPerimeter=0;" parent="1" source="YAhVAdzrSbsZRVZ3iHBd-62" target="YAhVAdzrSbsZRVZ3iHBd-72" edge="1">
          <mxGeometry relative="1" as="geometry">
            <mxPoint x="7679" y="6475" as="sourcePoint" />
          </mxGeometry>
        </mxCell>
        <mxCell id="YAhVAdzrSbsZRVZ3iHBd-74" value="return" style="html=1;verticalAlign=bottom;endArrow=open;dashed=1;endSize=8;rounded=0;entryX=1.033;entryY=0.913;entryDx=0;entryDy=0;entryPerimeter=0;" parent="1" source="YAhVAdzrSbsZRVZ3iHBd-72" target="YAhVAdzrSbsZRVZ3iHBd-62" edge="1">
          <mxGeometry relative="1" as="geometry">
            <mxPoint x="7679" y="6508.25" as="targetPoint" />
          </mxGeometry>
        </mxCell>
        <mxCell id="YAhVAdzrSbsZRVZ3iHBd-81" value="调tpp预测T" style="html=1;verticalAlign=bottom;endArrow=block;entryX=0;entryY=0;rounded=0;" parent="1" source="YAhVAdzrSbsZRVZ3iHBd-77" target="YAhVAdzrSbsZRVZ3iHBd-80" edge="1">
          <mxGeometry relative="1" as="geometry">
            <mxPoint x="7981" y="6605" as="sourcePoint" />
          </mxGeometry>
        </mxCell>
        <mxCell id="YAhVAdzrSbsZRVZ3iHBd-82" value="return" style="html=1;verticalAlign=bottom;endArrow=open;dashed=1;endSize=8;rounded=0;exitX=0.4;exitY=0.857;exitDx=0;exitDy=0;exitPerimeter=0;" parent="1" source="YAhVAdzrSbsZRVZ3iHBd-80" target="YAhVAdzrSbsZRVZ3iHBd-77" edge="1">
          <mxGeometry relative="1" as="geometry">
            <mxPoint x="7981" y="6681" as="targetPoint" />
            <mxPoint x="8025" y="6665" as="sourcePoint" />
          </mxGeometry>
        </mxCell>
        <mxCell id="YAhVAdzrSbsZRVZ3iHBd-86" value="调用规则服务调整T" style="html=1;verticalAlign=bottom;endArrow=block;entryX=0;entryY=0;rounded=0;" parent="1" source="YAhVAdzrSbsZRVZ3iHBd-83" target="YAhVAdzrSbsZRVZ3iHBd-85" edge="1">
          <mxGeometry relative="1" as="geometry">
            <mxPoint x="8155" y="6750" as="sourcePoint" />
          </mxGeometry>
        </mxCell>
        <mxCell id="YAhVAdzrSbsZRVZ3iHBd-87" value="return" style="html=1;verticalAlign=bottom;endArrow=open;dashed=1;endSize=8;exitX=0;exitY=0.95;rounded=0;" parent="1" source="YAhVAdzrSbsZRVZ3iHBd-85" target="YAhVAdzrSbsZRVZ3iHBd-83" edge="1">
          <mxGeometry relative="1" as="geometry">
            <mxPoint x="8155" y="6826" as="targetPoint" />
          </mxGeometry>
        </mxCell>
        <mxCell id="YAhVAdzrSbsZRVZ3iHBd-91" value="调tpp末端校准" style="html=1;verticalAlign=bottom;endArrow=block;entryX=0;entryY=0;rounded=0;" parent="1" source="YAhVAdzrSbsZRVZ3iHBd-88" target="YAhVAdzrSbsZRVZ3iHBd-90" edge="1">
          <mxGeometry relative="1" as="geometry">
            <mxPoint x="7980" y="6890" as="sourcePoint" />
          </mxGeometry>
        </mxCell>
        <mxCell id="YAhVAdzrSbsZRVZ3iHBd-92" value="return" style="html=1;verticalAlign=bottom;endArrow=open;dashed=1;endSize=8;exitX=0;exitY=0.95;rounded=0;entryX=0.6;entryY=0.815;entryDx=0;entryDy=0;entryPerimeter=0;" parent="1" source="YAhVAdzrSbsZRVZ3iHBd-90" target="YAhVAdzrSbsZRVZ3iHBd-88" edge="1">
          <mxGeometry relative="1" as="geometry">
            <mxPoint x="7980" y="6966" as="targetPoint" />
          </mxGeometry>
        </mxCell>
        <mxCell id="YAhVAdzrSbsZRVZ3iHBd-96" value="" style="shape=curlyBracket;whiteSpace=wrap;html=1;rounded=1;" parent="1" vertex="1">
          <mxGeometry x="7511" y="6155" width="20" height="120" as="geometry" />
        </mxCell>
        <mxCell id="YAhVAdzrSbsZRVZ3iHBd-97" value="1～2ms" style="text;html=1;align=center;verticalAlign=middle;resizable=0;points=[];autosize=1;strokeColor=none;fillColor=none;" parent="1" vertex="1">
          <mxGeometry x="7410.5" y="6205" width="70" height="20" as="geometry" />
        </mxCell>
        <mxCell id="YAhVAdzrSbsZRVZ3iHBd-98" value="" style="shape=curlyBracket;whiteSpace=wrap;html=1;rounded=1;" parent="1" vertex="1">
          <mxGeometry x="7514" y="6385" width="20" height="120" as="geometry" />
        </mxCell>
        <mxCell id="YAhVAdzrSbsZRVZ3iHBd-99" value="4～6ms" style="text;html=1;align=center;verticalAlign=middle;resizable=0;points=[];autosize=1;strokeColor=none;fillColor=none;" parent="1" vertex="1">
          <mxGeometry x="7415" y="6435" width="70" height="20" as="geometry" />
        </mxCell>
        <mxCell id="YAhVAdzrSbsZRVZ3iHBd-100" value="" style="shape=curlyBracket;whiteSpace=wrap;html=1;rounded=1;" parent="1" vertex="1">
          <mxGeometry x="7516" y="6555" width="20" height="120" as="geometry" />
        </mxCell>
        <mxCell id="YAhVAdzrSbsZRVZ3iHBd-101" value="20～25ms" style="text;html=1;align=center;verticalAlign=middle;resizable=0;points=[];autosize=1;strokeColor=none;fillColor=none;" parent="1" vertex="1">
          <mxGeometry x="7415" y="6605" width="80" height="20" as="geometry" />
        </mxCell>
        <mxCell id="YAhVAdzrSbsZRVZ3iHBd-102" value="" style="shape=curlyBracket;whiteSpace=wrap;html=1;rounded=1;" parent="1" vertex="1">
          <mxGeometry x="7516" y="6715" width="20" height="90" as="geometry" />
        </mxCell>
        <mxCell id="YAhVAdzrSbsZRVZ3iHBd-103" value="6～10ms" style="text;html=1;align=center;verticalAlign=middle;resizable=0;points=[];autosize=1;strokeColor=none;fillColor=none;" parent="1" vertex="1">
          <mxGeometry x="7415" y="6750" width="80" height="20" as="geometry" />
        </mxCell>
        <mxCell id="YAhVAdzrSbsZRVZ3iHBd-104" value="" style="shape=curlyBracket;whiteSpace=wrap;html=1;rounded=1;" parent="1" vertex="1">
          <mxGeometry x="7516" y="6850" width="20" height="90" as="geometry" />
        </mxCell>
        <mxCell id="YAhVAdzrSbsZRVZ3iHBd-105" value="6～10ms" style="text;html=1;align=center;verticalAlign=middle;resizable=0;points=[];autosize=1;strokeColor=none;fillColor=none;" parent="1" vertex="1">
          <mxGeometry x="7415" y="6885" width="80" height="20" as="geometry" />
        </mxCell>
        <mxCell id="YAhVAdzrSbsZRVZ3iHBd-109" value="5.等待task执行完，70ms超时，merge结果" style="text;html=1;align=center;verticalAlign=middle;resizable=0;points=[];autosize=1;strokeColor=none;fillColor=none;" parent="1" vertex="1">
          <mxGeometry x="6127.5" y="7065" width="300" height="20" as="geometry" />
        </mxCell>
        <mxCell id="YAhVAdzrSbsZRVZ3iHBd-110" value="merge result" style="html=1;" parent="1" vertex="1">
          <mxGeometry x="6655" y="7045" width="290" height="70" as="geometry" />
        </mxCell>
        <mxCell id="YAhVAdzrSbsZRVZ3iHBd-111" value="" style="shape=flexArrow;endArrow=classic;html=1;rounded=0;" parent="1" edge="1">
          <mxGeometry width="50" height="50" relative="1" as="geometry">
            <mxPoint x="6798.57" y="6955" as="sourcePoint" />
            <mxPoint x="6798.57" y="7025" as="targetPoint" />
          </mxGeometry>
        </mxCell>
        <mxCell id="XbuPu3IkXXRg0Qd9zwa2-1" value="" style="endArrow=none;dashed=1;html=1;dashPattern=1 3;strokeWidth=2;rounded=0;" parent="1" edge="1">
          <mxGeometry width="50" height="50" relative="1" as="geometry">
            <mxPoint x="198.87" y="10760" as="sourcePoint" />
            <mxPoint x="1188.87" y="10760" as="targetPoint" />
          </mxGeometry>
        </mxCell>
        <mxCell id="Ra6JO7Bl01ZAu5r_lXQk-3" value="&lt;span style=&quot;font-size: 100px;&quot;&gt;并行呼单逻辑&lt;/span&gt;" style="text;html=1;align=center;verticalAlign=middle;resizable=0;points=[];autosize=1;strokeColor=none;fillColor=none;" vertex="1" parent="1">
          <mxGeometry x="3120" y="1675" width="620" height="130" as="geometry" />
        </mxCell>
        <mxCell id="Ra6JO7Bl01ZAu5r_lXQk-7" value="&lt;span style=&quot;&quot;&gt;骑手T相关链路&lt;/span&gt;" style="text;html=1;align=center;verticalAlign=middle;resizable=0;points=[];autosize=1;strokeColor=none;fillColor=none;fontSize=100;" vertex="1" parent="1">
          <mxGeometry x="-1104.81" y="9220" width="680" height="130" as="geometry" />
        </mxCell>
        <mxCell id="Ra6JO7Bl01ZAu5r_lXQk-8" value="&lt;span style=&quot;font-size: 100px;&quot;&gt;实时列表T&lt;/span&gt;" style="text;html=1;align=center;verticalAlign=middle;resizable=0;points=[];autosize=1;strokeColor=none;fillColor=none;" vertex="1" parent="1">
          <mxGeometry x="6761" y="1670" width="480" height="130" as="geometry" />
        </mxCell>
        <mxCell id="Ra6JO7Bl01ZAu5r_lXQk-9" value="规则逻辑" style="text;html=1;align=center;verticalAlign=middle;resizable=0;points=[];autosize=1;strokeColor=none;fillColor=none;fontSize=100;" vertex="1" parent="1">
          <mxGeometry x="-473.43999999999994" y="4889" width="420" height="130" as="geometry" />
        </mxCell>
        <mxCell id="Ra6JO7Bl01ZAu5r_lXQk-11" value="询T主流程" style="text;html=1;align=center;verticalAlign=middle;resizable=0;points=[];autosize=1;strokeColor=none;fillColor=none;fontSize=100;" vertex="1" parent="1">
          <mxGeometry x="-720" y="1605" width="480" height="130" as="geometry" />
        </mxCell>
        <mxCell id="Ra6JO7Bl01ZAu5r_lXQk-19" value="询用户T" style="swimlane;fontSize=20;" vertex="1" parent="1">
          <mxGeometry x="-1135" y="9550" width="200" height="420" as="geometry" />
        </mxCell>
        <mxCell id="Ra6JO7Bl01ZAu5r_lXQk-22" value="初始骑手T" style="rounded=0;whiteSpace=wrap;html=1;fontSize=20;" vertex="1" parent="Ra6JO7Bl01ZAu5r_lXQk-19">
          <mxGeometry x="40" y="170" width="120" height="60" as="geometry" />
        </mxCell>
        <mxCell id="Ra6JO7Bl01ZAu5r_lXQk-20" value="分流询T" style="swimlane;fontSize=20;" vertex="1" parent="1">
          <mxGeometry x="-935" y="9550" width="455" height="420" as="geometry" />
        </mxCell>
        <mxCell id="Ra6JO7Bl01ZAu5r_lXQk-29" style="edgeStyle=orthogonalEdgeStyle;rounded=0;orthogonalLoop=1;jettySize=auto;html=1;fontSize=20;" edge="1" parent="Ra6JO7Bl01ZAu5r_lXQk-20" source="Ra6JO7Bl01ZAu5r_lXQk-23" target="Ra6JO7Bl01ZAu5r_lXQk-25">
          <mxGeometry relative="1" as="geometry" />
        </mxCell>
        <mxCell id="Ra6JO7Bl01ZAu5r_lXQk-23" value="十分钟逻辑" style="whiteSpace=wrap;html=1;fontSize=20;" vertex="1" parent="Ra6JO7Bl01ZAu5r_lXQk-20">
          <mxGeometry x="75" y="110" width="120" height="60" as="geometry" />
        </mxCell>
        <mxCell id="Ra6JO7Bl01ZAu5r_lXQk-28" style="edgeStyle=orthogonalEdgeStyle;rounded=0;orthogonalLoop=1;jettySize=auto;html=1;fontSize=20;" edge="1" parent="Ra6JO7Bl01ZAu5r_lXQk-20" source="Ra6JO7Bl01ZAu5r_lXQk-24" target="Ra6JO7Bl01ZAu5r_lXQk-25">
          <mxGeometry relative="1" as="geometry" />
        </mxCell>
        <mxCell id="Ra6JO7Bl01ZAu5r_lXQk-24" value="不减T逻辑" style="whiteSpace=wrap;html=1;fontSize=20;" vertex="1" parent="Ra6JO7Bl01ZAu5r_lXQk-20">
          <mxGeometry x="75" y="220" width="120" height="60" as="geometry" />
        </mxCell>
        <mxCell id="Ra6JO7Bl01ZAu5r_lXQk-25" value="分流骑手T" style="whiteSpace=wrap;html=1;fontSize=20;" vertex="1" parent="Ra6JO7Bl01ZAu5r_lXQk-20">
          <mxGeometry x="275" y="170" width="120" height="60" as="geometry" />
        </mxCell>
        <mxCell id="Ra6JO7Bl01ZAu5r_lXQk-21" value="动态T" style="swimlane;fontSize=20;" vertex="1" parent="1">
          <mxGeometry x="-480" y="9550" width="200" height="420" as="geometry" />
        </mxCell>
        <mxCell id="Ra6JO7Bl01ZAu5r_lXQk-30" value="动态骑手T" style="whiteSpace=wrap;html=1;fontSize=20;" vertex="1" parent="Ra6JO7Bl01ZAu5r_lXQk-21">
          <mxGeometry x="50.31" y="170" width="120" height="60" as="geometry" />
        </mxCell>
        <mxCell id="Ra6JO7Bl01ZAu5r_lXQk-26" style="edgeStyle=orthogonalEdgeStyle;rounded=0;orthogonalLoop=1;jettySize=auto;html=1;fontSize=20;" edge="1" parent="1" source="Ra6JO7Bl01ZAu5r_lXQk-22" target="Ra6JO7Bl01ZAu5r_lXQk-23">
          <mxGeometry relative="1" as="geometry">
            <Array as="points">
              <mxPoint x="-910" y="9750" />
              <mxPoint x="-910" y="9690" />
            </Array>
          </mxGeometry>
        </mxCell>
        <mxCell id="Ra6JO7Bl01ZAu5r_lXQk-27" style="edgeStyle=orthogonalEdgeStyle;rounded=0;orthogonalLoop=1;jettySize=auto;html=1;entryX=0;entryY=0.5;entryDx=0;entryDy=0;fontSize=20;" edge="1" parent="1" source="Ra6JO7Bl01ZAu5r_lXQk-22" target="Ra6JO7Bl01ZAu5r_lXQk-24">
          <mxGeometry relative="1" as="geometry">
            <Array as="points">
              <mxPoint x="-910" y="9750" />
              <mxPoint x="-910" y="9800" />
            </Array>
          </mxGeometry>
        </mxCell>
        <mxCell id="Ra6JO7Bl01ZAu5r_lXQk-31" style="edgeStyle=orthogonalEdgeStyle;rounded=0;orthogonalLoop=1;jettySize=auto;html=1;fontSize=20;" edge="1" parent="1" source="Ra6JO7Bl01ZAu5r_lXQk-25" target="Ra6JO7Bl01ZAu5r_lXQk-30">
          <mxGeometry relative="1" as="geometry" />
        </mxCell>
        <mxCell id="Ra6JO7Bl01ZAu5r_lXQk-32" value="各询T阶段骑手T的关系" style="text;html=1;align=center;verticalAlign=middle;resizable=0;points=[];autosize=1;strokeColor=none;fillColor=none;fontSize=20;" vertex="1" parent="1">
          <mxGeometry x="-1140.44" y="9480" width="230" height="40" as="geometry" />
        </mxCell>
      </root>
    </mxGraphModel>
  </diagram>
</mxfile>
